<svg width="16" height="16" viewBox="0 0 16 16" fill="none" xmlns="http://www.w3.org/2000/svg">
<path d="M14.6292 11.3042V13.3042C14.6299 13.4899 14.5919 13.6737 14.5175 13.8438C14.4431 14.0139 14.334 14.1666 14.1972 14.2921C14.0604 14.4177 13.8989 14.5132 13.723 14.5727C13.5471 14.6322 13.3607 14.6543 13.1758 14.6376C11.1244 14.4147 9.15382 13.7137 7.42248 12.5909C5.8117 11.5673 4.44604 10.2017 3.42249 8.5909C2.2958 6.8517 1.59465 4.87156 1.37582 2.8109C1.35916 2.62654 1.38107 2.44074 1.44015 2.26531C1.49924 2.08989 1.5942 1.92869 1.719 1.79198C1.84379 1.65526 1.99569 1.54604 2.16501 1.47124C2.33434 1.39645 2.51738 1.35774 2.70249 1.35756H4.70249C5.02602 1.35438 5.33968 1.46895 5.58499 1.67992C5.83031 1.89089 5.99054 2.18386 6.03582 2.50423C6.12023 3.14427 6.27679 3.77271 6.50249 4.37756C6.59218 4.61618 6.61159 4.87551 6.55842 5.12482C6.50525 5.37413 6.38173 5.60297 6.20248 5.78423L5.35582 6.6309C6.30486 8.29993 7.68679 9.68186 9.35582 10.6309L10.2025 9.78423C10.3837 9.60499 10.6126 9.48146 10.8619 9.42829C11.1112 9.37512 11.3705 9.39453 11.6092 9.48423C12.214 9.70993 12.8424 9.86648 13.4825 9.9509C13.8063 9.99658 14.1021 10.1597 14.3135 10.4092C14.5249 10.6588 14.6373 10.9773 14.6292 11.3042Z" fill="#009FE3"/>
</svg>
