<svg width="16" height="16" viewBox="0 0 16 16" fill="none" xmlns="http://www.w3.org/2000/svg">
<path d="M12.5523 10.781C13.0524 11.2811 13.3333 11.9594 13.3333 12.6667C13.3333 12.6667 13.6666 14 7.99999 14C2.33337 14 2.66666 12.6667 2.66666 12.6667C2.66666 11.9594 2.94761 11.2811 3.44771 10.781C3.9478 10.281 4.62608 10 5.33333 10H10.6667C11.3739 10 12.0522 10.281 12.5523 10.781Z" fill="white" stroke="white" stroke-width="1.5" stroke-linecap="round" stroke-linejoin="round"/>
<path d="M7.9998 7.33333C9.47256 7.33333 10.6665 6.13943 10.6665 4.66667C10.6665 3.19391 9.47256 2 7.9998 2C6.52704 2 5.33313 3.19391 5.33313 4.66667C5.33313 6.13943 6.52704 7.33333 7.9998 7.33333Z" fill="white" stroke="white" stroke-width="1.5" stroke-linecap="round" stroke-linejoin="round"/>
</svg>
