<svg width="21" height="21" viewBox="0 0 21 21" fill="none" xmlns="http://www.w3.org/2000/svg">
<path d="M0 4C0 1.79086 1.79086 0 4 0H17C19.2091 0 21 1.79086 21 4V17C21 19.2091 19.2091 21 17 21H4C1.79086 21 0 19.2091 0 17V4Z" fill="#009FE3"/>
<path d="M10.8188 17.8951C9.89146 17.8998 8.97165 17.73 8.10798 17.3945C7.28643 17.0827 6.54473 16.5938 5.93633 15.9629C5.29932 15.2941 4.81169 14.4992 4.50536 13.6302C4.15254 12.6112 3.98201 11.5388 4.0015 10.4615C3.984 9.38502 4.16502 8.31448 4.53559 7.30279C4.85671 6.44006 5.34646 5.64897 5.97664 4.97509C6.58313 4.33223 7.32453 3.82978 8.14829 3.50338C9.00319 3.16193 9.9176 2.99181 10.8389 3.00279C11.7469 2.97411 12.6482 3.16659 13.4641 3.56344C14.1152 3.89089 14.7104 4.31831 15.2276 4.82992L13.852 6.47684C13.4832 6.12773 13.0698 5.82817 12.6226 5.5858C12.095 5.32875 11.5118 5.20496 10.9246 5.22538C10.3189 5.21633 9.71868 5.33936 9.1661 5.5858C8.64451 5.82794 8.18336 6.18181 7.81574 6.622C7.41764 7.10669 7.11972 7.66465 6.93902 8.26392C6.72284 8.96949 6.61746 9.70396 6.62662 10.4414C6.62662 12.0834 6.99948 13.3715 7.7452 14.3059C8.14872 14.7809 8.65911 15.1549 9.23509 15.3975C9.81106 15.6401 10.4364 15.7446 11.0606 15.7026C11.458 15.7049 11.8535 15.6493 12.2346 15.5374C12.5676 15.4449 12.8769 15.2828 13.1416 15.0618V11.9582H10.3955V9.87078H15.4342V16.2082C14.8769 16.7384 14.2192 17.1536 13.4993 17.4296C12.6428 17.7714 11.7266 17.9415 10.8037 17.9302" fill="white"/>
</svg>
