<svg width="90" height="90" viewBox="0 0 90 90" fill="none" xmlns="http://www.w3.org/2000/svg">
<path fill-rule="evenodd" clip-rule="evenodd" d="M64.8721 61.9748C64.16 61.9748 63.583 62.552 63.583 63.2639V77.464C63.583 79.9184 61.5863 81.9152 59.132 81.9152H11.0293C8.57497 81.9152 6.57813 79.9184 6.57813 77.464V12.0293C6.57813 9.57497 8.57497 7.57813 11.0293 7.57813H47.1713C47.3449 7.57813 47.5158 7.59548 47.6835 7.62367V16.4483C47.6835 20.3242 50.8369 23.4774 54.7127 23.4774H63.5373C63.5655 23.6453 63.5828 23.816 63.5828 23.9896V34.9445C63.5828 35.6564 64.1598 36.2335 64.8719 36.2335C65.584 36.2335 66.161 35.6564 66.161 34.9445V23.9896C66.161 22.4836 65.5745 21.0679 64.5097 20.0031L51.1578 6.6512C50.093 5.58644 48.6771 5 47.1713 5H11.0293C7.15339 5 4 8.15339 4 12.0293V77.464C4 81.3399 7.15339 84.4933 11.0293 84.4933H59.1318C63.0077 84.4933 66.161 81.3399 66.161 77.464V63.2639C66.1611 62.552 65.5841 61.9748 64.8721 61.9748ZM61.7599 20.8995H54.7129C52.2585 20.8995 50.2618 18.9026 50.2618 16.4484V9.4012L61.7599 20.8995ZM82.513 34.7319L84.659 36.4348C86.0942 37.5733 86.3355 39.6676 85.197 41.1023L79.1595 48.711C78.905 49.0317 78.5287 49.1989 78.1489 49.1989C77.8681 49.1989 77.5855 49.1077 77.3485 48.9196C76.7909 48.4771 76.6974 47.6663 77.14 47.1086L83.1773 39.5C83.4325 39.1785 83.3784 38.7091 83.0568 38.4538L81.0256 36.8422L80.2626 37.9246L70.8586 51.2685C68.666 54.3801 66.1776 57.3113 63.4632 59.9808L57.1389 66.2003C56.6647 66.6664 56.0566 66.9241 55.4334 66.9708C54.6196 68.3542 54.364 69.6306 54.6306 70.9415C54.7897 71.7239 54.3411 72.5124 53.5869 72.7754L45.5877 75.5644C44.2967 76.0142 43.0144 74.9527 43.1551 73.6341L44.0527 65.2106C44.1374 64.4166 44.8031 63.8004 45.6014 63.7774C46.9385 63.7387 48.1234 63.1999 49.2856 62.0932C49.1895 61.4758 49.3023 60.8247 49.6486 60.257L51.0762 57.9164C51.4471 57.3085 52.2406 57.1167 52.848 57.4873C53.4558 57.858 53.6479 58.6512 53.2774 59.2591L51.8496 61.5997C51.8115 61.6621 51.8259 61.7434 51.8831 61.7888L55.1393 64.3726C55.1964 64.418 55.2792 64.4133 55.3313 64.3623L61.6554 58.143C64.2599 55.5817 66.6472 52.7693 68.7511 49.7837L77.4535 37.4353L73.043 33.9358L62.9959 45.2171C60.5664 47.9449 58.3702 50.9091 56.4684 54.0273C56.2256 54.4255 55.8012 54.6453 55.3667 54.6453C55.1378 54.6453 54.9064 54.5845 54.6967 54.4566C54.089 54.0859 53.8968 53.2927 54.2674 52.6849C56.2496 49.4351 58.5386 46.3458 61.0707 43.5027L71.927 31.3126L71.9277 31.3117L75.1629 27.6792L75.1635 27.6786L75.1638 27.6783L77.8665 24.6435C79.5648 22.7367 82.4624 22.4865 84.4624 24.0734C86.4627 25.6603 86.8774 28.5387 85.4065 30.6261L83.0647 33.949L82.513 34.7319ZM50.2575 69.2552L48.1174 71.9524L51.9792 70.6058C51.84 69.0596 52.1863 67.5347 53.0278 65.9884L50.7895 64.2122C49.4748 65.3834 48.0685 66.0673 46.5313 66.2831L46.0978 70.3499L48.238 67.6527C48.6804 67.0949 49.4913 67.0016 50.0491 67.4442C50.6066 67.8867 50.7001 68.6975 50.2575 69.2552ZM82.86 26.0929C81.9296 25.3547 80.5818 25.4712 79.7917 26.3581L77.9956 28.3749L81.7435 31.3483L83.2991 29.141C83.9834 28.17 83.7903 26.8311 82.86 26.0929ZM80.2557 33.4593L76.2782 30.3033L74.7606 32.0075L78.9411 35.3247L80.2557 33.4593ZM12.7623 77.1809C12.0956 77.4303 11.3532 77.0913 11.104 76.4246C10.8548 75.7579 11.1932 75.0154 11.8599 74.7657C11.8733 74.7607 12.705 74.4481 13.8459 73.9333C13.7081 73.6475 13.5881 73.3455 13.4877 73.028C12.6684 70.4399 13.326 67.5432 15.0515 66.1403C15.8869 65.4611 17.6947 64.5499 20.415 66.079C22.477 67.2381 22.8216 68.6208 22.7475 69.5768C22.621 71.2096 21.1773 72.8311 18.3425 74.517C18.4529 74.5361 18.5679 74.5501 18.6878 74.5584C21.311 74.7412 22.4238 74.2812 23.3176 73.9117L23.3183 73.9115C24.6835 73.347 25.7345 73.0875 27.8252 74.5624C29.198 75.5305 31.8227 75.4829 32.923 75.2423C33.619 75.0902 34.3058 75.5307 34.4579 76.2261C34.61 76.9217 34.1695 77.6088 33.4741 77.761C32.9172 77.8828 32.1609 77.966 31.3232 77.966C29.6803 77.966 27.724 77.646 26.339 76.669C25.2517 75.9019 25.1618 75.9391 24.3033 76.294L24.3031 76.2941C23.2811 76.7166 21.7368 77.355 18.5087 77.1303C17.3692 77.0509 16.3453 76.6589 15.504 76.0089C13.998 76.717 12.8298 77.1558 12.7623 77.1809ZM17.5938 67.8276C17.2408 67.8276 16.9349 67.9321 16.6779 68.1409C15.7862 68.8657 15.4578 70.7091 15.9456 72.2499C15.9971 72.4129 16.0664 72.5985 16.159 72.7924L16.2015 72.7694C19.063 71.2094 20.1316 69.9673 20.1771 69.3776C20.2089 68.967 19.4707 68.5057 19.1519 68.3266C18.5603 67.994 18.0395 67.8276 17.5938 67.8276ZM47.8207 29.9731H12.9739C12.262 29.9731 11.6848 30.5502 11.6848 31.2621C11.6848 31.974 12.262 32.5512 12.9739 32.5512H47.8207C48.5328 32.5512 49.1098 31.974 49.1098 31.2621C49.1098 30.5502 48.5328 29.9731 47.8207 29.9731ZM12.9739 37.5352H47.8207C48.5328 37.5352 49.1098 38.1123 49.1098 38.8242C49.1098 39.5361 48.5328 40.1133 47.8207 40.1133H12.9739C12.262 40.1133 11.6848 39.5361 11.6848 38.8242C11.6848 38.1123 12.262 37.5352 12.9739 37.5352ZM49.1098 46.386C49.1098 45.6741 48.5328 45.097 47.8207 45.097H12.9739C12.262 45.097 11.6848 45.6741 11.6848 46.386C11.6848 47.0979 12.262 47.6751 12.9739 47.6751H47.8207C48.5328 47.6751 49.1098 47.0979 49.1098 46.386ZM27.7815 55.237H12.9739C12.262 55.237 11.6848 54.6598 11.6848 53.9479C11.6848 53.236 12.262 52.6588 12.9739 52.6588H27.7815C28.4934 52.6588 29.0705 53.236 29.0705 53.9479C29.0705 54.6598 28.4934 55.237 27.7815 55.237ZM27.3647 23.5518H13.88C12.6697 23.5518 11.6848 22.5669 11.6848 21.3566V16.4466C11.6848 15.2361 12.6697 14.2515 13.88 14.2515H27.3647C28.5752 14.2515 29.5598 15.2361 29.5598 16.4466V21.3566C29.5598 22.5671 28.5752 23.5518 27.3647 23.5518ZM26.9817 16.8296H14.263V20.9737H26.9817V16.8296Z" fill="#009FE3"/>
</svg>
