<svg width="90" height="90" viewBox="0 0 90 90" fill="none" xmlns="http://www.w3.org/2000/svg">
<path fill-rule="evenodd" clip-rule="evenodd" d="M16.6 77.2667H8.33334C4.28496 77.2617 1.00501 73.9817 1 69.9333V48.9324C0.999285 47.1599 1.24636 45.3967 1.73333 43.693L3.87031 36.2337L1.43972 28.9383C0.338283 25.6419 1.36953 22.0067 4.03861 19.7809L9.8 14.9784V11.2667C9.8 10.8778 9.95469 10.5047 10.2297 10.2297L12.7333 7.72604V2.46667C12.7333 1.65671 13.39 1 14.2 1H23C23.81 1 24.4667 1.65671 24.4667 2.46667V7.72604L26.9703 10.2297C27.2453 10.5047 27.4 10.8778 27.4 11.2667V14.9784L30.3464 17.448C30.3464 17.448 31.7412 18.6118 30.782 19.6374C29.8032 20.6842 28.5209 19.6374 28.5209 19.6374L25.4027 17.1333H11.7973L5.91777 22.0346C4.17468 23.487 3.49935 25.8574 4.21478 28.0102L6.79076 35.7367C6.88529 36.0167 6.89245 36.3189 6.81081 36.6032L4.55495 44.5001C4.14245 45.941 3.93333 47.4327 3.93333 48.9324V69.9333C3.93333 72.3632 5.90345 74.3333 8.33334 74.3333H16.6C16.6 74.3333 18.2421 74.3333 18.2421 75.8C18.2421 77.2667 16.6 77.2667 16.6 77.2667ZM15.6667 3.93333H21.5333V6.86667H15.6667V3.93333ZM12.7333 11.874L14.8073 9.8H22.3927L24.4667 11.874V14.2H12.7333V11.874ZM75.8 1H61.1333C60.3234 1 59.6667 1.65671 59.6667 2.46667V6.86667C59.6667 7.56348 60.1572 8.16432 60.8397 8.30397L62.2434 8.58542C63.4393 8.82819 64.5644 9.34023 65.5333 10.0814V10.3751C65.5362 13.1888 64.1297 15.8171 61.7858 17.3754C61.7858 17.3754 60.4728 18.2934 61.2842 19.4839C62.0372 20.5887 63.4143 19.816 63.4143 19.816C65.7102 18.2856 67.3681 15.9696 68.075 13.3027C68.2561 13.7051 68.4037 14.1227 68.5154 14.5502C68.6758 15.204 69.2609 15.6638 69.9333 15.6667H72.8667V19.8511L69.6134 30.7131L69.6314 30.7185C69.6314 30.7185 69.0998 32.272 70.5035 32.719C71.9071 33.166 72.4236 31.5567 72.4236 31.5567L75.4248 21.5333H81.9087L84.6 36.3318V69.9333C84.6 72.3632 82.6299 74.3333 80.2 74.3333H79.4116C79.4116 74.3333 77.8093 74.3332 77.8093 75.7999C77.8093 77.2665 79.4116 77.2667 79.4116 77.2667H80.2C84.2484 77.2617 87.5283 73.9817 87.5333 69.9333V36.2C87.5333 36.1119 87.5248 36.0238 87.5083 35.9372L84.6 19.9392V15.6667H87.5333C88.3433 15.6667 89 15.01 89 14.2C88.9921 6.91322 83.0868 1.00788 75.8 1ZM81.6667 18.6H75.8V15.6667H81.6667V18.6ZM83.1333 12.7333H71.014C69.687 9.1304 66.5875 6.47207 62.8242 5.70937L62.6 5.66426V3.93333H75.8C80.9011 3.93978 85.2266 7.68522 85.9628 12.7333H83.1333ZM18.6 20.0667C23.5335 20.0667 27.4 22.6433 27.4 25.9333C27.4 29.2233 23.5335 31.8 18.6 31.8C13.6665 31.8 9.80001 29.2233 9.80001 25.9333C9.80001 22.6433 13.6665 20.0667 18.6 20.0667ZM18.6 23C15.2427 23 12.7333 24.549 12.7333 25.9333C12.7333 27.3176 15.2427 28.8666 18.6 28.8666C21.9573 28.8666 24.4667 27.3176 24.4667 25.9333C24.4667 24.549 21.9573 23 18.6 23ZM56.4719 48.527C60.5361 53.8895 61.8488 60.8483 60.0169 67.323C59.3158 69.6032 60.5819 72.0224 62.855 72.7464C65.128 73.4704 67.56 72.2286 68.307 69.9627C71.5969 60.6457 69.8803 50.2931 63.7602 42.5358L63.1736 41.7867C61.5781 39.7457 58.6333 39.3776 56.5844 40.9624C54.5348 42.5479 54.1516 45.4906 55.7257 47.5474L56.4719 48.527ZM57.7338 44.281C57.8878 43.6157 58.4106 43.0979 59.078 42.9497C59.7447 42.8022 60.4372 43.05 60.8591 43.5878L61.4456 44.3369C66.947 51.3071 68.4903 60.6113 65.5333 68.9845C65.3371 69.455 64.9103 69.7894 64.4061 69.8682C63.9027 69.947 63.3942 69.7586 63.0634 69.3705C62.7955 69.0153 62.7096 68.5548 62.8335 68.128C64.916 60.7638 63.4229 52.849 58.8001 46.7496L58.0446 45.7584C57.7259 45.3373 57.6113 44.7952 57.7338 44.281ZM28.8667 89C28.3761 89 27.9185 88.7551 27.6464 88.3476C15.1998 69.5688 16.6944 44.8181 31.3102 27.6743L33.2667 25.3905V17.1333C33.2667 16.3234 33.9234 15.6666 34.7333 15.6666H36.2V9.79998C36.2 8.18006 37.5134 6.86665 39.1333 6.86665H50.8667C52.4866 6.86665 53.8 8.18006 53.8 9.79998V15.6666H55.2667C56.0766 15.6666 56.7333 16.3234 56.7333 17.1333V25.2207L62.638 29.8614C70.6638 36.1692 75.838 45.4218 77.0096 55.5631C78.1819 65.7038 75.2543 75.8924 68.8785 83.8652L65.2118 88.45C64.9339 88.798 64.5121 89 64.0667 89H28.8667ZM50.8667 9.79998H39.1333V15.6666H50.8667V9.79998ZM35.8462 26.8879L33.5367 29.5821C19.9607 45.5077 18.3866 68.4351 29.6587 86.0667H63.3627L66.5897 82.0333C72.4764 74.6713 75.1798 65.2633 74.0977 55.8997C73.0156 46.5354 68.2382 37.9918 60.8268 32.1666L54.7589 27.4H41.2533C41.2533 27.4 39.7103 27.4 39.7103 25.9333C39.7103 24.4666 41.2533 24.4666 41.2533 24.4666H53.8V18.6H36.2V25.9333C36.2 26.2835 36.0747 26.6222 35.8462 26.8879Z" fill="#009FE3"/>
</svg>
