<svg width="90" height="90" viewBox="0 0 90 90" fill="none" xmlns="http://www.w3.org/2000/svg">
<path fill-rule="evenodd" clip-rule="evenodd" d="M1 10.71V57.446C1 61.1458 4.01021 64.156 7.70997 64.156H39.6445C39.6445 64.156 40.9311 64.0983 40.9311 62.8252C40.9311 61.5521 39.6445 61.5781 39.6445 61.5781H7.70997C5.43161 61.5781 3.57811 59.7246 3.57811 57.4462V10.71C3.57811 8.43161 5.43161 6.57812 7.70997 6.57812H82.29C84.5684 6.57812 86.4219 8.43161 86.4219 10.71V31.0702L86.4219 31.0826L86.4223 31.1047L86.423 31.125L86.424 31.1447C86.4226 31.1693 86.4219 31.1941 86.4219 31.2191V57.446C86.4219 58.9776 85.5843 60.3172 84.3431 61.0308C84.3431 61.0308 83.3432 61.7332 83.8206 62.7434C84.2568 63.6664 85.5176 63.3275 85.5176 63.3275C87.5917 62.1847 89 59.9767 89 57.446V31.2191C89 31.207 88.9998 31.1948 88.9995 31.1827L88.9987 31.1617L88.9979 31.1447C88.9985 31.1348 88.9989 31.1249 88.9992 31.115C88.9997 31.1002 89 31.0852 89 31.0702V10.71C89 7.01004 85.9898 4 82.29 4H7.70997C4.01021 4 1 7.01004 1 10.71ZM12.3817 16.675C12.3817 17.3869 12.9587 17.9641 13.6708 17.9641H57.76C58.4721 17.9641 59.049 17.3869 59.049 16.675C59.049 15.9631 58.4721 15.386 57.76 15.386H13.6708C12.9589 15.386 12.3817 15.9631 12.3817 16.675ZM49.4713 29.698C49.4713 30.4099 48.8943 30.9871 48.1823 30.9871H13.6709C12.9588 30.9871 12.3818 30.4099 12.3818 29.698C12.3818 28.9861 12.9588 28.4089 13.6709 28.4089H48.1823C48.8943 28.4089 49.4713 28.9861 49.4713 29.698ZM24.6931 52.5534C25.4052 52.5534 25.9822 53.1304 25.9822 53.8425C25.9822 54.5545 25.4052 55.1315 24.6931 55.1315H13.6708C12.9587 55.1315 12.3817 54.5545 12.3817 53.8425C12.3817 53.1304 12.9587 52.5534 13.6708 52.5534H24.6931ZM57.76 24.4756H13.6708C12.9589 24.4756 12.3817 23.8984 12.3817 23.1865C12.3817 22.4746 12.9587 21.8975 13.6708 21.8975H57.76C58.4721 21.8975 59.049 22.4746 59.049 23.1865C59.049 23.8986 58.4721 24.4756 57.76 24.4756ZM13.6708 37.4985H40.16C40.8721 37.4985 41.449 36.9215 41.449 36.2095C41.449 35.4974 40.8721 34.9204 40.16 34.9204H13.6708C12.9587 34.9204 12.3817 35.4974 12.3817 36.2095C12.3817 36.9215 12.9589 37.4985 13.6708 37.4985ZM80.2057 53.6811C81.1105 52.353 81.3446 50.7148 80.848 49.1865C80.3515 47.6582 79.1991 46.4706 77.6866 45.9281C76.6832 45.5682 76.0137 44.647 75.9817 43.5813C75.9331 41.9752 75.1595 40.5122 73.8592 39.5675C72.5594 38.6231 70.9286 38.3397 69.3865 38.7896C68.3625 39.0884 67.2802 38.7364 66.6278 37.8933C65.6445 36.6223 64.1588 35.8934 62.5518 35.8934C60.9449 35.8934 59.459 36.6223 58.4756 37.8933C57.8231 38.7365 56.7402 39.088 55.717 38.7896C54.1747 38.3393 52.5442 38.6231 51.2439 39.5675C49.9439 40.5122 49.1706 41.975 49.1218 43.5812C49.0897 44.6468 48.4204 45.5679 47.4168 45.928C45.9043 46.4704 44.7519 47.6582 44.2555 49.1864C43.7589 50.7147 43.993 52.353 44.8978 53.6809C45.498 54.5621 45.498 55.7006 44.8978 56.5816C43.993 57.9097 43.7589 59.5478 44.2555 61.0762C44.7519 62.6045 45.9043 63.7921 47.4168 64.3347C48.4204 64.6948 49.0898 65.6159 49.1218 66.6815C49.1667 68.159 49.8437 69.5472 50.9798 70.4899C51.7293 71.1121 52.6298 71.5014 53.5722 71.6315V83.3668C53.5722 84.357 54.1093 85.2722 54.9736 85.755C55.8369 86.2375 56.8983 86.216 57.742 85.6964L62.4694 82.7862C62.5464 82.7386 62.5923 82.7601 62.6348 82.7862L67.3619 85.6964C68.2052 86.2155 69.2662 86.2378 70.1304 85.7548C70.9949 85.2719 71.5319 84.3566 71.5319 83.3666V71.6312C72.4739 71.5012 73.3744 71.1119 74.1239 70.4899C75.2602 69.5472 75.9374 68.1591 75.9822 66.6813C76.0142 65.6157 76.6837 64.6945 77.6871 64.3346C79.1997 63.7921 80.3522 62.6043 80.8485 61.076C81.3451 59.5477 81.111 57.9095 80.2062 56.5814C79.6054 55.7008 79.6054 54.5623 80.2057 53.6811ZM68.713 83.5012L63.9857 80.591C63.1069 80.0501 61.9973 80.0493 61.1176 80.591L56.3904 83.501C56.2828 83.5665 56.1499 83.4911 56.1499 83.3666V71.3868C57.0361 71.2842 57.9147 71.6448 58.4756 72.3695C59.4592 73.6404 60.9449 74.3693 62.5519 74.3693C64.1588 74.3693 65.6445 73.6404 66.6278 72.3695C67.1888 71.6446 68.0676 71.2842 68.9536 71.3868V83.3666C68.9536 83.4919 68.819 83.5667 68.713 83.5012ZM78.0753 58.0334C78.5277 58.6972 78.6446 59.5159 78.3964 60.2797C78.1482 61.0435 77.5723 61.6372 76.8162 61.9084C74.8083 62.6285 73.4694 64.4715 73.405 66.6037C73.3821 67.3532 73.0526 68.0288 72.4774 68.5063C71.8306 69.0431 70.9547 69.2455 70.1088 68.9987C68.0612 68.4013 65.8944 69.1053 64.5888 70.7921C64.0974 71.4272 63.3548 71.7915 62.5516 71.7915C61.7486 71.7915 61.0059 71.4273 60.5142 70.7921C59.5175 69.5037 58.0186 68.7887 56.454 68.7887C55.9696 68.7887 55.4788 68.8573 54.9948 68.9986C54.1405 69.2474 53.2672 69.0388 52.6256 68.5061C52.0504 68.0287 51.7209 67.353 51.6984 66.6037C51.6337 64.4715 50.2948 62.6285 48.2868 61.9082C47.5309 61.637 46.9551 61.0435 46.7068 60.2797C46.4586 59.5159 46.5755 58.6971 47.0278 58.0333C48.2287 56.2704 48.2287 53.9925 47.0278 52.2296C46.5755 51.5658 46.4586 50.747 46.7068 49.983C46.955 49.2192 47.5309 48.6255 48.2868 48.3545C50.2948 47.6342 51.6337 45.7911 51.6984 43.659C51.7226 42.8562 52.109 42.125 52.7588 41.6531C53.4084 41.1809 54.223 41.0393 54.9946 41.2641C57.0416 41.8617 59.209 41.1576 60.5142 39.4708C61.0057 38.8355 61.7482 38.4712 62.5516 38.4712C63.3548 38.4712 64.0973 38.8354 64.5888 39.4706C65.8942 41.1576 68.0605 41.8616 70.1086 41.2641C70.8796 41.039 71.6943 41.1808 72.3442 41.6529C72.994 42.1249 73.3807 42.8562 73.4048 43.6589C73.4694 45.791 74.8083 47.6342 76.8162 48.3543C77.5723 48.6254 78.148 49.219 78.3964 49.9828C78.6446 50.7466 78.5277 51.5656 78.0753 52.2292C76.8741 53.9923 76.8741 56.2705 78.0753 58.0334ZM51.7486 55.1315C51.7486 49.1747 56.5948 44.3285 62.5517 44.3285C68.5083 44.3285 73.3545 49.1747 73.3545 55.1315C73.3545 61.0884 68.5083 65.9345 62.5517 65.9345C56.5948 65.9345 51.7486 61.0884 51.7486 55.1315ZM54.3264 55.1317C54.3264 59.667 58.0162 63.3568 62.5517 63.3568C67.0869 63.3568 70.7767 59.6671 70.7767 55.1317C70.7767 50.5963 67.0871 46.9064 62.5517 46.9064C58.0162 46.9064 54.3264 50.5964 54.3264 55.1317Z" fill="#009FE3"/>
</svg>
