<svg width="90" height="90" viewBox="0 0 90 90" fill="none" xmlns="http://www.w3.org/2000/svg">
<path fill-rule="evenodd" clip-rule="evenodd" d="M26.5586 11.9375C26.7869 11.8354 26.9807 11.6695 27.1168 11.4597C27.2529 11.25 27.3255 11.0053 27.3257 10.7553V6.29958C27.3257 5.95491 27.1888 5.62436 26.9451 5.38064C26.7014 5.13692 26.3708 5 26.0262 5H11.1738C10.8292 5 10.4986 5.13692 10.2549 5.38064C10.0112 5.62436 9.87426 5.95491 9.87426 6.29958V10.7553C9.87426 11.0072 9.94756 11.2537 10.0852 11.4647C10.2229 11.6756 10.419 11.842 10.6496 11.9435L8.27838 67.5342H7.28996C6.95609 67.5342 6.63502 67.6627 6.39334 67.893C6.15165 68.1234 6.00789 68.4379 5.99187 68.7714L5.51659 78.6734H5.53396L5.41376 81.2726L5.32791 83.1291H3.59916H1V84.4287C0.999903 84.5994 1.03345 84.7684 1.09873 84.9262C1.164 85.0839 1.25972 85.2272 1.38042 85.3479C1.50112 85.4686 1.64442 85.5643 1.80214 85.6296C1.95985 85.6948 2.12889 85.7284 2.29958 85.7283H87.7004C87.8711 85.7284 88.0402 85.6948 88.1979 85.6296C88.3556 85.5643 88.4989 85.4686 88.6196 85.3479C88.7403 85.2272 88.836 85.0839 88.9013 84.9262C88.9666 84.7684 89.0001 84.5994 89 84.4287V83.1291H86.4008H84.5443V81.2726V78.6734V26.6903L87.8556 26.2923C88.1916 26.2439 88.4953 26.066 88.7019 25.7966C88.9084 25.5272 89.0013 25.1877 88.9607 24.8507C88.9202 24.5137 88.7494 24.2059 88.4849 23.9932C88.2203 23.7805 87.8831 23.6797 87.5452 23.7124L61.0762 26.8923L58.4889 27.2042L46.2624 28.6739L43.6425 28.9909L27.4587 30.9336L24.8707 31.244L15.7469 32.3603C15.4188 32.4005 15.1183 32.5642 14.9067 32.8182C14.695 33.0721 14.5881 33.3972 14.6077 33.7272C14.6273 34.0572 14.7719 34.3673 15.0121 34.5945C15.2523 34.8216 15.5701 34.9487 15.9006 34.9498C15.953 34.9497 16.0053 34.9468 16.0573 34.9409L17.3004 34.7722V67.5342V70.1334V78.6734V81.2726V83.1291H7.89213L7.98306 81.2726L8.11036 78.6734H8.11872L8.52864 70.1334H9.64738C10.4064 70.0351 10.6281 69.8639 10.8149 68.9924L13.2509 12.0549H23.9624L24.7275 28.2188C24.7275 28.2188 24.7805 29.3393 26 29.3393C26.7891 29.3393 27.3679 29.0188 27.33 28.2188L26.5586 11.9375ZM24.7266 7.59915H12.4779L12.4734 9.45569H24.7266V7.59915ZM81.9451 81.2726V78.6734V27.0037L19.8996 34.4603V78.6734V81.2726V83.1291H63.2416L63.2004 81.2726L63.1429 78.6734V65.1207C63.1428 64.95 63.1763 64.781 63.2416 64.6233C63.3069 64.4655 63.4026 64.3222 63.5233 64.2015C63.644 64.0808 63.7873 63.9851 63.945 63.9198C64.1027 63.8546 64.2717 63.821 64.4424 63.8211H73.3538C73.6985 63.8211 74.029 63.958 74.2728 64.2018C74.5165 64.4455 74.6534 64.776 74.6534 65.1207V78.6734V81.2726V83.1291H81.9451V81.2726ZM72.0542 83.1291V81.2726V78.6734V66.4203H65.742V78.6734V81.2726V83.1291H72.0542ZM60.9226 11.4608C60.7862 11.6708 60.5919 11.8369 60.3632 11.939L60.9474 24.1913C60.9474 24.1913 61.0051 25.4024 59.6894 25.4459C58.4691 25.4863 58.3562 24.3725 58.3462 24.2108L58.3453 24.1913L57.7671 12.0549H47.0548L46.3969 25.8544L46.3941 25.9128C46.3747 26.1718 46.2199 27.2042 44.9864 27.2042C43.7815 27.2042 43.7914 25.8544 43.7914 25.8544L44.452 11.9435C44.222 11.8415 44.0266 11.6749 43.8897 11.464C43.7527 11.253 43.68 11.0068 43.6804 10.7553V6.29958C43.6804 5.95491 43.8173 5.62436 44.061 5.38064C44.3047 5.13692 44.6353 5 44.98 5H59.8323C60.1769 5.0002 60.5073 5.13718 60.751 5.38085C60.9947 5.62453 61.1317 5.95497 61.1319 6.29958V10.7553C61.1317 11.0057 61.059 11.2508 60.9226 11.4608ZM46.2855 7.59915H58.5386V9.45569H46.2855V7.59915ZM28.8481 51.8567H43.7004C44.0451 51.8567 44.3756 51.9936 44.6194 52.2373C44.8631 52.481 45 52.8116 45 53.1562C45 53.5009 44.8631 53.8315 44.6194 54.0752C44.3756 54.3189 44.0451 54.4558 43.7004 54.4558H28.8481C28.5034 54.4558 28.1729 54.3189 27.9292 54.0752C27.6854 53.8315 27.5485 53.5009 27.5485 53.1562C27.5485 52.8116 27.6854 52.481 27.9292 52.2373C28.1729 51.9936 28.5034 51.8567 28.8481 51.8567ZM43.7004 42.9453H28.8481C28.5034 42.9453 28.1729 43.0822 27.9292 43.3259C27.6854 43.5696 27.5485 43.9002 27.5485 44.2448C27.5485 44.5895 27.6854 44.9201 27.9292 45.1638C28.1729 45.4075 28.5034 45.5444 28.8481 45.5444H43.7004C44.0451 45.5444 44.3756 45.4075 44.6193 45.1638C44.8631 44.9201 45 44.5895 45 44.2448C45 43.9002 44.8631 43.5696 44.6193 43.3259C44.3756 43.0822 44.0451 42.9453 43.7004 42.9453ZM28.8481 47.401H43.7004C44.0451 47.401 44.3756 47.5379 44.6194 47.7817C44.8631 48.0254 45 48.3559 45 48.7006C45 49.0453 44.8631 49.3758 44.6194 49.6195C44.3756 49.8633 44.0451 50.0002 43.7004 50.0002H28.8481C28.5034 50.0002 28.1729 49.8633 27.9292 49.6195C27.6854 49.3758 27.5485 49.0453 27.5485 48.7006C27.5485 48.3559 27.6854 48.0254 27.9292 47.7817C28.1729 47.5379 28.5034 47.401 28.8481 47.401Z" fill="#009FE3"/>
</svg>
