<svg width="90" height="90" viewBox="0 0 90 90" fill="none" xmlns="http://www.w3.org/2000/svg">
<path fill-rule="evenodd" clip-rule="evenodd" d="M45.4858 7.85363C63.4154 7.85363 77.9503 22.3885 77.9503 40.3181C77.9503 44.1084 77.3007 47.747 76.1069 51.1286C76.1069 51.1286 75.469 52.5105 77.0986 52.748C78.8512 53.0034 79.1187 51.1286 79.1187 51.1286C80.213 47.7215 80.8039 44.0888 80.8039 40.3181C80.8039 20.8125 64.9915 5 45.4858 5C25.9801 5 10.1677 20.8125 10.1677 40.3181C10.1677 44.0794 10.7556 47.7034 11.8447 51.1032C11.8447 51.1032 12.3657 52.8262 13.7279 52.5997C15.3017 52.338 14.8557 51.1032 14.8557 51.1032C13.6676 47.7288 13.0213 44.0989 13.0213 40.3181C13.0213 22.3885 27.5562 7.85363 45.4858 7.85363ZM58.5487 33.0667H50.9862C50.6217 33.0663 50.2722 32.9213 50.0144 32.6636C49.7566 32.4058 49.6116 32.0563 49.6112 31.6917V27.5667C49.6099 26.4731 49.1749 25.4246 48.4016 24.6513C47.6283 23.878 46.5798 23.443 45.4862 23.4417H42.7362C42.3715 23.4417 42.0218 23.5866 41.7639 23.8445C41.5061 24.1023 41.3612 24.4521 41.3612 24.8167V27.8474C41.3641 28.8861 41.1609 29.915 40.7633 30.8746C40.3658 31.8342 39.7819 32.7054 39.0454 33.4378L38.0416 34.4417H30.3612C29.9965 34.4417 29.6468 34.5866 29.3889 34.8445C29.1311 35.1023 28.9862 35.4521 28.9862 35.8167V50.9417C28.9862 51.3064 29.1311 51.6561 29.3889 51.914C29.6468 52.1719 29.9965 52.3167 30.3612 52.3167H54.4237C54.9805 52.3169 55.529 52.1818 56.0221 51.923C56.5151 51.6642 56.9379 51.2896 57.2541 50.8313C57.5702 50.3729 57.7704 49.8447 57.8372 49.2919C57.904 48.7391 57.8356 48.1784 57.6378 47.6579C58.3075 47.2343 58.8102 46.5923 59.0608 45.8406C59.3113 45.0888 59.2944 44.2736 59.0128 43.5329C59.6825 43.1093 60.1852 42.4673 60.4358 41.7156C60.6863 40.9638 60.6694 40.1486 60.3878 39.4079C61.0167 39.0094 61.4992 38.4175 61.7628 37.7212C62.0263 37.0249 62.0567 36.2618 61.8493 35.5468C61.642 34.8317 61.208 34.2033 60.6128 33.7561C60.0176 33.3088 59.2932 33.0669 58.5487 33.0667ZM31.7362 37.1917H37.2362V49.5667H31.7362V37.1917ZM58.5487 37.1917H57.1737C56.809 37.1917 56.4593 37.3366 56.2014 37.5945C55.9436 37.8523 55.7987 38.2021 55.7987 38.5667C55.7987 38.9314 55.9436 39.2812 56.2014 39.539C56.4593 39.7969 56.809 39.9417 57.1737 39.9417C57.3561 39.9417 57.5309 40.0142 57.6599 40.1431C57.7888 40.272 57.8612 40.4469 57.8612 40.6292C57.8612 40.8116 57.7888 40.9864 57.6599 41.1154C57.5309 41.2443 57.3561 41.3167 57.1737 41.3167H55.7987C55.434 41.3167 55.0843 41.4616 54.8264 41.7195C54.5686 41.9773 54.4237 42.3271 54.4237 42.6917C54.4237 43.0564 54.5686 43.4062 54.8264 43.664C55.0843 43.9219 55.434 44.0667 55.7987 44.0667C55.9811 44.0667 56.1559 44.1392 56.2849 44.2681C56.4138 44.397 56.4862 44.5719 56.4862 44.7542C56.4862 44.9366 56.4138 45.1114 56.2849 45.2404C56.1559 45.3693 55.9811 45.4417 55.7987 45.4417H54.4237C54.059 45.4417 53.7093 45.5866 53.4514 45.8445C53.1936 46.1023 53.0487 46.4521 53.0487 46.8167C53.0487 47.1814 53.1936 47.5312 53.4514 47.789C53.7093 48.0469 54.059 48.1917 54.4237 48.1917C54.6061 48.1917 54.7809 48.2642 54.9099 48.3931C55.0388 48.522 55.1112 48.6969 55.1112 48.8792C55.1112 49.0616 55.0388 49.2364 54.9099 49.3654C54.7809 49.4943 54.6061 49.5667 54.4237 49.5667H39.9862V36.3862L40.9901 35.3826C41.9827 34.3953 42.7696 33.221 43.3054 31.9276C43.8411 30.6342 44.115 29.2474 44.1112 27.8474V26.1917H45.4862C45.8508 26.1922 46.2003 26.3371 46.458 26.5949C46.7158 26.8527 46.8608 27.2022 46.8612 27.5667V31.6917C46.8625 32.7854 47.2975 33.8338 48.0708 34.6071C48.8441 35.3805 49.8926 35.8155 50.9862 35.8167H58.5487C58.7311 35.8167 58.9059 35.8892 59.0349 36.0181C59.1638 36.147 59.2362 36.3219 59.2362 36.5042C59.2362 36.6866 59.1638 36.8614 59.0349 36.9904C58.9059 37.1193 58.7311 37.1917 58.5487 37.1917ZM22.7147 81.0029L22.7137 81.0026L20.0756 80.0135L20.0747 80.0131C18.6521 79.4458 17.2509 78.8315 15.8709 78.17L12.5192 76.5612L10.1139 75.266C9.94711 75.0576 9.84995 74.8019 9.83641 74.535C9.82255 74.2617 9.8971 73.9911 10.049 73.7635L11.662 71.3441L2.61915 65.3722C2.39846 65.2398 2.22295 65.0438 2.11579 64.8098C2.00863 64.5758 1.97478 64.3149 2.01871 64.0613C2.06263 63.8077 2.18226 63.5734 2.36187 63.389C2.54148 63.2047 2.77267 63.0791 3.02503 63.0286L8.81741 61.8702L8.43065 54.723C8.41813 54.4918 8.4688 54.2615 8.57721 54.057C8.68562 53.8524 8.84769 53.6812 9.04603 53.5618C9.24437 53.4423 9.47148 53.3791 9.70301 53.379C9.93404 53.3788 10.1608 53.4415 10.3589 53.5602L23.1926 61.8081L23.1939 61.809L24.0344 62.3687C24.4436 62.7053 24.6349 63.0357 24.694 63.3377C24.753 63.6393 24.6829 63.9263 24.5433 64.1817L22.4583 67.3085L22.5771 67.3524C25.39 68.3919 28.2701 69.2398 31.1975 69.8905L31.2011 69.8913L35.953 70.7672C42.2729 71.7041 48.6963 71.704 55.0162 70.7671L55.0197 70.7666L59.7721 69.8905C62.6997 69.2403 65.5798 68.3926 68.3928 67.3532L68.5116 67.3093L66.4296 64.1871C66.2864 63.8391 66.3029 63.4585 66.4096 63.1277C66.518 62.7919 66.7145 62.5216 66.9108 62.3946L66.9125 62.3935L67.7769 61.809L67.7789 61.8077L80.6114 53.5609L80.6126 53.5602C80.8108 53.4415 81.0375 53.3788 81.2686 53.379C81.5001 53.3791 81.7272 53.4423 81.9255 53.5618C82.1239 53.6812 82.2859 53.8524 82.3944 54.057C82.5028 54.2615 82.5534 54.4918 82.5409 54.723L82.1541 61.8702L87.9465 63.0286C88.1989 63.0791 88.4301 63.2047 88.6097 63.389C88.7893 63.5734 88.9089 63.8077 88.9529 64.0613C88.9968 64.3149 88.9629 64.5758 88.8558 64.8098C88.7486 65.0438 88.5732 65.2399 88.3525 65.3722L88.3487 65.3745L79.3084 71.3441L80.9213 73.7635C81.0733 73.9912 81.1479 74.2619 81.1339 74.5353C81.1203 74.8023 81.0231 75.0581 80.8562 75.2665L78.4541 76.5602L78.45 76.5623L75.0994 78.1705C73.7201 78.8324 72.3182 79.447 70.8936 80.0142L68.2551 81.0029C60.9394 83.5775 53.2404 84.8984 45.4849 84.9093C37.729 84.8984 30.0307 83.5777 22.7147 81.0029ZM16.9738 75.8711C25.8716 80.142 35.6152 82.3593 45.4849 82.3593C55.3546 82.3593 65.0981 80.142 73.9959 75.8711L77.9841 73.9565L73.9056 67.8387L73.8282 67.874C64.9279 71.9241 55.263 74.0197 45.4845 74.0197C35.706 74.0197 26.0411 71.9241 17.1408 67.874L17.0633 67.8387L12.9851 73.9565L16.9738 75.8711ZM13.0772 69.2215L15.5491 65.5135C15.7191 65.2585 15.9753 65.0732 16.2708 64.9917C16.5663 64.9102 16.8812 64.9379 17.1579 65.0696C18.0797 65.5086 19.0124 65.9254 19.9558 66.3199L20.0319 66.3517L21.6805 63.8788L11.1062 56.975L11.4232 62.8349C11.4398 63.1411 11.3455 63.443 11.1576 63.6853C10.9697 63.9276 10.7008 64.0941 10.4002 64.1542L6.78116 64.8779L13.0772 69.2215ZM77.8935 69.2215L84.1892 64.8784L80.5702 64.1548C80.2695 64.0946 80.0006 63.9281 79.8127 63.6858C79.6248 63.4435 79.5306 63.1416 79.5472 62.8355L79.8641 56.9755L69.2893 63.8788L70.938 66.3518L71.0141 66.3199C71.9566 65.9244 72.8892 65.5077 73.8118 65.0697C74.0886 64.9377 74.4039 64.9098 74.6996 64.9914C74.9952 65.0729 75.2516 65.2582 75.4216 65.5135L77.8935 69.2215ZM43.1822 79.2915L41.9104 78.3673C41.8223 78.3033 41.7567 78.2131 41.7231 78.1095C41.6894 78.006 41.6894 77.8944 41.7231 77.7909C41.7567 77.6873 41.8223 77.5971 41.9103 77.5331C41.9984 77.4691 42.1045 77.4346 42.2134 77.4346H43.7855L44.2714 75.9392C44.3051 75.8357 44.3707 75.7455 44.4587 75.6815C44.5468 75.6175 44.6529 75.583 44.7618 75.583C44.8707 75.583 44.9767 75.6175 45.0648 75.6815C45.1529 75.7455 45.2185 75.8357 45.2521 75.9392L45.738 77.4346H47.3102C47.4191 77.4346 47.5251 77.4691 47.6132 77.5331C47.7013 77.5971 47.7669 77.6873 47.8005 77.7909C47.8341 77.8944 47.8341 78.006 47.8005 78.1095C47.7668 78.2131 47.7013 78.3033 47.6132 78.3673L46.3413 79.2915L46.8272 80.7868C46.8609 80.8904 46.861 81.002 46.8273 81.1056C46.7937 81.2092 46.7281 81.2995 46.64 81.3635C46.5519 81.4276 46.4457 81.4621 46.3368 81.462C46.2279 81.462 46.1218 81.4275 46.0337 81.3634L44.7618 80.4393L43.4899 81.3634C43.4018 81.4275 43.2957 81.462 43.1867 81.462C43.0778 81.4621 42.9717 81.4276 42.8835 81.3635C42.7954 81.2995 42.7298 81.2092 42.6962 81.1056C42.6626 81.002 42.6626 80.8904 42.6964 80.7868L43.1822 79.2915ZM33.9753 77.3739L35.2472 78.2981L34.7613 79.7934C34.7275 79.897 34.7275 80.0086 34.7611 80.1122C34.7947 80.2158 34.8603 80.3061 34.9484 80.3702C35.0366 80.4342 35.1427 80.4687 35.2516 80.4687C35.3606 80.4686 35.4667 80.4341 35.5548 80.3701L36.8267 79.4459L38.0986 80.3701C38.1867 80.4341 38.2928 80.4686 38.4017 80.4687C38.5107 80.4687 38.6168 80.4342 38.7049 80.3702C38.793 80.3061 38.8586 80.2158 38.8922 80.1122C38.9259 80.0086 38.9258 79.897 38.8921 79.7934L38.4062 78.2981L39.6781 77.3739C39.7662 77.3099 39.8317 77.2197 39.8654 77.1161C39.899 77.0126 39.899 76.901 39.8654 76.7975C39.8318 76.6939 39.7662 76.6037 39.6781 76.5397C39.59 76.4757 39.484 76.4412 39.3751 76.4412H37.8028L37.317 74.9459C37.2834 74.8423 37.2179 74.752 37.1298 74.6879C37.0416 74.6239 36.9355 74.5894 36.8266 74.5894C36.7177 74.5894 36.6116 74.6239 36.5234 74.6879C36.4353 74.752 36.3698 74.8423 36.3362 74.9459L35.8504 76.4412H34.2783C34.1694 76.4412 34.0633 76.4757 33.9752 76.5397C33.8872 76.6037 33.8216 76.6939 33.788 76.7975C33.7543 76.901 33.7543 77.0126 33.788 77.1161C33.8216 77.2197 33.8872 77.3099 33.9753 77.3739ZM51.1172 78.2981L49.8453 77.3739C49.7572 77.3099 49.6916 77.2197 49.658 77.1161C49.6244 77.0126 49.6243 76.901 49.658 76.7975C49.6916 76.6939 49.7572 76.6037 49.8453 76.5397C49.9334 76.4757 50.0394 76.4412 50.1483 76.4412H51.7205L52.2062 74.9459C52.2398 74.8423 52.3054 74.752 52.3935 74.6879C52.4816 74.6239 52.5877 74.5894 52.6966 74.5894C52.8055 74.5894 52.9117 74.6239 52.9998 74.6879C53.0879 74.752 53.1534 74.8423 53.1871 74.9459L53.6728 76.4412H55.2449C55.3538 76.4412 55.4599 76.4756 55.548 76.5396C55.6361 76.6036 55.7017 76.6938 55.7354 76.7974C55.7691 76.901 55.7691 77.0125 55.7354 77.1161C55.7018 77.2197 55.6362 77.3099 55.5481 77.3739L54.2762 78.2981L54.7621 79.7934C54.7958 79.897 54.7959 80.0086 54.7623 80.1122C54.7286 80.2158 54.6631 80.3061 54.5749 80.3702C54.4868 80.4342 54.3807 80.4687 54.2717 80.4687C54.1628 80.4686 54.0567 80.4341 53.9686 80.3701L52.6967 79.4459L51.4248 80.3701C51.3367 80.4341 51.2306 80.4686 51.1217 80.4687C51.0127 80.4687 50.9066 80.4342 50.8185 80.3702C50.7303 80.3061 50.6648 80.2158 50.6311 80.1122C50.5975 80.0086 50.5976 79.897 50.6313 79.7934L51.1172 78.2981Z" fill="#009FE3"/>
</svg>
