<svg width="312" height="361" viewBox="0 0 312 361" fill="none" xmlns="http://www.w3.org/2000/svg">
<path fill-rule="evenodd" clip-rule="evenodd" d="M121.797 0.179688H118.57V11.6016H122.555C123.794 11.6016 124.758 11.3151 125.445 10.7422C126.138 10.1693 126.484 9.3724 126.484 8.35156C126.484 6.82552 125.617 5.91406 123.883 5.61719V5.53906C124.607 5.40885 125.156 5.125 125.531 4.6875C125.911 4.24479 126.102 3.6849 126.102 3.00781C126.102 2.02865 125.763 1.3125 125.086 0.859375C124.409 0.40625 123.312 0.179688 121.797 0.179688ZM122.086 5.07031H119.898V1.32812H121.852C122.852 1.32812 123.581 1.47135 124.039 1.75781C124.497 2.03906 124.727 2.5 124.727 3.14062C124.727 3.83854 124.521 4.33594 124.109 4.63281C123.698 4.92448 123.023 5.07031 122.086 5.07031ZM119.898 10.4688V6.19531H122.172C123.146 6.19531 123.87 6.36198 124.344 6.69531C124.823 7.02865 125.062 7.54948 125.062 8.25781C125.062 9.01823 124.828 9.57812 124.359 9.9375C123.896 10.2917 123.203 10.4688 122.281 10.4688H119.898ZM135.039 11.6016H136.547L132.734 5.58594L136.273 0.179688H134.859L132 4.70312L129.164 0.179688H127.695L131.234 5.63281L127.438 11.6016H128.844L131.969 6.57812L135.039 11.6016ZM146.703 10.1875C147.63 9.14062 148.094 7.70312 148.094 5.875C148.094 4.04167 147.633 2.60417 146.711 1.5625C145.789 0.520833 144.508 0 142.867 0C141.18 0 139.878 0.513021 138.961 1.53906C138.044 2.5599 137.586 4 137.586 5.85938C137.586 7.73438 138.042 9.1875 138.953 10.2188C139.87 11.2448 141.169 11.7578 142.852 11.7578C144.497 11.7578 145.781 11.2344 146.703 10.1875ZM139.977 9.39844C139.32 8.59635 138.992 7.42188 138.992 5.875C138.992 4.34896 139.32 3.1875 139.977 2.39062C140.638 1.58854 141.602 1.1875 142.867 1.1875C144.128 1.1875 145.078 1.58594 145.719 2.38281C146.365 3.17448 146.688 4.33854 146.688 5.875C146.688 7.42708 146.365 8.60156 145.719 9.39844C145.073 10.1953 144.117 10.5938 142.852 10.5938C141.596 10.5938 140.638 10.1953 139.977 9.39844ZM158.391 14.5781H159.656V10.3984H158.211V0.179688H153.078C153.016 1.77865 152.698 3.54427 152.125 5.47656C151.557 7.40885 150.872 9.04948 150.07 10.3984H149.188V14.5781H150.453V11.6016H158.391V14.5781ZM156.883 1.375V10.3984H151.461C152.174 9.17969 152.799 7.6875 153.336 5.92188C153.872 4.15104 154.188 2.63542 154.281 1.375H156.883ZM162.844 0.179688H161.602V11.6016H163.055L169.469 2.01562H169.539C169.451 3.16667 169.406 4.26562 169.406 5.3125V11.6016H170.656V0.179688H169.203L162.797 9.71094H162.734C162.807 8.76302 162.844 7.70312 162.844 6.53125V0.179688ZM175.977 11.6016H177.305V1.35938H180.922V0.179688H172.359V1.35938H175.977V11.6016ZM190.031 0.179688H186.805V11.6016H190.789C192.029 11.6016 192.992 11.3151 193.68 10.7422C194.372 10.1693 194.719 9.3724 194.719 8.35156C194.719 6.82552 193.852 5.91406 192.117 5.61719V5.53906C192.841 5.40885 193.391 5.125 193.766 4.6875C194.146 4.24479 194.336 3.6849 194.336 3.00781C194.336 2.02865 193.997 1.3125 193.32 0.859375C192.643 0.40625 191.547 0.179688 190.031 0.179688ZM190.32 5.07031H188.133V1.32812H190.086C191.086 1.32812 191.815 1.47135 192.273 1.75781C192.732 2.03906 192.961 2.5 192.961 3.14062C192.961 3.83854 192.755 4.33594 192.344 4.63281C191.932 4.92448 191.258 5.07031 190.32 5.07031ZM188.133 10.4688V6.19531H190.406C191.38 6.19531 192.104 6.36198 192.578 6.69531C193.057 7.02865 193.297 7.54948 193.297 8.25781C193.297 9.01823 193.062 9.57812 192.594 9.9375C192.13 10.2917 191.438 10.4688 190.516 10.4688H188.133ZM128.127 112.42C128.127 112.952 127.95 113.306 127.773 113.661L127.596 112.774L86.1848 98.4152C86.2733 98.2379 86.3176 98.105 86.3618 97.972C86.406 97.8391 86.4503 97.7061 86.5388 97.5288L126.357 111.356L123.526 108.165L89.1933 90.9697C89.3053 90.7453 89.4351 90.5031 89.5714 90.2488L89.5715 90.2484C89.8657 89.6993 90.1903 89.0936 90.4321 88.4879L116.447 101.429L91.14 86.8925C91.4055 86.4493 91.6267 86.0504 91.8479 85.6515C92.0691 85.2527 92.2903 84.8538 92.5557 84.4107L113.084 96.2879L96.98 77.6743C97.0685 77.5856 97.157 77.4527 97.2455 77.3197L97.2455 77.3197C97.334 77.1867 97.4225 77.0538 97.5109 76.9652L115.385 97.7061L130.958 106.747C130.074 108.165 129.366 109.583 128.658 111.001L128.658 111.002L125.295 109.406L127.773 112.242L128.127 112.42ZM98.7497 75.547L133.259 103.556C133.082 103.911 132.905 104.088 132.728 104.265L98.2188 76.2561C98.3073 76.1675 98.3957 76.0346 98.4842 75.9017L98.4843 75.9016C98.5727 75.7686 98.6612 75.6357 98.7497 75.547ZM84.7691 102.315L127.596 114.015C127.519 114.403 127.407 114.79 127.292 115.192L127.292 115.192C127.143 115.71 126.988 116.253 126.888 116.852L84.0612 105.152C84.1608 104.553 84.3164 104.01 84.4651 103.492C84.5805 103.09 84.6917 102.703 84.7691 102.315ZM201.746 124.297H211.834L222.275 132.629L201.039 129.261L201.746 124.297ZM202.454 114.192L202.277 115.433L201.039 114.547L202.454 114.192ZM202.631 113.129L200.154 113.661L199.977 113.483L202.808 112.597L202.631 113.129ZM204.578 102.138L192.013 107.102L188.12 103.911L205.994 93.097L204.578 102.138ZM205.994 91.8561L187.235 103.202L183.165 100.011L208.117 78.5606L205.994 91.8561ZM202.277 121.638L202.985 117.206L208.471 121.638H202.277ZM186.35 127.842L199.977 129.97L199.446 133.515L188.651 130.502L186.35 127.842ZM191.836 134.402L198.915 136.352V137.238L192.367 134.933L191.836 134.402ZM202.808 148.761L198.207 146.102L202.808 148.229L203.162 148.761H202.808ZM198.561 137.947L198.03 141.492L193.429 136.174L198.561 137.947ZM190.243 133.87L190.597 134.224L187.058 132.983L190.243 133.87ZM191.305 147.874L196.968 148.761L196.083 154.611L186.881 147.165L191.305 147.874ZM185.111 146.811L195.906 155.497L195.022 159.929L181.395 146.279L185.111 146.811ZM176.794 145.392L194.668 163.297L194.137 166.133L176.086 145.215L176.794 145.392ZM195.022 147.52L191.659 146.988L185.819 142.202L195.022 147.52ZM173.077 165.956L190.951 186.52L190.774 187.938L179.094 181.379L173.077 165.956ZM171.308 164.006L177.678 180.67L175.024 179.074L170.423 162.942L171.308 164.006ZM169.184 158.333L170.423 161.524L169.892 160.992L169.184 158.333ZM165.645 170.565L166.706 174.465L166.352 174.288L165.645 170.565ZM141.754 160.461L142.992 159.042L142.284 160.815L141.754 160.461ZM141.223 161.17L142.107 161.702L139.276 169.679V163.652L141.223 161.17ZM140.515 160.815L139.276 162.233V160.106L140.515 160.815ZM138.391 161.17V163.297L134.321 168.438L138.391 161.17ZM124.233 137.238L129.719 138.124L116.447 146.279L112.376 143.974L113.792 141.315L124.233 137.238ZM111.846 144.683L115.385 146.633L108.306 150.888L111.846 144.683ZM105.121 133.161L109.899 132.274L106.182 133.338L105.121 133.161ZM106.005 140.429L106.536 140.252L106.359 140.606L106.005 140.429ZM102.466 133.692L104.059 133.87L97.6879 135.82L96.2721 134.933L102.466 133.692ZM99.9885 133.338L95.0334 134.224L90.6091 131.92L99.9885 133.338ZM155.379 92.1561L155.38 92.2106L149.927 86.0099L149.894 85.8288L155.379 92.1561ZM156.797 78.6095L156.973 92.5652H156.619H155.734L155.379 92.1561L155.203 78.3834L150.779 74.8379L147.947 79.9788L148.832 84.7652L149.927 86.0099L150.602 89.7288L151.487 92.9197C149.186 93.2743 147.063 93.9834 144.939 94.8697L143.169 88.8425L140.161 94.3379L141.577 96.6425C141.488 96.7311 141.355 96.8197 141.223 96.9084C141.09 96.997 140.957 97.0856 140.869 97.1743L139.807 95.2243L138.568 97.5288V98.7698C138.214 98.947 138.037 99.1243 137.683 99.4788V99.1243L137.506 99.4788L137.683 99.6561C137.506 99.8334 137.329 100.011 136.975 100.188L136.444 99.6561L135.737 99.3016L136.798 100.365C136.555 100.608 136.313 100.831 136.077 101.047C135.626 101.46 135.2 101.849 134.852 102.315L126.534 93.9834L100.519 73.597C100.608 73.5084 100.696 73.3754 100.785 73.2425C100.873 73.1095 100.962 72.9766 101.05 72.8879L118.747 87.6015L102.466 71.2925L104.413 69.3425L130.958 95.9334L131.312 95.2243L106.89 67.0379C106.979 66.9493 107.112 66.8607 107.244 66.772C107.377 66.6834 107.51 66.5948 107.598 66.5061L131.843 94.5152L135.029 89.0198L117.509 59.4152C117.597 59.3266 117.73 59.2379 117.862 59.1493C117.995 59.0607 118.128 58.972 118.216 58.8834L135.56 87.9561L136.798 85.8288L136.621 73.597L130.958 58.7061L126.18 54.8061C126.275 54.7586 126.357 54.7111 126.433 54.667C126.642 54.5466 126.806 54.4516 127.065 54.4516L130.25 57.1107L129.012 53.7425C129.189 53.6539 129.321 53.6095 129.454 53.5652C129.587 53.5209 129.719 53.4766 129.896 53.3879L131.666 58.1743L134.498 60.4789L132.197 52.5016L132.198 52.5014C134.321 51.7924 136.445 51.0833 138.745 50.5516L143.523 67.747L144.762 68.8107L141.046 50.0197C141.223 50.0197 141.355 49.9754 141.488 49.9311C141.621 49.8868 141.754 49.8425 141.93 49.8425L145.824 69.5197L154.849 53.3879V48.6016H155.734V51.9698L157.504 48.7788C159.981 48.7788 162.459 48.9561 164.937 49.3107L155.911 65.6198L156.088 78.0288L156.797 78.6095ZM161.939 82.7466L161.928 82.8152L156.797 78.6095L156.796 78.5606L161.939 82.7466ZM161.939 82.7466L162.459 83.1697L160.866 92.7424C161.043 92.7424 161.176 92.7868 161.309 92.8311C161.441 92.8754 161.574 92.9197 161.751 92.9197L163.167 83.8788L167.768 87.6015L165.645 93.9834C165.821 94.072 165.954 94.1163 166.087 94.1606C166.22 94.205 166.352 94.2493 166.529 94.3379L168.653 88.3106L170.6 89.9061L167.768 94.8697C169.892 95.7561 171.838 96.997 173.608 98.2379L175.732 94.3379L177.325 95.7561L174.67 99.1243C174.758 99.2129 174.891 99.3016 175.024 99.3902C175.157 99.4788 175.289 99.5675 175.378 99.6561L178.032 96.2879L182.28 99.6561L178.563 102.847C178.74 103.201 178.917 103.379 179.094 103.556L179.094 103.556L182.811 100.365L186.704 103.556L181.395 106.747C181.483 106.836 181.572 106.969 181.66 107.102C181.749 107.235 181.837 107.367 181.926 107.456L187.589 104.088L191.482 107.102L183.519 110.292C184.403 112.597 185.288 114.902 185.642 117.383L187.589 116.852L200.331 114.37L202.631 116.142L201.746 121.283H185.996V122.702V124.12H201.216L200.508 128.906L185.819 126.602C185.819 126.779 185.775 127 185.731 127.222L185.731 127.222L185.731 127.222C185.686 127.444 185.642 127.665 185.642 127.842L187.412 129.97L185.288 129.438C185.111 129.97 184.934 130.546 184.757 131.122C184.58 131.698 184.403 132.274 184.226 132.806L192.013 135.465L198.03 142.556L183.165 135.111C182.634 136.529 181.926 137.947 181.041 139.188L190.066 146.633L185.642 145.924L179.625 141.138C179.537 141.227 179.448 141.359 179.36 141.492C179.271 141.625 179.183 141.758 179.094 141.847L183.872 145.747L180.51 145.215L178.209 142.911C177.148 143.974 176.263 144.861 175.201 145.747L193.96 167.197L191.482 182.265L171.308 148.229C171.219 148.317 171.086 148.406 170.954 148.495L170.953 148.495C170.821 148.583 170.688 148.672 170.6 148.761L191.305 183.683L191.128 185.279L172.369 164.361L167.414 151.42C165.291 152.306 162.99 152.838 160.689 153.192L162.813 160.992L165.468 174.465L157.327 169.856L157.15 153.37H156.265L156.442 169.324L149.894 165.602L151.841 153.015C151.664 153.015 151.531 152.971 151.398 152.927C151.266 152.882 151.133 152.838 150.956 152.838L149.009 165.07L143.169 161.879L144.585 157.624L148.832 152.483C148.759 152.483 148.655 152.453 148.534 152.417C148.362 152.367 148.155 152.306 147.947 152.306L145.47 155.32L146.709 151.952C146.532 151.863 146.399 151.819 146.266 151.774L146.266 151.774C146.133 151.73 146.001 151.686 145.824 151.597L143.877 157.27L141.046 160.815L139.453 159.929L144.408 151.065C142.284 150.179 140.338 149.115 138.568 147.697L133.613 156.561L131.135 155.142L137.683 146.988C137.595 146.899 137.462 146.811 137.329 146.722C137.196 146.633 137.064 146.545 136.975 146.456L130.25 154.611L124.41 151.42L133.79 143.442C133.613 143.088 133.436 142.911 133.259 142.733L133.259 142.733L123.703 150.888L117.155 147.165L130.604 139.011C130.538 138.879 130.448 138.747 130.351 138.605C130.188 138.368 130.008 138.104 129.896 137.77L125.826 137.061L129.012 135.82C127.95 133.338 127.065 130.679 126.711 128.02L120.517 129.792L123.172 124.829H126.357V123.411V121.992H123.172L118.393 119.333L116.978 121.992H81.9375V123.411V124.829H115.385L111.669 131.388L102.466 133.161L88.3085 130.856L81.7606 127.133V128.197L85.6539 130.324L81.9375 129.792V130.679L87.9546 131.565L93.4406 134.756L82.8224 136.883C82.8224 137.061 82.8666 137.194 82.9109 137.327C82.9551 137.46 82.9994 137.592 82.9994 137.77L94.6794 135.465L96.2721 136.352L83.5303 140.074C84.0612 142.379 84.5921 144.506 85.3 146.633L104.59 141.138L105.652 141.67L86.3618 149.292L87.4236 151.952L103.528 145.57L96.4491 158.333L92.0248 160.992C92.1133 161.081 92.2018 161.214 92.2903 161.347L92.2904 161.347L92.2904 161.347L92.2905 161.347L92.2906 161.347L92.2906 161.347C92.379 161.48 92.4674 161.613 92.5557 161.702L95.7412 159.752L93.7945 163.297C95.2103 165.424 96.6261 167.374 98.2188 169.324L107.598 152.661L116.447 147.342L123.172 151.065L99.8115 171.097C99.9 171.186 99.9885 171.319 100.077 171.452C100.165 171.584 100.254 171.717 100.342 171.806L123.879 151.42L129.719 154.788L109.014 180.315C109.102 180.404 109.235 180.492 109.368 180.581C109.501 180.67 109.633 180.758 109.722 180.847L130.427 155.142L133.082 156.561L116.801 185.811C118.207 186.797 119.837 187.671 121.424 188.522L121.424 188.522C121.834 188.742 122.241 188.961 122.641 189.179L131.666 172.87L138.214 164.715V172.161L130.958 192.901C131.135 192.99 131.268 193.034 131.401 193.079L131.401 193.079C131.533 193.123 131.666 193.167 131.843 193.256L138.214 174.82L138.391 195.206C138.568 195.206 138.701 195.25 138.833 195.295L138.834 195.295L138.834 195.295C138.966 195.339 139.099 195.383 139.276 195.383L138.922 172.338L142.461 162.233L148.478 165.602L143.523 196.27C143.7 196.27 143.833 196.314 143.966 196.358C144.098 196.403 144.231 196.447 144.408 196.447L149.363 165.956L156.088 169.679L156.442 197.156H157.327L156.973 170.211L165.291 174.82L169.361 195.915C169.538 195.915 169.671 195.871 169.803 195.826C169.936 195.782 170.069 195.738 170.246 195.738L166.352 175.352L166.883 175.706L172.369 195.206C174.67 194.674 176.794 194.142 178.917 193.433L175.201 180.315L178.032 181.911L182.103 192.37C182.28 192.281 182.412 192.237 182.545 192.192C182.678 192.148 182.811 192.104 182.988 192.015L179.448 182.62L190.243 188.647C190.514 188.376 190.887 188.209 191.206 188.066L191.207 188.066C191.258 188.043 191.308 188.02 191.356 187.998C191.4 187.978 191.442 187.958 191.482 187.938L191.659 187.229L192.013 187.583C192.102 187.495 192.234 187.406 192.367 187.317C192.5 187.229 192.632 187.14 192.721 187.052L191.836 185.988L192.013 184.747L193.252 186.697C193.429 186.697 193.783 186.52 193.96 186.342L192.19 183.329L194.668 167.906L204.224 178.897C204.312 178.808 204.445 178.72 204.578 178.631L204.578 178.631C204.711 178.542 204.843 178.454 204.932 178.365L195.022 166.842L195.552 163.829L207.763 175.883C208.228 175.534 208.617 175.108 209.03 174.656C209.245 174.42 209.467 174.177 209.71 173.933L196.083 160.461L196.791 156.029L213.603 169.679C213.692 169.59 213.78 169.457 213.869 169.324C213.957 169.191 214.046 169.058 214.134 168.97L196.968 154.965L197.853 148.938L209.179 155.497L217.143 164.715C217.231 164.627 217.32 164.494 217.408 164.361L217.408 164.361L217.408 164.36C217.497 164.228 217.585 164.095 217.674 164.006L211.48 156.915L219.266 161.347C219.532 160.904 219.753 160.505 219.974 160.106C220.196 159.707 220.417 159.308 220.682 158.865L205.817 150.179L205.463 149.824L206.525 150.002L221.39 157.447C221.502 157.222 221.632 156.98 221.768 156.726C222.062 156.177 222.387 155.571 222.629 154.965L215.904 151.597L223.691 152.838C223.779 152.661 223.823 152.528 223.868 152.395L223.868 152.395C223.912 152.262 223.956 152.129 224.045 151.952L213.249 150.179L199.977 143.62L198.915 142.379L199.623 138.302L225.991 147.52C226.08 147.342 226.124 147.21 226.168 147.077C226.213 146.944 226.257 146.811 226.345 146.633L199.8 137.415L199.977 136.529L227.23 143.974C227.319 143.531 227.451 143.088 227.584 142.645L227.584 142.645C227.717 142.202 227.85 141.758 227.938 141.315L200.331 133.87L200.862 130.324L223.514 133.87L228.469 137.947C228.469 137.77 228.513 137.592 228.557 137.415C228.602 137.238 228.646 137.061 228.646 136.883L225.107 134.047L229 134.579C229 134.402 229.044 134.269 229.088 134.136C229.133 134.003 229.177 133.87 229.177 133.692L223.868 132.806L213.249 124.297H230.062V122.879V121.461H209.887L203.162 115.965L203.516 113.838L228.823 108.874C228.823 108.697 228.779 108.564 228.734 108.431L228.734 108.431C228.69 108.298 228.646 108.165 228.646 107.988L203.693 112.952L203.87 112.242L228.115 105.329C227.584 103.024 226.876 100.897 226.168 98.77L226.168 98.7698L204.932 104.797L225.46 96.6425L224.399 93.9834L205.463 101.606L206.879 92.3879L219.62 84.7652C219.532 84.6765 219.443 84.5436 219.355 84.4106C219.266 84.2777 219.178 84.1447 219.089 84.0561L207.056 91.3243L209.002 77.8515L212.188 75.0152C212.099 74.9266 212.011 74.7937 211.922 74.6609L211.922 74.6607C211.834 74.5277 211.745 74.3947 211.657 74.3061L209.179 76.4334L209.887 72.3561C209.799 72.1788 209.666 72.0459 209.533 71.9129L209.533 71.9129C209.4 71.7799 209.268 71.647 209.179 71.4697L208.294 77.1425L182.457 99.4788L178.209 95.9334L202.808 65.4425C202.72 65.3539 202.587 65.2653 202.454 65.1767L202.454 65.1766C202.322 65.0879 202.189 64.9993 202.1 64.9107L177.501 95.4015L175.732 93.9834L194.845 59.7697C193.439 58.7838 191.809 57.9098 190.222 57.0587C189.812 56.8387 189.405 56.6201 189.005 56.4016L170.423 89.5516L168.299 87.9561L180.333 52.8561C180.156 52.7675 180.023 52.7232 179.891 52.6789C179.758 52.6345 179.625 52.5902 179.448 52.5016L167.414 87.247L162.636 83.347L168.122 49.6652C167.945 49.6652 167.812 49.6209 167.68 49.5766C167.547 49.5322 167.414 49.4879 167.237 49.4879L161.939 82.7466ZM155.38 77.3198L151.31 74.1288L155.203 67.0379L155.38 77.3198ZM145.116 70.2289L145.293 70.7606L144.762 71.647L144.054 69.3425L145.116 70.2289ZM137.506 71.2925L139.984 79.9788L137.506 73.7743V71.2925ZM137.683 76.2561L139.63 81.2197L137.86 84.5879L137.683 76.2561ZM136.621 67.747V71.1152L132.374 59.7697L135.029 61.897L136.621 67.747ZM82.8224 111.179L126.711 118.27C126.711 118.092 126.711 117.738 126.888 117.383L82.9994 110.292C82.9994 110.47 82.9551 110.603 82.9109 110.736C82.8666 110.869 82.8224 111.002 82.8224 111.179ZM32.0321 355.638C32.9169 357.056 34.1557 358.12 35.5715 359.006C37.1642 359.892 38.7569 360.247 40.5266 360.601C41.9424 360.601 43.3582 360.424 44.597 359.892C45.8358 359.361 46.8976 358.651 47.7824 357.588L45.6588 355.461C44.42 356.879 42.8273 357.588 40.8806 357.588C39.6418 357.588 38.58 357.233 37.5181 356.701C36.4563 356.17 35.7484 355.283 35.2175 354.397C34.6866 353.333 34.3327 352.27 34.3327 351.029C34.3327 349.788 34.6866 348.547 35.2175 347.661C35.7484 346.597 36.4563 345.888 37.5181 345.356C38.58 344.824 39.6418 344.47 40.8806 344.47C42.6503 344.47 44.42 345.179 45.6588 346.597L47.7824 344.47C46.8976 343.406 45.8358 342.697 44.597 342.165C43.3582 341.633 41.9424 341.456 40.5266 341.456C38.7569 341.456 36.9873 341.811 35.5715 342.697C33.9788 343.583 32.9169 344.647 32.0321 346.065C31.1472 347.483 30.7933 349.079 30.7933 350.851C30.7933 352.624 31.1472 354.22 32.0321 355.638ZM62.8247 356.524C63.7096 355.992 64.5944 355.283 65.1253 354.22C65.6562 353.156 66.0102 352.092 66.0102 350.851C66.0102 349.611 65.6562 348.547 65.1253 347.483C64.5944 346.42 63.8865 345.711 62.8247 345.179C61.9399 344.647 60.7011 344.292 59.6392 344.292C58.4005 344.292 57.3386 344.647 56.4538 345.179C55.5689 345.711 54.6841 346.42 54.1532 347.483C53.6223 348.547 53.2683 349.611 53.2683 350.851C53.2683 352.092 53.6223 353.156 54.1532 354.22C54.6841 355.283 55.3919 355.992 56.4538 356.524C57.3386 357.056 58.5774 357.411 59.6392 357.411C60.878 357.233 61.9399 357.056 62.8247 356.524ZM54.6841 359.006C53.2683 358.12 52.0295 357.056 51.1447 355.638C50.2598 354.22 49.9059 352.624 49.9059 350.851C49.9059 349.079 50.2598 347.483 51.1447 346.065C52.0295 344.647 53.0913 343.583 54.6841 342.697C56.0998 341.811 57.8695 341.456 59.6392 341.456C61.4089 341.456 63.1787 341.811 64.5944 342.697C66.0102 343.583 67.249 344.647 68.1338 346.065C69.0187 347.483 69.3726 349.079 69.3726 350.851C69.3726 352.624 69.0187 354.22 68.1338 355.638C67.249 357.056 66.1871 358.12 64.5944 359.006C63.1787 359.892 61.4089 360.247 59.6392 360.247C57.8695 360.247 56.0998 359.892 54.6841 359.006ZM83.8844 357.943L89.9014 347.838V359.893H93.0869V341.811H90.2553L83.1765 353.865L76.0977 341.811H73.2662V359.893H76.4517V348.015L82.4686 357.943H83.8844ZM108.837 350.852C109.545 350.143 109.899 349.256 109.899 348.193C109.899 346.952 109.545 346.065 108.837 345.533C108.129 344.824 106.89 344.647 105.474 344.647H101.581V351.915H105.474C107.067 351.915 108.129 351.561 108.837 350.852ZM109.722 342.52C110.96 343.052 111.845 343.761 112.376 344.824C113.084 345.711 113.261 346.952 113.261 348.37C113.261 349.611 112.907 350.852 112.376 351.738C111.668 352.802 110.783 353.511 109.722 354.043C108.483 354.574 107.244 354.752 105.651 354.752H101.581V360.07H98.2186V341.811H105.651C107.244 341.811 108.66 341.988 109.722 342.52ZM123.703 345.179L127.065 353.156H120.34L123.703 345.179ZM119.278 355.815H128.304L130.074 360.07H133.613L125.472 341.811H122.11L113.969 360.07H117.509L119.278 355.815ZM152.726 341.811V359.893H149.894L139.984 347.661V359.893H136.621V341.811H139.276L149.363 354.043V341.811H152.726ZM165.999 359.893V353.511L173.077 341.811H169.715L164.406 350.674L159.097 341.811H155.557L162.636 353.688V359.893H165.999ZM195.906 350.674H199.092V357.942C198.207 358.651 197.145 359.183 195.906 359.715C194.667 360.07 193.429 360.247 192.013 360.247C190.243 360.247 188.473 359.892 187.058 359.006C185.642 358.12 184.403 357.056 183.518 355.638C182.633 354.22 182.279 352.624 182.279 350.851C182.279 349.079 182.633 347.483 183.518 346.065C184.403 344.647 185.465 343.583 187.058 342.697C188.473 341.811 190.243 341.456 192.013 341.456C193.606 341.456 194.844 341.633 196.083 342.165C197.322 342.697 198.384 343.406 199.269 344.292L197.145 346.42C195.729 345.001 194.136 344.292 192.19 344.292C190.951 344.292 189.712 344.647 188.827 345.179C187.766 345.711 187.058 346.42 186.527 347.483C185.996 348.37 185.642 349.611 185.642 350.851C185.642 352.092 185.996 353.156 186.527 354.042C187.058 354.929 187.943 355.815 188.827 356.347C189.889 356.879 190.951 357.233 192.19 357.233C193.606 357.233 194.844 356.879 195.906 356.347V350.674ZM210.947 344.647C212.363 344.647 213.602 344.824 214.31 345.533C215.195 346.242 215.548 347.129 215.372 348.37C215.372 349.433 215.018 350.32 214.31 351.029C213.602 351.56 212.363 351.915 210.947 351.915H207.054V344.647H210.947ZM211.832 354.574L215.548 359.892H219.088L214.841 353.865C216.079 353.51 216.964 352.801 217.672 351.738C218.38 350.674 218.734 349.61 218.734 348.192C218.734 346.774 218.557 345.533 217.849 344.647C217.318 343.583 216.433 342.874 215.195 342.342C214.133 341.81 212.717 341.633 211.124 341.633H203.691V359.892H207.054V354.574H211.124H211.832ZM234.663 356.524C235.547 355.992 236.432 355.283 236.963 354.22C237.494 353.156 237.848 352.092 237.848 350.851C237.848 349.611 237.494 348.547 236.963 347.483C236.432 346.42 235.724 345.711 234.663 345.179C233.778 344.647 232.539 344.292 231.477 344.292C230.238 344.292 229.176 344.647 228.292 345.179C227.407 345.711 226.522 346.42 225.991 347.483C225.46 348.547 225.106 349.611 225.106 350.851C225.106 352.092 225.46 353.156 225.991 354.22C226.522 355.283 227.23 355.992 228.292 356.524C229.176 357.056 230.415 357.411 231.477 357.411C232.716 357.233 233.778 357.056 234.663 356.524ZM226.522 359.006C225.106 358.12 223.867 357.056 222.982 355.638C222.098 354.22 221.744 352.624 221.744 350.851C221.744 349.079 222.098 347.483 222.982 346.065C223.867 344.647 224.929 343.583 226.522 342.697C227.938 341.811 229.707 341.456 231.477 341.456C233.247 341.456 235.016 341.811 236.432 342.697C237.848 343.583 239.087 344.647 239.972 346.065C240.856 347.483 241.21 349.079 241.21 350.851C241.21 352.624 240.856 354.22 239.972 355.638C239.087 357.056 238.025 358.12 236.432 359.006C235.016 359.892 233.247 360.247 231.477 360.247C229.707 360.247 227.938 359.892 226.522 359.006ZM244.573 352.092C244.573 354.751 245.281 356.701 246.697 358.12C248.113 359.538 250.059 360.247 252.537 360.247C255.015 360.247 256.961 359.538 258.377 358.12C259.793 356.701 260.501 354.751 260.501 352.092V341.81H257.138V351.915C257.138 355.46 255.545 357.233 252.537 357.233C249.528 357.233 247.936 355.46 247.936 351.915V341.81H244.573V352.092ZM275.897 350.851C276.605 350.142 276.959 349.256 276.959 348.192C276.959 346.951 276.605 346.065 275.897 345.533C275.189 344.824 273.95 344.647 272.534 344.647H268.641V351.915H272.534C274.127 351.915 275.189 351.56 275.897 350.851ZM276.959 342.52C278.197 343.051 279.082 343.76 279.613 344.824C280.321 345.71 280.498 346.951 280.498 348.37C280.498 349.61 280.144 350.851 279.613 351.738C278.905 352.801 278.02 353.51 276.959 354.042C275.72 354.574 274.481 354.751 272.888 354.751H268.818V360.07H265.456V341.81H272.888C274.304 341.81 275.72 341.988 276.959 342.52ZM126.71 319.652H185.111V323.02H126.71V319.652ZM24.5989 265.938C24.5989 268.419 23.891 270.192 22.1213 271.433C20.5286 272.674 18.2279 273.206 15.5734 273.206H6.72488V258.669H15.5734C18.2279 258.669 20.3516 259.201 22.1213 260.442C23.714 261.683 24.5989 263.456 24.5989 265.938ZM26.3686 255.301C24.7758 254.238 23.0061 253.529 20.8825 253.174C18.9358 252.819 16.8122 252.465 14.5116 252.465H0V300.86H6.72488V279.588H15.5734C17.1661 279.588 19.1128 279.41 20.8825 279.056C22.8292 278.701 24.4219 277.992 26.0146 276.929C27.6074 275.865 29.0231 274.447 29.908 272.674C30.9698 270.901 31.5007 268.597 31.5007 265.938C31.5007 263.456 30.9698 261.329 30.085 259.556C29.2001 257.606 27.9613 256.188 26.3686 255.301ZM63.1799 270.015C64.0647 269.129 64.4187 267.71 64.4187 265.938C64.4187 264.342 64.2417 263.101 63.7108 262.038C63.0029 261.151 62.295 260.442 61.2332 259.91C60.1714 259.379 58.9326 259.024 57.6938 258.847C56.278 258.669 55.0393 258.669 53.6235 258.669H46.3677V273.206H50.792C51.46 273.206 52.1674 273.166 52.9143 273.125H52.9145H52.9147H52.915H52.9153H52.9156C53.7511 273.078 54.636 273.029 55.5701 273.029C57.1629 272.851 58.5786 272.674 59.9944 272.142C61.2332 271.788 62.295 271.079 63.1799 270.015ZM71.4975 265.938C71.4975 269.66 70.4357 272.497 68.312 274.801C66.3654 276.751 63.5338 278.169 60.1714 278.701L73.6211 300.683H65.4805L65.3035 300.506L52.7386 279.588H46.3677V300.86H39.6428V252.465H52.2077C54.3314 252.465 56.632 252.465 58.9326 252.819C61.2332 252.997 63.3569 253.706 65.1266 254.592C67.0732 255.479 68.6659 256.897 69.7278 258.669C70.9666 260.442 71.4975 262.924 71.4975 265.938ZM121.932 276.574C121.932 279.233 121.401 281.715 120.517 284.019C119.632 286.324 118.393 288.451 116.8 290.047C115.207 291.819 113.261 293.06 111.137 294.124C109.013 295.187 106.536 295.542 103.881 295.542C101.227 295.542 98.7492 295.01 96.6256 294.124C94.502 293.06 92.5553 291.819 90.9625 290.047C89.3698 288.274 88.131 286.324 87.2461 284.019C86.3613 281.715 86.0074 279.233 86.0074 276.574C86.0074 273.915 86.3613 271.433 87.2461 269.128C88.131 266.824 89.3698 264.697 90.9625 263.101C92.5553 261.328 94.502 260.087 96.6256 259.024C98.7492 257.96 101.227 257.606 103.881 257.606C106.536 257.606 109.013 258.137 111.137 259.024C113.261 260.087 115.207 261.328 116.8 263.101C118.393 264.874 119.632 266.824 120.517 269.128C121.401 271.433 121.932 273.915 121.932 276.574ZM121.755 258.315C119.455 256.01 116.8 254.237 113.792 252.997C110.783 251.756 107.421 251.047 103.704 251.047C99.988 251.047 96.6256 251.756 93.6171 252.997C90.6086 254.237 87.954 256.01 85.6534 258.315C83.3528 260.619 81.5831 263.278 80.3443 266.292C79.1055 269.306 78.3976 272.851 78.3976 276.397C78.3976 279.942 79.1055 283.487 80.3443 286.501C81.5831 289.515 83.3528 292.351 85.6534 294.478C87.954 296.783 90.6086 298.556 93.6171 299.797C96.6256 301.037 99.988 301.747 103.704 301.747C107.421 301.747 110.783 301.037 113.792 299.797C116.8 298.556 119.455 296.783 121.755 294.478C124.056 292.174 125.826 289.515 127.064 286.501C128.303 283.487 129.011 279.942 129.011 276.397C129.011 272.851 128.303 269.306 127.064 266.292C125.826 263.278 124.056 260.619 121.755 258.315ZM147.948 258.669H132.551V252.288H170.246V258.669H154.673V300.683H147.948V258.669ZM183.695 278.701H205.994V272.32H183.695V258.669H207.586V252.288H176.97V300.683H208.825V294.479H183.695V278.701ZM246.696 293.947C248.82 292.883 250.767 291.288 252.36 289.161L253.067 287.92L258.023 292.174L257.669 292.529C255.368 295.542 252.714 297.67 249.705 299.088C246.52 300.506 243.157 301.215 239.264 301.215C235.724 301.215 232.539 300.506 229.53 299.265C226.522 298.024 223.867 296.252 221.744 293.947C219.62 291.82 217.85 288.983 216.612 285.97C215.373 282.956 214.665 279.588 214.665 275.865C214.665 272.32 215.196 268.952 216.435 265.938C217.673 262.924 219.443 260.265 221.567 257.961C223.867 255.833 226.345 253.883 229.353 252.642C232.362 251.402 235.724 250.692 239.264 250.692C242.449 250.692 245.635 251.224 248.643 252.465C251.652 253.706 254.129 255.656 256.253 258.315L256.607 258.847L250.944 263.102L250.59 262.747C249.174 260.974 247.404 259.556 245.458 258.67C243.334 257.783 241.21 257.252 239.087 257.252C236.609 257.252 234.309 257.783 232.185 258.847C230.061 259.911 228.292 261.329 226.699 263.102C225.283 264.874 224.044 267.002 223.159 269.306C222.275 271.611 221.921 274.092 221.921 276.574C221.921 279.233 222.275 281.715 223.159 284.02C224.044 286.324 225.106 288.274 226.699 290.047C228.292 291.82 230.061 293.061 232.185 294.124C234.309 295.011 236.786 295.542 239.264 295.542C242.095 295.542 244.573 295.011 246.696 293.947ZM304.744 276.574C304.744 279.233 304.213 281.715 303.328 284.02C302.444 286.324 301.205 288.452 299.612 290.047C298.019 291.82 296.073 293.061 293.949 294.124C291.825 295.188 289.348 295.543 286.693 295.543C284.039 295.543 281.561 295.011 279.437 294.124C277.314 293.061 275.367 291.82 273.774 290.047C272.182 288.274 270.943 286.324 270.058 284.02C269.173 281.715 268.819 279.233 268.819 276.574C268.819 273.915 269.35 271.433 270.058 269.129C270.943 266.824 272.182 264.697 273.774 263.102C275.367 261.329 277.314 260.088 279.437 259.024C281.561 257.961 284.039 257.606 286.693 257.606C289.348 257.606 291.825 258.138 293.949 259.024C296.073 260.088 298.019 261.329 299.612 263.102C301.205 264.874 302.444 266.824 303.328 269.129C304.39 271.433 304.744 273.915 304.744 276.574ZM310.053 266.47C308.815 263.456 307.045 260.62 304.744 258.493C302.444 256.188 299.789 254.415 296.781 253.174C293.772 251.933 290.41 251.224 286.693 251.224C282.977 251.224 279.614 251.933 276.606 253.174C273.597 254.415 270.943 256.188 268.642 258.493C266.342 260.797 264.572 263.456 263.333 266.47C262.094 269.483 261.387 273.029 261.387 276.574C261.387 280.12 262.094 283.665 263.333 286.679C264.572 289.693 266.342 292.529 268.642 294.656C270.943 296.961 273.597 298.733 276.606 299.974C279.614 301.215 282.977 301.924 286.693 301.924C290.41 301.924 293.772 301.215 296.781 299.974C299.789 298.733 302.444 296.961 304.744 294.656C307.045 292.352 308.815 289.693 310.053 286.679C311.292 283.665 312 280.12 312 276.574C311.823 272.852 311.292 269.483 310.053 266.47Z" fill="#0C131D"/>
</svg>
