<svg width="654" height="92" viewBox="0 0 654 92" fill="none" xmlns="http://www.w3.org/2000/svg">
<path d="M158.329 36.542C158.419 37.6381 158.232 38.7392 157.783 39.7427C157.335 40.7462 156.641 41.6194 155.766 42.2808C153.751 43.6253 151.363 44.2921 148.946 44.1851H139.64V28.8989H148.972C151.386 28.7843 153.774 29.4421 155.791 30.7775C156.669 31.4429 157.364 32.3205 157.812 33.3285C158.26 34.3365 158.447 35.442 158.355 36.542H158.329ZM160.226 25.2704C158.488 24.1458 156.559 23.3519 154.535 22.9286C152.353 22.4604 150.127 22.2275 147.895 22.2338H132.514V73.1876H139.538V50.8245H148.869C150.742 50.818 152.608 50.6022 154.432 50.1812C156.371 49.7552 158.22 48.9885 159.893 47.9166C161.629 46.8107 163.065 45.2898 164.072 43.4903C165.219 41.3327 165.776 38.9087 165.687 36.4648C165.756 34.1171 165.236 31.7897 164.174 29.6967C163.235 27.8978 161.848 26.3731 160.149 25.2704" fill="black"/>
<path d="M200.244 36.5418C200.343 38.0981 199.889 39.6392 198.962 40.8909C198.054 41.9398 196.887 42.7298 195.578 43.1813C194.055 43.696 192.467 43.9906 190.861 44.0563C189.092 44.0563 187.4 44.1849 185.888 44.1849H181.222V28.8988H188.913C190.318 28.8939 191.722 28.9799 193.117 29.1561C194.384 29.3008 195.616 29.6666 196.757 30.237C197.805 30.7615 198.691 31.5621 199.321 32.553C200.024 33.7596 200.363 35.1455 200.295 36.5418H200.244ZM204.32 45.7805C206.604 43.2647 207.803 39.9427 207.653 36.5418C207.789 33.8471 207.157 31.1692 205.832 28.8216C204.669 26.9747 203.018 25.4872 201.064 24.5239C199.014 23.5308 196.813 22.8872 194.553 22.6196C192.188 22.3321 189.808 22.186 187.426 22.1821H174.326V73.136H181.35V50.8244H187.964L201.192 72.9044L201.372 73.1874H209.883L195.809 50.0266C199.055 49.55 202.064 48.0442 204.397 45.729" fill="black"/>
<path d="M260.515 47.7362C260.523 50.3748 260.045 52.9922 259.105 55.4564C258.225 57.8147 256.902 59.9813 255.208 61.8385C253.531 63.678 251.488 65.1423 249.209 66.1362C246.779 67.1796 244.162 67.7176 241.519 67.7176C238.875 67.7176 236.259 67.1796 233.828 66.1362C231.544 65.1388 229.493 63.6752 227.803 61.8385C226.104 59.9856 224.78 57.8178 223.907 55.4564C222.985 52.9879 222.516 50.3723 222.522 47.7362C222.504 45.0487 222.973 42.3802 223.907 39.8615C224.799 37.49 226.139 35.3141 227.855 33.4536C229.565 31.641 231.611 30.1811 233.879 29.156C237.437 27.5518 241.406 27.1036 245.23 27.8742C249.054 28.6447 252.543 30.5954 255.208 33.4536C256.902 35.3109 258.225 37.4775 259.105 39.8357C260.06 42.3495 260.538 45.0203 260.515 47.7104V47.7362ZM260.515 28.5641C258.129 26.1667 255.298 24.2609 252.183 22.9541C245.377 20.2767 237.814 20.2767 231.008 22.9541C227.881 24.252 225.04 26.1587 222.651 28.5641C220.275 30.9888 218.409 33.868 217.164 37.0307C215.83 40.4304 215.159 44.0563 215.19 47.7104C215.162 51.3476 215.832 54.9561 217.164 58.3387C218.392 61.5096 220.254 64.3944 222.635 66.8154C225.016 69.2364 227.865 71.1422 231.008 72.4153C237.808 75.1261 245.383 75.1261 252.183 72.4153C255.273 71.135 258.085 69.2647 260.464 66.9082C262.856 64.4824 264.732 61.5929 265.975 58.4159C267.308 55.0333 267.978 51.4248 267.949 47.7876C267.981 44.1335 267.31 40.5076 265.975 37.1079C264.731 33.9387 262.856 31.0578 260.464 28.6413" fill="black"/>
<path d="M271.691 28.8986H287.995V73.1872H295.02V28.8986H311.324V22.2334H271.691V28.8986Z" fill="black"/>
<path d="M325.399 49.9492H348.882V43.3098H325.399V28.8728H350.574V22.2334H318.375V73.1872H351.83V66.5221H325.399V49.9492Z" fill="black"/>
<path d="M397.512 61.0673C395.904 63.1618 393.856 64.875 391.513 66.0855C389.062 67.2756 386.365 67.8664 383.643 67.8097C381.088 67.8505 378.555 67.314 376.234 66.2399C374.056 65.2244 372.104 63.7805 370.492 61.9937C368.844 60.1396 367.573 57.9804 366.749 55.6374C365.832 53.106 365.372 50.4306 365.39 47.7369C365.381 45.1028 365.841 42.4881 366.749 40.0167C367.594 37.6491 368.882 35.4654 370.543 33.5831C372.155 31.735 374.127 30.2375 376.337 29.1825C378.615 28.0826 381.116 27.5277 383.643 27.5613C385.928 27.5593 388.186 28.06 390.257 29.0281C392.369 30.0313 394.195 31.5538 395.564 33.4544L395.897 33.9176L401.896 29.5171L401.563 29.0281C399.496 26.2882 396.721 24.1698 393.539 22.9034C390.389 21.6506 387.031 21.013 383.643 21.0248C378.494 20.9549 373.448 22.4785 369.191 25.3884C364.935 28.2983 361.674 32.4534 359.853 37.2888C358.575 40.6396 357.932 44.2005 357.956 47.7884C357.921 51.4429 358.591 55.0695 359.93 58.4681C361.179 61.6027 363.015 64.468 365.339 66.909C367.651 69.2941 370.414 71.1925 373.466 72.4933C376.708 73.8707 380.199 74.5628 383.72 74.5263C387.455 74.5895 391.161 73.8526 394.59 72.3646C397.903 70.8571 400.767 68.5062 402.896 65.5451L403.229 65.1076L397.948 60.6555L397.512 61.0673Z" fill="black"/>
<path d="M452.656 47.737C452.66 50.373 452.191 52.9882 451.272 55.4573C450.379 57.8151 449.048 59.9809 447.349 61.8394C445.682 63.6777 443.646 65.1421 441.376 66.137C438.944 67.1761 436.328 67.7117 433.685 67.7117C431.042 67.7117 428.427 67.1761 425.995 66.137C423.72 65.1365 421.678 63.6732 419.996 61.8394C418.288 59.9875 416.956 57.8199 416.073 55.4573C414.227 50.3888 414.227 44.8279 416.073 39.7594C416.978 37.4251 418.318 35.2853 420.021 33.4545C421.717 31.637 423.757 30.1761 426.02 29.1569C428.452 28.1178 431.068 27.5822 433.711 27.5822C436.354 27.5822 438.97 28.1178 441.402 29.1569C443.654 30.1705 445.677 31.6326 447.349 33.4545C449.018 35.3312 450.322 37.5045 451.195 39.8624C452.129 42.3811 452.598 45.0495 452.579 47.737H452.656ZM458.04 37.0573C456.789 33.8914 454.914 31.0117 452.528 28.5907C450.146 26.1881 447.314 24.2816 444.196 22.9807C437.39 20.3033 429.827 20.3033 423.021 22.9807C419.899 24.2743 417.066 26.1818 414.689 28.5907C412.302 31.0059 410.435 33.8877 409.203 37.0573C407.868 40.457 407.198 44.0829 407.229 47.737C407.201 51.3742 407.871 54.9827 409.203 58.3653C410.428 61.5298 412.282 64.4103 414.654 66.8307C417.025 69.251 419.864 71.1604 422.995 72.4419C429.795 75.1527 437.37 75.1527 444.171 72.4419C447.319 71.1759 450.186 69.2952 452.605 66.9091C454.997 64.4832 456.873 61.5938 458.117 58.4168C459.449 55.0342 460.119 51.4257 460.091 47.7885C460.122 44.1344 459.451 40.5085 458.117 37.1088" fill="black"/>
<path d="M509.62 40.2742C508.103 39.4622 506.842 38.2412 505.979 36.7486C505.062 35.1927 504.6 33.409 504.646 31.6017C504.608 29.7954 505.07 28.0139 505.979 26.4549C506.89 25.0515 508.155 23.9151 509.645 23.1609C511.221 22.3138 512.985 21.88 514.772 21.8999C516.238 21.876 517.694 22.1473 519.054 22.6976C520.302 23.2431 521.414 24.0606 522.309 25.0909L520.028 27.2526C519.386 26.529 518.595 25.954 517.709 25.5674C516.824 25.1808 515.866 24.9919 514.901 25.0137C513.677 24.9916 512.468 25.284 511.388 25.863C510.389 26.4332 509.557 27.2589 508.979 28.2563C508.386 29.3161 508.085 30.5152 508.107 31.7304C508.078 32.9464 508.379 34.1475 508.979 35.2045C509.543 36.213 510.378 37.0423 511.388 37.5978C512.461 38.1969 513.673 38.4989 514.901 38.4728C515.868 38.4949 516.829 38.3035 517.715 37.9122C518.601 37.5209 519.39 36.9392 520.028 36.2081L522.309 38.3956C521.416 39.4326 520.292 40.2437 519.028 40.7631C517.512 41.3728 515.883 41.6491 514.251 41.5737C512.619 41.4982 511.022 41.0726 509.568 40.3256" fill="black"/>
<path d="M538.357 37.5456C539.368 36.9901 540.203 36.1609 540.767 35.1523C541.322 34.0836 541.612 32.8962 541.612 31.6911C541.612 30.4859 541.322 29.2985 540.767 28.2298C540.207 27.1915 539.374 26.3279 538.357 25.7336C537.306 25.1769 536.136 24.886 534.948 24.886C533.76 24.886 532.589 25.1769 531.538 25.7336C530.532 26.3068 529.699 27.1427 529.128 28.1526C528.574 29.2213 528.284 30.4087 528.284 31.6139C528.284 32.819 528.574 34.0064 529.128 35.0751C529.693 36.0836 530.528 36.9129 531.538 37.4684C532.584 38.0428 533.756 38.3438 534.948 38.3438C536.14 38.3438 537.312 38.0428 538.357 37.4684V37.5456ZM529.718 40.1962C528.194 39.3848 526.925 38.1642 526.052 36.6706C525.185 35.1274 524.729 33.3856 524.729 31.6139C524.729 29.8421 525.185 28.1003 526.052 26.5571C526.915 25.1247 528.146 23.9515 529.616 23.1601C531.235 22.331 533.027 21.8987 534.845 21.8987C536.663 21.8987 538.456 22.331 540.075 23.1601C541.599 23.9716 542.868 25.1922 543.741 26.6857C544.662 28.24 545.124 30.0249 545.074 31.8326C545.12 33.6398 544.658 35.4236 543.741 36.9794C542.868 38.473 541.599 39.6936 540.075 40.505C538.456 41.3342 536.663 41.7665 534.845 41.7665C533.027 41.7665 531.235 41.3342 529.616 40.505" fill="black"/>
<path d="M566.607 41.2773L566.581 28.5645L560.326 39.0898H558.762L552.507 28.7447V41.2773H549.149V22.1052H552.046L559.608 34.818L567.017 22.1052H569.914L569.94 41.2773H566.607Z" fill="black"/>
<path d="M586.553 31.7304C586.954 31.3871 587.269 30.9548 587.473 30.4679C587.678 29.9809 587.767 29.4527 587.732 28.9253C587.767 28.3941 587.678 27.8621 587.474 27.371C587.269 26.8799 586.954 26.443 586.553 26.0946C585.527 25.3782 584.288 25.0334 583.041 25.1167H578.914V32.8369H583.041C584.293 32.9255 585.536 32.5704 586.553 31.8333V31.7304ZM587.502 23.0322C588.661 23.513 589.645 24.3394 590.322 25.3997C590.99 26.4886 591.329 27.7495 591.296 29.0283C591.322 30.3062 590.984 31.565 590.322 32.6568C589.645 33.7171 588.661 34.5435 587.502 35.0243C586.148 35.5976 584.689 35.8782 583.22 35.8478H578.914V41.1748H575.401V22.1057H583.22C584.689 22.0754 586.148 22.356 587.502 22.9292" fill="black"/>
<path d="M605.701 34.0456L602.138 25.7334L598.575 34.1228L605.701 34.0456ZM606.881 36.8249H597.318L595.498 41.174H591.858L600.42 22.002H603.881L612.469 41.174H608.778L606.881 36.8249Z" fill="black"/>
<path d="M632.543 22.1052V41.2773H629.62L619.161 28.2814V41.2773H615.648V22.1052H618.545L629.03 35.0753V22.1052H632.543Z" fill="black"/>
<path d="M646.566 34.5091V41.2773H643.054V34.5606L635.568 22.1052H639.362L644.925 31.4468L650.539 22.1052H654L646.566 34.5091Z" fill="black"/>
<path d="M518.975 64.3351H522.333V72.0553C521.307 72.8609 520.143 73.4714 518.898 73.8567C517.605 74.2685 516.256 74.4768 514.899 74.4744C513.112 74.4844 511.351 74.0512 509.772 73.2134C508.178 72.3588 506.861 71.064 505.977 69.4819C505.11 67.9387 504.655 66.1969 504.655 64.4251C504.655 62.6534 505.11 60.9116 505.977 59.3683C506.867 57.8788 508.143 56.6601 509.669 55.8428C511.295 54.9808 513.112 54.547 514.95 54.5818C516.43 54.5627 517.9 54.8247 519.283 55.3538C520.549 55.8571 521.675 56.6605 522.564 57.6956L520.334 59.883C519.672 59.1879 518.876 58.6355 517.994 58.2594C517.113 57.8833 516.164 57.6915 515.206 57.6956C513.966 57.6715 512.74 57.9637 511.643 58.5449C510.582 59.0733 509.692 59.8946 509.079 60.9124C508.492 61.9928 508.191 63.2071 508.208 64.438C508.201 65.6432 508.501 66.8302 509.079 67.8864C509.698 68.9058 510.585 69.734 511.643 70.2797C512.724 70.8809 513.945 71.1829 515.181 71.1546C516.543 71.1809 517.888 70.8434 519.077 70.1767L518.975 64.3351Z" fill="black"/>
<path d="M538.355 58.9559C537.347 58.2187 536.112 57.8631 534.868 57.9523H530.741V65.6725H534.868C536.121 65.7395 537.357 65.3564 538.355 64.5917C538.759 64.2445 539.077 63.8085 539.286 63.3176C539.495 62.8267 539.589 62.294 539.559 61.7609C539.589 61.2316 539.495 60.7028 539.286 60.216C539.077 59.7292 538.758 59.2978 538.355 58.9559V58.9559ZM539.636 74.1134L535.791 68.5033H530.664V74.1134H527.126V54.9413H534.945C536.422 54.9135 537.888 55.1939 539.252 55.7648C540.407 56.2527 541.389 57.0775 542.072 58.1324C542.733 59.245 543.083 60.5166 543.083 61.8124C543.083 63.1082 542.733 64.3798 542.072 65.4924C541.334 66.5568 540.286 67.3658 539.072 67.8085L543.482 74.1134H539.636Z" fill="black"/>
<path d="M559.865 70.4072C560.858 69.8263 561.681 68.9917 562.249 67.9882C562.821 66.9249 563.12 65.7354 563.12 64.527C563.12 63.3185 562.821 62.129 562.249 61.0657C561.681 60.0622 560.858 59.2276 559.865 58.6467C558.811 58.0719 557.628 57.7794 556.429 57.7974C555.239 57.7791 554.064 58.0718 553.02 58.6467C552.015 59.213 551.189 60.0512 550.636 61.0657C550.063 62.129 549.764 63.3185 549.764 64.527C549.764 65.7354 550.063 66.9249 550.636 67.9882C551.189 69.0028 552.015 69.8409 553.02 70.4072C554.064 70.9821 555.239 71.2748 556.429 71.2565C557.628 71.2745 558.811 70.9821 559.865 70.4072ZM551.174 73.1093C549.651 72.2595 548.391 71.0038 547.534 69.4808C546.667 67.9376 546.211 66.1958 546.211 64.424C546.211 62.6523 546.667 60.9105 547.534 59.3672C548.42 57.92 549.677 56.738 551.174 55.9446C552.798 55.1152 554.594 54.6829 556.416 54.6829C558.239 54.6829 560.035 55.1152 561.659 55.9446C563.173 56.7698 564.439 57.9873 565.325 59.4702C566.192 61.0134 566.648 62.7552 566.648 64.527C566.648 66.2987 566.192 68.0405 565.325 69.5837C564.439 71.0667 563.173 72.2841 561.659 73.1093C560.035 73.9387 558.239 74.3711 556.416 74.3711C554.594 74.3711 552.798 73.9387 551.174 73.1093" fill="black"/>
<path d="M572.349 72.0561C571.576 71.1881 570.983 70.1746 570.605 69.0745C570.226 67.9744 570.07 66.8097 570.144 65.6482V54.8398H573.682V65.6225C573.682 69.3797 575.297 71.2583 578.501 71.2583C581.706 71.2583 583.321 69.3797 583.321 65.6225V54.9428H586.782V65.7512C586.833 66.9011 586.658 68.0499 586.267 69.1318C585.875 70.2137 585.275 71.2075 584.5 72.0561C582.777 73.4871 580.61 74.27 578.373 74.27C576.136 74.27 573.97 73.4871 572.246 72.0561" fill="black"/>
<path d="M603.163 64.592C603.564 64.2436 603.879 63.8067 604.083 63.3156C604.288 62.8244 604.377 62.2925 604.342 61.7613C604.377 61.2338 604.288 60.7057 604.083 60.2187C603.878 59.7317 603.563 59.2994 603.163 58.9562C602.145 58.2192 600.902 57.864 599.651 57.9526H595.523V65.6729H599.651C600.898 65.7561 602.137 65.4113 603.163 64.695V64.592ZM604.111 55.8681C605.271 56.3489 606.255 57.1753 606.931 58.2357C607.568 59.338 607.904 60.5898 607.904 61.8642C607.904 63.1386 607.568 64.3904 606.931 65.4927C606.255 66.5531 605.271 67.3795 604.111 67.8603C602.758 68.4336 601.299 68.7141 599.83 68.6838H595.523V74.1137H592.011V54.9417H599.702C601.171 54.9113 602.63 55.1919 603.983 55.7652" fill="black"/>
<path d="M484.189 16.9319H480.625V78.4883H484.189V16.9319Z" fill="black"/>
<path d="M28.3535 40.3256C28.3535 40.094 28.5329 39.8624 28.6098 39.605H28.3791L26.8666 37.8551L28.8918 38.8845C29.2979 37.9978 29.7603 37.1382 30.2762 36.311L20.6883 30.6238L9.61351 17.7566L9.28024 18.1941L19.227 29.8003L6.40901 22.4145L5.53738 23.9329L21.1754 32.9913L5.12721 24.9108C4.87085 25.4512 4.58885 25.9659 4.35813 26.5063L25.636 37.1345L27.3793 39.1676L2.5636 30.5723C2.49245 30.7397 2.4325 30.9116 2.38415 31.087L28.0202 39.991L28.3535 40.3256ZM31.84 34.0722L10.4851 16.7273L10.2544 17.1648L31.5836 34.5096C31.6955 34.3576 31.8153 34.2116 31.9425 34.0722H31.84ZM28.1996 40.4543L1.82016 33.2229C1.64071 33.7891 1.48689 34.3552 1.33307 34.9471L27.8664 42.1785C27.9723 41.5944 28.1179 41.0184 28.3022 40.4543H28.1996ZM80.4459 46.9393H74.165L73.678 50.0017L86.778 52.0862L80.4459 46.9393ZM74.4983 41.4064L74.6265 40.5829L73.7292 40.7631L74.4983 41.4064ZM73.1652 40.3256L74.729 40.0168V39.6822L72.9601 40.1712L73.1652 40.3256ZM72.4474 40.4543L71.3707 40.7631L72.4474 40.4543ZM68.1149 36.2081L75.8057 33.12L76.703 27.5099L65.6539 34.2266L68.1149 36.2081ZM65.1924 33.8406L76.9081 26.8151L78.2412 18.5287L62.8596 31.859L65.1924 33.8406ZM74.8828 42.4358L74.3445 45.1636H78.1643L74.8828 42.4358ZM73.0627 50.4649L64.5772 49.101L65.9871 50.7222L72.7038 52.5751L73.0627 50.4649ZM72.4218 54.325L68.0637 53.1413L68.3457 53.4501L72.3449 54.8397L72.4218 54.325ZM72.0116 60.3726L74.8316 62.0196H75.0367L74.8059 61.7622L72.0116 60.3726ZM72.0116 57.5676L72.3705 55.4059L69.166 54.2993L72.0116 57.5676ZM67.3971 53.0898L67.2177 52.8582L65.2181 52.3178L67.3971 53.0898ZM71.2938 61.9938L67.8073 61.4277L65.0642 60.9902L70.7298 65.5966L71.2938 61.9938ZM70.6273 66.2143L63.9875 60.8358L61.5265 60.4498L69.9864 68.9421L70.6273 66.2143ZM69.8582 71.078L58.7578 59.9866H58.3476L69.5506 72.8537L69.8582 71.078ZM68.038 60.913L70.0889 61.2475L64.3464 57.9278L68.038 60.913ZM67.5509 85.4378L56.5018 72.5706L60.0652 82.3496L67.2946 86.4414L67.5509 85.4378ZM59.4243 81.8092L55.4507 71.5155L54.9124 70.8979L57.758 80.9343L59.4243 81.8092ZM54.8611 69.92L54.1177 67.9385L54.5791 69.5855L54.8611 69.92ZM52.5795 77.9748L51.8873 75.4014L52.3488 77.7175L52.5795 77.9748ZM37.8901 68.4017L37.1722 69.3024L37.5055 69.5082L37.8901 68.4017ZM37.3261 70.0229L36.8133 69.7399L35.5828 71.2582V74.9382L37.3261 70.0229ZM35.5828 70.3832L36.3263 69.4568L35.5572 69.045L35.5828 70.3832ZM35.0445 71.0523V69.6884L32.4809 74.1662L35.0445 71.0523ZM29.6865 55.4059L26.2513 54.8655L19.791 57.4389L18.8938 59.0344L21.4574 60.4241L29.6865 55.4059ZM20.7395 60.7586L18.5349 59.5234L16.3558 63.4092L20.7395 60.7586ZM17.3812 51.8288L14.3818 52.4207H14.9971L17.3812 51.8288ZM15.3816 56.7955H15.0996H15.2791H15.3816ZM13.8691 52.8582L12.818 52.7295L8.92134 53.4758L9.8186 53.9905L13.8691 52.8582ZM8.30607 53.0641L11.3568 52.4722L5.48611 51.4685L8.30607 53.0641ZM45.504 27.021V18.4772L42.7353 16.2383L41.0177 19.3522L41.6073 22.3631L45.504 27.021ZM42.9404 15.7494L45.504 17.7566V11.426L42.9404 15.7494ZM39.2744 13.7421V13.4076L38.454 12.8671L38.8642 14.334L39.2744 13.7421ZM35.8904 19.3779L34.3523 13.948V15.4406L35.8904 19.3779ZM35.5828 20.1242L34.3779 17.0103V22.1572L35.5828 20.1242ZM33.8139 13.948V11.915L32.8141 8.28643L31.1734 6.94825L33.8139 13.948ZM91.6744 46.9393H81.42L87.9572 52.2663L91.2899 52.8067V53.3471L88.9058 52.9611L91.0335 54.711C91.0438 54.9168 91.0438 55.1229 91.0335 55.3287L87.906 52.7552L73.883 50.5164L73.5241 52.678L90.5721 57.3359C90.4183 57.9021 90.2645 58.4683 90.085 59.0344L73.2421 54.4537V54.9941L89.6492 60.7071C89.5779 60.8832 89.518 61.0637 89.4698 61.2475L72.7807 55.586L72.3705 58.1594L73.0883 58.9572L81.3175 63.0747L88.0085 64.1555L87.7521 64.6702L82.9582 63.8982L87.1625 66.0084C86.9061 66.5488 86.6241 67.0635 86.3678 67.5782L77.1645 62.946H76.4466L76.6517 63.1776L85.8807 68.5303C85.5987 69.045 85.3167 69.5597 85.0091 70.0487L80.1895 67.1664L83.9836 71.5413L83.676 72.0302L78.7283 66.3172L71.7809 62.2512L71.1656 65.9827L81.7533 74.6294C81.6251 74.758 81.5226 74.9124 81.3944 75.0669L71.0118 66.626L70.576 69.4825L78.959 77.8976L77.7284 79.1586L70.2171 71.6442L69.9351 73.4971L76.0877 80.6512L75.6776 81.0115L69.8069 74.2176L68.2944 83.765L69.3711 85.5922L68.884 85.8752L68.1406 84.6143V85.3606L68.7302 86.0296L68.2431 86.3127L68.0124 86.0554V86.4671C67.7644 86.6196 67.5076 86.7571 67.2433 86.8789L60.5523 83.1217L62.7826 88.9376L62.2699 89.1178L59.7063 82.7099L57.9374 81.7063L60.219 89.8126C58.9116 90.2501 57.6554 90.6361 56.1942 90.9449L52.759 78.7983L52.4513 78.6182L55.0149 91.228H54.4766L51.913 78.155L46.7858 75.2727L46.9652 92H46.1449V74.9896L41.9918 72.6478L38.9668 91.511H38.4284L41.4791 72.4677L37.8131 70.409L35.6597 76.6881L35.8135 90.9964H35.2752L35.1214 78.3608L31.1734 89.8126L30.6607 89.6324L35.0957 76.7653V72.1846L30.994 77.3315L25.2259 87.1105C23.9766 86.4901 22.7614 85.8028 21.5855 85.0517L31.6861 67.0378L30.0454 66.1113L17.2274 82.0408L16.8172 81.7063L29.6353 65.854L25.9949 63.7952L11.3824 76.405L11.0235 75.9676L25.4822 63.5122L21.3548 61.1961L15.8174 64.3357L10.0493 74.6294C9.07184 73.4308 8.16451 72.1763 7.3319 70.8722L8.58807 68.6333L6.66537 69.8171L6.38337 69.4825L9.12643 67.8355L13.5102 59.9351L3.58904 63.8724C3.35832 63.332 3.15323 62.7659 2.92251 62.2255L14.8689 57.4646L14.228 57.1043L2.33288 60.527C1.89707 59.1888 1.51253 57.8506 1.20489 56.6154L9.10079 54.325L8.07535 53.7846L0.897261 55.1743C0.882743 54.9944 0.882743 54.8137 0.897261 54.6338L7.43445 53.3471L3.99922 51.4171L0.230724 50.6965C0.217366 50.508 0.217366 50.3188 0.230724 50.1303L2.53797 50.5164L0.153816 49.1782C0.142067 48.9553 0.142067 48.732 0.153816 48.5091L4.15304 50.7737L12.8693 52.1634L18.5349 51.0568L20.8165 46.9393H0C0 46.6305 0 46.3217 0 46.0129C0 45.7041 0 45.4467 0 45.1636H21.7394L22.6366 43.5424L25.5591 45.1636H27.4818C27.4818 45.4467 27.4818 45.7298 27.4818 46.0129C27.4818 46.2959 27.4818 46.6305 27.4818 46.9393H25.636L23.8415 49.9502L27.6869 48.8951C27.9369 50.5674 28.4201 52.1961 29.1225 53.7331L27.1486 54.5052L29.7122 54.9169C29.866 55.2 30.0454 55.4573 30.2249 55.7404L21.8675 60.8873L25.8668 63.1519L31.7887 58.005C31.8944 58.1539 32.0146 58.2918 32.1476 58.4168L26.3795 63.4092L29.9429 65.4165L34.0703 60.2696C34.2043 60.3952 34.3502 60.5073 34.5061 60.6042L30.43 65.751L31.9681 66.626L35.0445 61.1189C36.1708 61.9499 37.3826 62.6574 38.6591 63.2291L35.6341 68.6848L36.6083 69.2252L38.3259 67.0892L39.5564 63.5379L40.0691 63.7438L39.3513 65.8282L40.8382 63.9754L41.4278 64.1298L38.8642 67.3723L37.967 69.9457L41.556 71.953L42.684 64.3357H43.248L41.9918 72.0559L46.0423 74.3206V64.4643H46.5807L46.7088 74.758L51.7079 77.5888L50.0928 69.2252L48.7085 64.3357C50.1232 64.1194 51.5082 63.7395 52.8359 63.2034L55.9122 71.2324L67.6278 84.7944L67.7817 83.868L54.9637 62.174L55.4251 61.8909L67.9098 83.0187L69.4224 73.6772L57.7836 60.1924C58.4255 59.6468 59.0254 59.0532 59.5781 58.4168L61.0394 59.8836L63.0903 60.1924L60.1421 57.7992C60.2672 57.6647 60.3789 57.5181 60.4754 57.3617L64.0901 60.2954L66.8075 60.7329L61.1932 56.1779C61.7043 55.3524 62.1583 54.4925 62.5519 53.6045L71.7809 58.2881L68.0124 54.042L63.1415 52.3435C63.4004 51.6658 63.6062 50.9689 63.7568 50.259L65.0386 50.5936L64.0901 49.2039C64.0901 48.9466 64.0901 48.715 64.0901 48.4576L73.1652 49.8987L73.6267 46.9393H64.0901C64.0901 46.6305 64.0901 46.3217 64.0901 46.0129C64.0901 45.7041 64.0901 45.4467 64.0901 45.1636H73.8061L74.3445 42.0241L72.9601 40.8917L65.0642 42.4615L63.885 42.7961C63.6281 41.2785 63.1802 39.7998 62.5519 38.3955L67.474 36.4397L65.1155 34.5354L61.6034 36.6199C61.5188 36.4599 61.4246 36.3052 61.3214 36.1566L64.6541 34.1494L62.2699 32.2193L59.937 34.2266C59.8313 34.0777 59.7111 33.9398 59.5781 33.8148L61.8341 31.859L59.2705 29.7488L57.6042 31.8333L57.1683 31.4987L58.8347 29.4143L57.8092 28.565L56.3993 30.8811C55.2597 30.0565 54.0297 29.3657 52.7333 28.8224L54.4253 25.7857L53.2204 24.8078L51.9386 28.5393L51.4259 28.3592L52.7846 24.4476L49.9903 22.2087L49.0674 27.8445H48.529L49.5032 21.8741L45.9398 18.9147V27.5614H45.1451L41.6842 23.4439L42.1456 25.8372L42.7096 27.8445C41.3271 28.0694 39.9761 28.4581 38.6848 29.0025L37.6337 25.2196L35.7366 28.6165L36.6083 30.0576L36.1468 30.3407L35.429 29.1569L34.6343 30.5723V31.3958L34.0703 31.8076V31.5502L33.9421 31.8076C33.7991 31.9203 33.6622 32.0405 33.5319 32.1678L33.3268 31.9105L32.8398 31.6531L33.5319 32.3222C33.0961 32.734 32.6603 33.1457 32.2758 33.5832L27.1486 28.4364L11.5619 15.4406L11.9208 15.0288L22.893 24.1902L12.818 14.1024L14.0742 12.8671L30.5325 29.3371L30.7632 28.951L15.6123 11.426L16.0482 11.0657L31.0452 28.4364L32.9679 24.988L22.1239 6.63944L22.5853 6.35636L33.3268 24.4476L34.019 23.1608V15.595L30.3787 6.25343L27.4306 3.86014L27.9945 3.6028L29.9685 5.22406L29.1738 3.13958L29.6865 2.93371L30.7632 5.91888L32.5578 7.36L31.1991 2.41902C32.5172 1.95516 33.8611 1.56849 35.2239 1.26098L38.2233 11.9407L39.018 12.5583L36.7364 0.900699H37.3004L39.6589 13.073L45.222 3.08811V0H45.7603V2.03301L46.8883 0C48.4226 0.0337236 49.9541 0.145382 51.4772 0.334545L45.8629 10.4738V18.1941L49.5288 21.1793L52.8359 0.591888H53.3742L50.0928 21.5653L53.0666 23.9843L60.501 2.41902L61.0138 2.59916L53.528 24.3446L54.8098 25.3997L66.2691 4.81231C67.5253 5.45566 68.8327 6.12476 69.9351 6.87105L58.1169 28.0761L59.2192 28.9768L74.4727 10.0878L74.9085 10.4224L59.5269 29.3371L62.0905 31.4987L78.0617 17.6794L78.6513 14.1281L79.1128 14.6171L78.7283 17.1905L80.2151 15.9038L80.574 16.3155L78.8052 18.014L77.4464 26.4806L84.9065 21.9771C85.0098 22.1256 85.104 22.2803 85.1885 22.4403L77.3439 27.2011L76.421 32.9399L88.1367 28.3077L88.7776 29.9547L75.9596 35.1015L89.1108 31.3186C89.5467 32.6568 89.9312 33.892 90.2645 35.3589L75.3699 39.5021V39.8881L90.7516 36.8515C90.7394 37.0314 90.7394 37.212 90.7516 37.3919L75.0879 40.48L74.8572 41.7924L79.0102 45.1636H91.5463C91.5463 45.4467 91.5463 45.7298 91.5463 46.0129C91.5463 46.2959 91.5463 46.6305 91.5463 46.9393H91.6744ZM27.4562 43.1821L0.563993 38.833C0.551822 38.6531 0.551822 38.4725 0.563993 38.2926L27.6613 42.6417V43.1821" fill="black"/>
</svg>
