<svg width="416" height="73" viewBox="0 0 416 73" fill="none" xmlns="http://www.w3.org/2000/svg">
<path fill-rule="evenodd" clip-rule="evenodd" d="M68.6669 0V72.795H82.8013V0H68.6669ZM133.757 8.53799C148.285 8.53799 148.897 20.9395 148.897 20.9395C148.897 33.9495 137.722 33.8474 137.722 33.8474C153.875 33.8474 153.468 48.9681 153.468 48.9681C153.468 66.6187 132.034 65.8044 132.034 65.8044H93.2843C96.4291 65.8044 97.5056 60.7074 97.5056 60.7074V14.0376C97.5056 9.90097 93.2843 8.53723 93.2843 8.53723L133.757 8.53799ZM115.876 18.4671V55.7141H126.696C126.696 55.7141 135.736 55.7141 135.736 47.7065C135.736 47.7065 134.773 40.5737 118.207 33.5424H125.173C125.173 33.5424 132.793 33.9261 132.793 25.8367C132.793 17.4757 124.562 18.5064 124.562 18.5064L115.876 18.4671ZM40.4767 8.53799C54.9987 8.53799 55.6147 20.9395 55.6147 20.9395C55.6147 33.9495 44.4381 33.8474 44.4381 33.8474C60.5908 33.8474 60.1837 48.9681 60.1837 48.9681C60.1837 66.6187 38.7514 65.8044 38.7514 65.8044H0C3.14866 65.8044 4.2221 60.7074 4.2221 60.7074V14.0376C4.2221 9.90097 0 8.53723 0 8.53723L40.4767 8.53799ZM22.5926 18.4671V55.7141H33.4147C33.4147 55.7141 42.4528 55.7141 42.4528 47.7065C42.4528 47.7065 41.4891 40.5737 24.9232 33.5424H31.8899C31.8899 33.5424 39.5062 33.9261 39.5062 25.8367C39.5062 17.4757 31.2815 18.5064 31.2815 18.5064L22.5926 18.4671ZM156.907 8.54783C156.907 8.54783 162.052 9.42041 162.052 13.8983V60.7074C162.052 60.7074 161.045 65.8044 156.907 65.8044H180.487V18.6313H190.014C190.014 18.6313 198.419 18.7539 198.419 27.5932C198.419 36.4296 190.765 36.5582 190.765 36.5582H182.366C182.366 36.5582 186.004 39.5445 190.643 49.7521C195.278 59.9537 195.278 59.9537 195.408 60.0823C195.42 60.0953 195.463 60.1642 195.532 60.2775C196.15 61.2849 198.92 65.8037 202.306 65.8037H220.611C220.611 65.8037 216.601 64.6912 214.219 59.2135C211.833 53.7313 209.078 47.2645 209.078 47.2645C209.078 47.2645 206.619 39.572 200.24 39.4211C203.106 39.364 215.85 38.2655 215.85 23.2364C215.85 6.30696 192.143 8.54707 192.143 8.54707L156.907 8.54783ZM271.697 65.8045H294.525C294.525 65.8045 291.263 65.0643 288.754 58.4681C286.245 51.8659 272.825 14.5243 272.825 14.5243C272.825 14.5243 271.567 8.54788 266.426 8.54788H240.223L240.224 8.54801C240.292 8.56267 246.105 9.81849 244.609 14.1466C243.764 16.6001 239.115 28.8806 235.204 39.1692H229.307C225.898 39.1692 224.997 41.3732 223.815 44.2676C223.65 44.672 223.479 45.0899 223.295 45.5171C221.787 49.0022 218.404 51.9915 218.404 51.9915C221.158 50.3735 227.301 50.9948 227.301 50.9948C227.301 50.9948 228.65 51.0145 230.689 51.0379C229.984 52.8709 229.563 53.9872 229.563 53.9872C229.563 53.9872 225.049 64.0661 223.041 65.8045H240.599L246.081 51.0894C247.563 51.0682 248.766 51.0417 249.498 50.9948C253.512 50.7466 254.769 48.5065 255.767 45.7692C256.773 43.0303 260.539 38.7953 260.539 38.7953C257.524 39.6671 251.378 39.1692 251.378 39.1692H250.524L256.273 23.7359L271.697 65.8045ZM287.544 8.54788C287.544 8.54788 293.684 9.0466 293.684 13.8984V44.8958C293.684 44.8958 292.556 66.6801 321.023 66.6801C349.492 66.6801 348.617 46.2641 348.617 46.2641V14.4009C348.617 14.4009 347.358 8.54788 342.471 8.54788H328.926C328.926 8.54788 334.321 9.7928 334.321 14.4009V45.6397C334.321 45.6397 334.819 55.3547 323.279 55.3547C323.279 55.3547 313.249 55.6067 313.249 45.023V14.4009C313.249 14.4009 312.874 8.54788 307.357 8.54788H287.544ZM355.058 8.54788C355.058 8.54788 360.322 10.5398 360.322 14.6461V59.9545C360.322 59.9545 359.569 65.8045 355.058 65.8045H374.247V35.9339L397.444 61.3318C397.444 61.3318 399.701 65.8045 407.221 65.8045H416V15.0215C416 15.0215 415.623 8.54712 409.355 8.54712H396.562C396.562 8.54712 401.581 9.91464 401.581 14.2715V38.5441L375 8.54712L355.058 8.54788Z" fill="#00A990"/>
</svg>
