<svg width="129" height="19" viewBox="0 0 129 19" fill="none" xmlns="http://www.w3.org/2000/svg">
<path fill-rule="evenodd" clip-rule="evenodd" d="M106.853 9C106.969 9.20589 107.14 9.49606 107.364 9.84311C107.831 10.566 108.523 11.5279 109.422 12.487C111.234 14.4198 113.8 16.25 117 16.25C120.2 16.25 122.766 14.4198 124.578 12.487C125.477 11.5279 126.169 10.566 126.636 9.84311C126.86 9.49606 127.031 9.20589 127.147 9C127.031 8.79411 126.86 8.50394 126.636 8.15689C126.169 7.43402 125.477 6.47205 124.578 5.51296C122.766 3.58017 120.2 1.75 117 1.75C113.8 1.75 111.234 3.58017 109.422 5.51296C108.523 6.47205 107.831 7.43402 107.364 8.15689C107.14 8.50394 106.969 8.79411 106.853 9ZM128 9C128.671 8.66459 128.671 8.66433 128.671 8.66404L128.67 8.66331L128.669 8.66129L128.666 8.65508L128.655 8.63413C128.65 8.62445 128.644 8.61257 128.637 8.59855C128.631 8.58694 128.624 8.57386 128.616 8.55937C128.582 8.49541 128.533 8.40383 128.468 8.28855C128.339 8.05811 128.147 7.73239 127.896 7.34311C127.394 6.56598 126.648 5.52795 125.672 4.48704C123.734 2.41983 120.8 0.25 117 0.25C113.2 0.25 110.266 2.41983 108.328 4.48704C107.352 5.52795 106.606 6.56598 106.104 7.34311C105.853 7.73239 105.661 8.05811 105.532 8.28855C105.467 8.40383 105.418 8.49541 105.384 8.55937L105.367 8.59146L105.345 8.63413L105.334 8.65508L105.331 8.66129L105.33 8.66331L105.329 8.66404C105.329 8.66433 105.329 8.66459 106 9L105.329 8.66459C105.224 8.87574 105.224 9.12426 105.329 9.33541L106 9C105.329 9.33541 105.329 9.33567 105.329 9.33596L105.33 9.3367L105.331 9.33871L105.334 9.34492L105.345 9.36587C105.354 9.38357 105.367 9.40865 105.384 9.44063C105.418 9.50459 105.467 9.59617 105.532 9.71145C105.661 9.94189 105.853 10.2676 106.104 10.6569C106.606 11.434 107.352 12.4721 108.328 13.513C110.266 15.5802 113.2 17.75 117 17.75C120.8 17.75 123.734 15.5802 125.672 13.513C126.648 12.4721 127.394 11.434 127.896 10.6569C128.147 10.2676 128.339 9.94189 128.468 9.71145C128.533 9.59617 128.582 9.50459 128.616 9.44063C128.633 9.40865 128.646 9.38357 128.655 9.36587L128.666 9.34492L128.669 9.33871L128.67 9.3367L128.671 9.33596C128.671 9.33567 128.671 9.33541 128 9ZM128 9L128.671 9.33541C128.776 9.12426 128.776 8.87574 128.671 8.66459L128 9ZM0.5 15V3.57812H9.27344V15H7.41406V5.17188H2.375V15H0.5ZM19.7656 10.6562C19.7656 11.375 19.6719 12.013 19.4844 12.5703C19.2969 13.1276 19.0234 13.599 18.6641 13.9844C18.3047 14.3646 17.8724 14.6562 17.3672 14.8594C16.862 15.0573 16.2917 15.1562 15.6562 15.1562C15.0625 15.1562 14.5182 15.0573 14.0234 14.8594C13.5286 14.6562 13.099 14.3646 12.7344 13.9844C12.375 13.599 12.0964 13.1276 11.8984 12.5703C11.7005 12.013 11.6016 11.375 11.6016 10.6562C11.6016 9.70312 11.7656 8.89583 12.0938 8.23438C12.4271 7.56771 12.901 7.0599 13.5156 6.71094C14.1302 6.36198 14.862 6.1875 15.7109 6.1875C16.5078 6.1875 17.2109 6.36198 17.8203 6.71094C18.4297 7.0599 18.9062 7.56771 19.25 8.23438C19.5938 8.90104 19.7656 9.70833 19.7656 10.6562ZM13.4922 10.6562C13.4922 11.2865 13.5677 11.8255 13.7188 12.2734C13.875 12.7214 14.1146 13.0651 14.4375 13.3047C14.7604 13.5391 15.1771 13.6562 15.6875 13.6562C16.1979 13.6562 16.6146 13.5391 16.9375 13.3047C17.2604 13.0651 17.4974 12.7214 17.6484 12.2734C17.7995 11.8255 17.875 11.2865 17.875 10.6562C17.875 10.026 17.7995 9.49219 17.6484 9.05469C17.4974 8.61198 17.2604 8.27604 16.9375 8.04688C16.6146 7.8125 16.1953 7.69531 15.6797 7.69531C14.9193 7.69531 14.3646 7.95052 14.0156 8.46094C13.6667 8.97135 13.4922 9.70312 13.4922 10.6562ZM25.3594 15.1562C24.5417 15.1562 23.8333 14.9974 23.2344 14.6797C22.6354 14.362 22.1745 13.875 21.8516 13.2188C21.5286 12.5625 21.3672 11.7292 21.3672 10.7188C21.3672 9.66667 21.5443 8.80729 21.8984 8.14062C22.2526 7.47396 22.7422 6.98177 23.3672 6.66406C23.9974 6.34635 24.7188 6.1875 25.5312 6.1875C26.0469 6.1875 26.513 6.23958 26.9297 6.34375C27.3516 6.44271 27.7083 6.5651 28 6.71094L27.4531 8.17969C27.1354 8.04948 26.8099 7.9401 26.4766 7.85156C26.1432 7.76302 25.8229 7.71875 25.5156 7.71875C25.0104 7.71875 24.5885 7.83073 24.25 8.05469C23.9167 8.27865 23.6667 8.61198 23.5 9.05469C23.3385 9.4974 23.2578 10.0469 23.2578 10.7031C23.2578 11.3385 23.3411 11.875 23.5078 12.3125C23.6745 12.7448 23.9219 13.0729 24.25 13.2969C24.5781 13.5156 24.9818 13.625 25.4609 13.625C25.9349 13.625 26.3594 13.5677 26.7344 13.4531C27.1094 13.3385 27.4635 13.1901 27.7969 13.0078V14.6016C27.4688 14.7891 27.1172 14.9271 26.7422 15.0156C26.3672 15.1094 25.9062 15.1562 25.3594 15.1562ZM39.8516 6.35156V15H38.1484V10.0625C38.1484 9.73958 38.1562 9.41667 38.1719 9.09375C38.1875 8.77083 38.2083 8.46354 38.2344 8.17188H38.1875L35.5547 15H34.1094L31.5 8.16406H31.4453C31.4714 8.46094 31.4896 8.76823 31.5 9.08594C31.5156 9.40365 31.5234 9.7474 31.5234 10.1172V15H29.8203V6.35156H32.3828L34.8516 12.8125L37.3594 6.35156H39.8516ZM50.1094 10.6562C50.1094 11.375 50.0156 12.013 49.8281 12.5703C49.6406 13.1276 49.3672 13.599 49.0078 13.9844C48.6484 14.3646 48.2161 14.6562 47.7109 14.8594C47.2057 15.0573 46.6354 15.1562 46 15.1562C45.4062 15.1562 44.862 15.0573 44.3672 14.8594C43.8724 14.6562 43.4427 14.3646 43.0781 13.9844C42.7188 13.599 42.4401 13.1276 42.2422 12.5703C42.0443 12.013 41.9453 11.375 41.9453 10.6562C41.9453 9.70312 42.1094 8.89583 42.4375 8.23438C42.7708 7.56771 43.2448 7.0599 43.8594 6.71094C44.474 6.36198 45.2057 6.1875 46.0547 6.1875C46.8516 6.1875 47.5547 6.36198 48.1641 6.71094C48.7734 7.0599 49.25 7.56771 49.5938 8.23438C49.9375 8.90104 50.1094 9.70833 50.1094 10.6562ZM43.8359 10.6562C43.8359 11.2865 43.9115 11.8255 44.0625 12.2734C44.2188 12.7214 44.4583 13.0651 44.7812 13.3047C45.1042 13.5391 45.5208 13.6562 46.0312 13.6562C46.5417 13.6562 46.9583 13.5391 47.2812 13.3047C47.6042 13.0651 47.8411 12.7214 47.9922 12.2734C48.1432 11.8255 48.2188 11.2865 48.2188 10.6562C48.2188 10.026 48.1432 9.49219 47.9922 9.05469C47.8411 8.61198 47.6042 8.27604 47.2812 8.04688C46.9583 7.8125 46.5391 7.69531 46.0234 7.69531C45.263 7.69531 44.7083 7.95052 44.3594 8.46094C44.0104 8.97135 43.8359 9.70312 43.8359 10.6562ZM58.75 7.79688H55.9062V15H54.0781V7.79688H51.25V6.35156H58.75V7.79688ZM64.8594 6.1875C65.8854 6.1875 66.7083 6.5625 67.3281 7.3125C67.9531 8.0625 68.2656 9.17708 68.2656 10.6562C68.2656 11.6354 68.1198 12.4609 67.8281 13.1328C67.5417 13.7995 67.138 14.3047 66.6172 14.6484C66.1016 14.987 65.5 15.1562 64.8125 15.1562C64.375 15.1562 63.9948 15.099 63.6719 14.9844C63.349 14.8698 63.0729 14.7214 62.8438 14.5391C62.6146 14.3516 62.4219 14.1484 62.2656 13.9297H62.1562C62.1823 14.138 62.2057 14.3698 62.2266 14.625C62.2526 14.875 62.2656 15.1042 62.2656 15.3125V18.8359H60.4219V6.35156H61.9219L62.1797 7.54688H62.2656C62.4271 7.30208 62.6224 7.07552 62.8516 6.86719C63.0859 6.65885 63.3672 6.49479 63.6953 6.375C64.0286 6.25 64.4167 6.1875 64.8594 6.1875ZM64.3672 7.6875C63.862 7.6875 63.4557 7.78906 63.1484 7.99219C62.8464 8.1901 62.625 8.48958 62.4844 8.89062C62.349 9.29167 62.276 9.79427 62.2656 10.3984V10.6562C62.2656 11.2969 62.3307 11.8411 62.4609 12.2891C62.5964 12.7318 62.8177 13.0703 63.125 13.3047C63.4375 13.5339 63.8594 13.6484 64.3906 13.6484C64.8385 13.6484 65.2083 13.526 65.5 13.2812C65.7969 13.0365 66.0182 12.6875 66.1641 12.2344C66.3099 11.7812 66.3828 11.2474 66.3828 10.6328C66.3828 9.70052 66.2161 8.97656 65.8828 8.46094C65.5547 7.94531 65.0495 7.6875 64.3672 7.6875ZM73.8359 6.1875C74.6068 6.1875 75.2682 6.34635 75.8203 6.66406C76.3724 6.98177 76.7969 7.43229 77.0938 8.01562C77.3906 8.59896 77.5391 9.29688 77.5391 10.1094V11.0938H71.7656C71.7865 11.9323 72.0104 12.5781 72.4375 13.0312C72.8698 13.4844 73.474 13.7109 74.25 13.7109C74.8021 13.7109 75.2969 13.6589 75.7344 13.5547C76.1771 13.4453 76.6328 13.2865 77.1016 13.0781V14.5703C76.6693 14.7734 76.2292 14.9219 75.7812 15.0156C75.3333 15.1094 74.7969 15.1562 74.1719 15.1562C73.3229 15.1562 72.5755 14.9922 71.9297 14.6641C71.2891 14.3307 70.7865 13.8359 70.4219 13.1797C70.0625 12.5234 69.8828 11.7083 69.8828 10.7344C69.8828 9.76562 70.0469 8.94271 70.375 8.26562C70.7031 7.58854 71.1641 7.07292 71.7578 6.71875C72.3516 6.36458 73.0443 6.1875 73.8359 6.1875ZM73.8359 7.57031C73.2578 7.57031 72.7891 7.75781 72.4297 8.13281C72.0755 8.50781 71.8672 9.05729 71.8047 9.78125H75.7422C75.737 9.34896 75.6641 8.96615 75.5234 8.63281C75.388 8.29948 75.1797 8.03906 74.8984 7.85156C74.6224 7.66406 74.2682 7.57031 73.8359 7.57031ZM86.1406 7.79688H83.2969V15H81.4688V7.79688H78.6406V6.35156H86.1406V7.79688ZM89.6562 9.80469H91.8047C92.6172 9.80469 93.2891 9.89844 93.8203 10.0859C94.3568 10.2682 94.7578 10.5443 95.0234 10.9141C95.2891 11.2839 95.4219 11.7474 95.4219 12.3047C95.4219 12.8516 95.2969 13.3281 95.0469 13.7344C94.7969 14.1354 94.4062 14.4479 93.875 14.6719C93.349 14.8906 92.6615 15 91.8125 15H87.8125V6.35156H89.6562V9.80469ZM93.5781 12.3516C93.5781 11.9193 93.4167 11.6146 93.0938 11.4375C92.7708 11.2552 92.3099 11.1641 91.7109 11.1641H89.6562V13.6484H91.7266C92.2734 13.6484 92.7188 13.5495 93.0625 13.3516C93.4062 13.1484 93.5781 12.8151 93.5781 12.3516ZM114.75 9C114.75 7.75736 115.757 6.75 117 6.75C118.243 6.75 119.25 7.75736 119.25 9C119.25 10.2426 118.243 11.25 117 11.25C115.757 11.25 114.75 10.2426 114.75 9ZM117 5.25C114.929 5.25 113.25 6.92893 113.25 9C113.25 11.0711 114.929 12.75 117 12.75C119.071 12.75 120.75 11.0711 120.75 9C120.75 6.92893 119.071 5.25 117 5.25Z" fill="white"/>
</svg>
