<svg width="20" height="20" viewBox="0 0 20 20" fill="none" xmlns="http://www.w3.org/2000/svg">
<path fill-rule="evenodd" clip-rule="evenodd" d="M12.25 1C12.25 0.585786 12.5858 0.25 13 0.25H18.9998H19C19.0007 0.25 19.0015 0.250001 19.0022 0.250003C19.1031 0.250299 19.1993 0.27051 19.2871 0.306909C19.3755 0.343509 19.4584 0.397762 19.5303 0.46967C19.6022 0.541577 19.6565 0.624453 19.6931 0.712912C19.7251 0.790086 19.7446 0.873761 19.749 0.961405C19.7497 0.974188 19.75 0.987056 19.75 1V7C19.75 7.41421 19.4142 7.75 19 7.75C18.5858 7.75 18.25 7.41421 18.25 7V2.81066L8.53033 12.5303C8.23744 12.8232 7.76256 12.8232 7.46967 12.5303C7.17678 12.2374 7.17678 11.7626 7.46967 11.4697L17.1893 1.75H13C12.5858 1.75 12.25 1.41421 12.25 1ZM3.13333 3.75C2.76645 3.75 2.41459 3.89574 2.15517 4.15517C1.89574 4.41459 1.75 4.76645 1.75 5.13333V16.8667C1.75 17.2336 1.89574 17.5854 2.15517 17.8448C2.41459 18.1043 2.76645 18.25 3.13333 18.25H14.8667C15.2336 18.25 15.5854 18.1043 15.8448 17.8448C16.1043 17.5854 16.25 17.2336 16.25 16.8667V10.4667C16.25 10.0525 16.5858 9.71667 17 9.71667C17.4142 9.71667 17.75 10.0525 17.75 10.4667V16.8667C17.75 17.6314 17.4462 18.3648 16.9055 18.9055C16.3648 19.4462 15.6314 19.75 14.8667 19.75H3.13333C2.36863 19.75 1.63524 19.4462 1.09451 18.9055C0.553779 18.3648 0.25 17.6314 0.25 16.8667V5.13333C0.25 4.36863 0.553779 3.63524 1.09451 3.09451C1.63524 2.55378 2.36863 2.25 3.13333 2.25H9.53333C9.94755 2.25 10.2833 2.58579 10.2833 3C10.2833 3.41421 9.94755 3.75 9.53333 3.75H3.13333Z" fill="#009FE3"/>
</svg>
