<svg width="224" height="97" viewBox="0 0 224 97" fill="none" xmlns="http://www.w3.org/2000/svg">
<path fill-rule="evenodd" clip-rule="evenodd" d="M41.0718 21.3129C16.9088 13.5131 0 0 0 0C4.89905 35.0395 41.7439 43.6218 71.936 50.6545L71.9362 50.6546C78.9632 52.2914 85.6299 53.8443 91.4496 55.6273C105.964 60.0686 114.482 69.7202 117.925 73.6212C119.313 75.1928 119.876 75.831 119.676 74.8192C113.973 45.9135 53.5514 25.3363 41.0718 21.3129ZM12.4275 37.4414C29.853 50.5662 49.4666 54.3755 68.8203 58.1343L68.8205 58.1344L68.8207 58.1344L68.8208 58.1344L68.821 58.1345L68.8211 58.1345L68.8213 58.1345L68.8215 58.1346L68.8216 58.1346L68.8218 58.1346L68.8219 58.1347L68.8221 58.1347C74.7422 59.2845 80.6379 60.4295 86.4393 61.8351C72.9308 65.2206 11.9974 73.1985 12.4275 37.4414ZM38.4855 72.9968C50.0896 74.3176 60.4022 72.6488 71.0207 70.9305C75.9281 70.1364 80.9008 69.3317 86.0965 68.8066C83.3852 70.0213 80.7672 71.3154 78.2142 72.5774C64.5552 79.3292 52.7561 85.1616 38.4855 72.9968ZM82.1141 76.8555C73.4177 82.2928 65.1592 87.4564 55.5925 90.016C64.8461 99.1781 80.2495 82.2335 86.8933 73.8877C85.2789 74.8767 83.6893 75.8706 82.1141 76.8555ZM70.6412 96.7988L70.6621 96.7856C72.1989 97.0779 73.7804 97.0518 75.3067 96.709C76.8399 96.3646 78.2837 95.7081 79.5461 94.7813C83.6556 91.6488 87.5094 80.6647 87.1722 80.4118C87.0615 80.3288 85.831 81.6951 84.0344 83.69L84.0344 83.6901C80.3661 87.7633 74.3379 94.457 70.6621 96.7856L70.6412 96.7816V96.7988ZM96.5885 80.3769C97.4964 83.6004 99.2759 86.5162 101.733 88.8118L101.762 88.7917C104.114 90.9321 106.935 92.5058 110.004 93.3899L111.323 90.9356C108.586 89.8169 106.142 88.0971 104.176 85.9063C102.211 83.7155 100.775 81.1111 99.9772 78.2904C99.2285 75.669 99.0398 72.9221 99.4231 70.2245C99.8063 67.527 100.753 64.9379 102.203 62.6219C102.785 62.915 103.366 63.2542 103.947 63.6048C104.425 63.8787 104.896 64.1696 105.353 64.4513L105.353 64.4517C105.491 64.5364 105.626 64.6203 105.761 64.7026C104.171 66.6835 103.076 69.0069 102.564 71.4845C102.052 73.9621 102.137 76.5242 102.814 78.9629C103.61 81.7695 105.187 84.2986 107.365 86.2626L107.196 86.1304C109.291 87.953 111.799 89.2485 114.509 89.9067L110.533 95.9132C102.5 94.2291 95.4201 87.28 93.2579 79.6642C91.0956 72.0483 92.7115 65.8982 96.4199 60.478C97.0477 60.7079 97.7103 60.9378 98.2916 61.139L98.3788 61.1735H98.4136H98.5124H98.5415L98.7043 61.2194C99.1111 61.3631 99.5122 61.4781 99.8668 61.5758C100.37 61.7232 100.858 61.9156 101.326 62.1506C99.0057 64.5217 97.3491 67.4486 96.5186 70.644C95.6881 73.8394 95.7121 77.1935 96.5885 80.3769ZM137.895 70.7191V70.7192V70.7194C137.91 71.0479 137.926 71.3913 137.951 71.7609C137.654 71.7092 137.37 71.669 137.056 71.646C136.343 71.5769 135.626 71.5654 134.911 71.6115C134.799 70.9258 134.649 70.2466 134.463 69.5768C133.816 67.2812 132.72 65.1332 131.237 63.2542C129.12 61.0825 126.44 59.5273 123.49 58.7581C120.541 57.9888 117.434 58.035 114.509 58.8916L114.148 58.995C113.846 58.5007 113.514 58.0247 113.154 57.5696C112.9 57.2544 112.628 56.9532 112.341 56.6672L111.916 56.2533L111.777 56.1211L111.736 56.0809L111.695 56.0464L111.661 56.0177L111.585 55.943L111.527 55.897L111.387 55.7763C110.55 55.0578 109.644 54.3393 108.748 53.6783C108.225 53.2932 107.72 52.9254 107.255 52.5977C107.97 52.3103 108.708 52.0574 109.469 51.8333C121.542 48.3846 134.039 55.4372 137.468 67.5363C137.801 68.7129 137.844 69.6356 137.895 70.7191ZM123.36 93.5799C124.357 93.9651 125.418 94.1601 126.487 94.1547L126.47 94.1949C127.535 94.208 128.592 94.0126 129.58 93.6201C130.41 93.3032 131.169 92.8265 131.812 92.2177V84.941H125.999V87.3378H129.167V90.9014C128.862 91.1552 128.505 91.3413 128.121 91.4475C127.681 91.576 127.225 91.6399 126.766 91.6371C126.046 91.6854 125.325 91.5654 124.66 91.2868C123.996 91.0082 123.407 90.5789 122.942 90.0335C122.081 88.9606 121.651 87.4815 121.651 85.5962C121.641 84.7494 121.762 83.9061 122.012 83.0959C122.22 82.4078 122.564 81.7672 123.023 81.2106C123.447 80.7052 123.979 80.2989 124.581 80.0208C125.218 79.7379 125.911 79.5966 126.609 79.607C127.287 79.5835 127.96 79.7257 128.568 80.0208C129.084 80.2991 129.561 80.6431 129.987 81.0439L131.573 79.1529C130.977 78.5655 130.29 78.0747 129.539 77.6987C128.598 77.243 127.558 77.022 126.511 77.055C125.448 77.0424 124.393 77.2377 123.407 77.6297C122.456 78.0045 121.601 78.5815 120.901 79.3196C120.175 80.0934 119.61 81.0017 119.239 81.9923C118.812 83.154 118.603 84.3832 118.623 85.6192C118.6 86.8562 118.797 88.0876 119.204 89.2575C119.558 90.2554 120.12 91.1681 120.855 91.936C121.557 92.6605 122.412 93.2219 123.36 93.5799ZM135.028 93.85V77.3193H137.993V91.3727H144.945V93.85H135.028ZM155.336 91.1732C154.787 91.4661 154.17 91.6146 153.546 91.6042C152.924 91.6138 152.309 91.4654 151.762 91.1732C151.22 90.8751 150.756 90.4558 150.407 89.9489C150.006 89.364 149.711 88.7143 149.535 88.0291C149.322 87.2067 149.219 86.3604 149.227 85.5116C149.14 83.9743 149.547 82.4491 150.39 81.1547C150.754 80.6652 151.23 80.2672 151.779 79.9929C152.328 79.7187 152.934 79.5758 153.549 79.5758C154.164 79.5758 154.77 79.7187 155.319 79.9929C155.868 80.2672 156.343 80.6652 156.708 81.1547C157.551 82.4491 157.958 83.9743 157.871 85.5116C157.879 86.3604 157.775 87.2067 157.562 88.0291C157.387 88.7143 157.092 89.364 156.691 89.9489C156.342 90.4558 155.878 90.8751 155.336 91.1732ZM150.558 93.5815C151.503 93.9766 152.521 94.1723 153.546 94.1563C154.573 94.1728 155.593 93.977 156.539 93.5815C157.434 93.1833 158.228 92.5944 158.865 91.8572C159.547 91.0583 160.065 90.1346 160.387 89.1384C160.759 87.9692 160.94 86.7487 160.922 85.5231C160.939 84.3107 160.759 83.1036 160.387 81.948C160.069 80.9658 159.55 80.0582 158.865 79.281C158.222 78.5645 157.428 77.9956 156.539 77.6141C154.623 76.8401 152.475 76.8401 150.558 77.6141C149.667 77.9915 148.873 78.561 148.233 79.281C147.553 80.0604 147.039 80.9675 146.722 81.948C146.351 83.1036 146.17 84.3107 146.187 85.5231C146.169 86.7487 146.35 87.9692 146.722 89.1384C147.043 90.133 147.556 91.0564 148.233 91.8572C148.867 92.5978 149.662 93.1873 150.558 93.5815ZM163.288 93.8502V77.3196H166.636L169.6 85.4067C169.786 85.9298 169.967 86.4701 170.135 87.0161C170.304 87.5621 170.484 88.1082 170.676 88.6427H170.775C170.961 88.1082 171.135 87.5621 171.298 87.0161C171.461 86.4701 171.635 85.9298 171.827 85.4067L174.733 77.3196H178.11V93.8502H175.372V86.2919C175.372 85.9068 175.372 85.4872 175.413 85.0331C175.436 84.7782 175.45 84.5215 175.463 84.263C175.474 84.061 175.485 83.8579 175.5 83.6536C175.535 83.1881 175.582 82.734 175.628 82.2857C175.642 82.1513 175.656 82.0201 175.67 81.8918L175.67 81.8891C175.702 81.5902 175.732 81.3073 175.756 81.0384H175.657L174.303 84.8779L171.565 92.3098H169.821L167.06 84.8779L165.689 81.0442H165.59C165.613 81.3509 165.643 81.6795 165.676 82.0242L165.7 82.2914C165.711 82.4057 165.722 82.521 165.733 82.6374L165.75 82.8236C165.777 83.0984 165.804 83.3778 165.828 83.6594L165.835 83.7345L165.835 83.7347L165.835 83.736C165.873 84.1748 165.911 84.6043 165.933 85.0389C165.956 85.4987 165.973 85.9125 165.973 86.2976V93.856L163.288 93.8502ZM185.421 87.0911L186.003 85.0678H186.02C186.287 84.1942 186.543 83.2975 186.782 82.3779C186.883 81.9862 186.986 81.5935 187.088 81.2001L187.089 81.196C187.227 80.6672 187.366 80.1373 187.502 79.6074H187.601C187.845 80.5117 188.089 81.4295 188.333 82.3606C188.578 83.2918 188.837 84.1942 189.112 85.0678L189.694 87.0911H185.421ZM185.863 77.3313L180.423 93.862H183.445L184.753 89.3902H190.374L191.676 93.862H194.797L189.351 77.3313H185.863ZM202.889 94.1551C201.872 94.1586 200.865 93.9633 199.925 93.5803C199.014 93.2159 198.198 92.6542 197.536 91.9364C196.828 91.1581 196.284 90.2474 195.937 89.258C195.147 86.8993 195.147 84.3514 195.937 81.9927C196.298 80.989 196.855 80.0652 197.577 79.274C198.255 78.5457 199.086 77.9729 200.012 77.5956C200.956 77.2064 201.971 77.0109 202.994 77.0209C203.968 77.0005 204.932 77.2177 205.801 77.6531C206.555 78.0245 207.239 78.5202 207.824 79.1188L206.237 81.0099C205.819 80.5892 205.337 80.2362 204.807 79.9637C204.267 79.6943 203.669 79.5601 203.064 79.5729C202.414 79.5659 201.771 79.7075 201.186 79.9867C200.609 80.2697 200.103 80.6761 199.704 81.1765C199.26 81.7379 198.929 82.3778 198.727 83.0618C198.49 83.8741 198.374 84.7166 198.385 85.5621C198.385 87.4474 198.797 88.9265 199.623 89.9994C200.01 90.5163 200.519 90.9324 201.105 91.2117C201.692 91.4911 202.338 91.6254 202.988 91.6031C203.682 91.6168 204.369 91.4545 204.982 91.1318C205.572 90.8106 206.106 90.3972 206.563 89.9075L208.15 91.7525C207.507 92.4983 206.715 93.1049 205.825 93.5343C204.915 93.9527 203.922 94.1648 202.918 94.1551H202.889ZM218.403 91.1721C217.853 91.4651 217.237 91.6135 216.612 91.6032C215.99 91.6136 215.375 91.4651 214.828 91.1721C214.286 90.872 213.821 90.4532 213.468 89.9478C213.071 89.3614 212.778 88.7121 212.602 88.0281C212.389 87.2057 212.285 86.3594 212.294 85.5105C212.206 83.9733 212.613 82.4481 213.456 81.1537C213.82 80.6642 214.296 80.2662 214.844 79.9919C215.392 79.7176 215.998 79.5747 216.612 79.5747C217.227 79.5747 217.833 79.7176 218.381 79.9919C218.929 80.2662 219.405 80.6642 219.769 81.1537C220.548 82.2055 220.931 83.6597 220.931 85.5105C220.941 86.3591 220.84 87.2054 220.629 88.0281C220.451 88.7124 220.156 89.3617 219.757 89.9478C219.408 90.4548 218.945 90.874 218.403 91.1721ZM213.625 93.5805C214.569 93.9755 215.587 94.1713 216.612 94.1552C217.64 94.1712 218.659 93.9755 219.606 93.5805C220.5 93.1822 221.294 92.5934 221.931 91.8561C222.614 91.0573 223.131 90.1335 223.454 89.1374C223.826 87.9682 224.006 86.7476 223.989 85.522C224.006 84.3097 223.825 83.1025 223.454 81.9469C223.135 80.9647 222.617 80.0572 221.931 79.2799C221.288 78.5634 220.495 77.9946 219.606 77.613C217.689 76.839 215.542 76.839 213.625 77.613C212.733 77.9891 211.938 78.5588 211.3 79.2799C210.62 80.0593 210.106 80.9664 209.788 81.9469C209.417 83.1025 209.237 84.3097 209.254 85.522C209.236 86.7476 209.416 87.9682 209.788 89.1374C210.109 90.132 210.622 91.0554 211.3 91.8561C211.932 92.5981 212.727 93.1878 213.625 93.5805Z" fill="white"/>
</svg>
