<svg width="10" height="6" viewBox="0 0 10 6" fill="none" xmlns="http://www.w3.org/2000/svg">
<path d="M1.57309 0.514042C1.28019 0.221149 0.805318 0.221149 0.512425 0.514042C0.219532 0.806936 0.219532 1.28181 0.512425 1.5747L1.57309 0.514042ZM5.01736 5.01898L4.48703 5.54931C4.77993 5.84221 5.2548 5.84221 5.54769 5.54931L5.01736 5.01898ZM9.5223 1.5747C9.8152 1.28181 9.8152 0.806936 9.5223 0.514042C9.22941 0.221149 8.75454 0.221149 8.46164 0.514042L9.5223 1.5747ZM0.512425 1.5747L4.48703 5.54931L5.54769 4.48865L1.57309 0.514042L0.512425 1.5747ZM5.54769 5.54931L9.5223 1.5747L8.46164 0.514042L4.48703 4.48865L5.54769 5.54931Z" fill="#009FE3"/>
</svg>
