<svg width="224" height="61" viewBox="0 0 224 61" fill="none" xmlns="http://www.w3.org/2000/svg">
<path d="M1.37402 6.00586H4.19727C5.52344 6.00586 6.48275 6.2041 7.0752 6.60059C7.66764 6.99707 7.96387 7.6237 7.96387 8.48047C7.96387 9.07292 7.79753 9.56283 7.46484 9.9502C7.13672 10.333 6.65592 10.5814 6.02246 10.6953V10.7637C7.54004 11.0234 8.29883 11.821 8.29883 13.1562C8.29883 14.0495 7.99577 14.7467 7.38965 15.248C6.78809 15.7493 5.94499 16 4.86035 16H1.37402V6.00586ZM2.53613 10.2852H4.4502C5.27051 10.2852 5.86068 10.1576 6.2207 9.90234C6.58073 9.64258 6.76074 9.20736 6.76074 8.59668C6.76074 8.03613 6.56022 7.63281 6.15918 7.38672C5.75814 7.13607 5.12012 7.01074 4.24512 7.01074H2.53613V10.2852ZM2.53613 11.2695V15.0088H4.62109C5.42773 15.0088 6.03385 14.8538 6.43945 14.5439C6.84961 14.2295 7.05469 13.7396 7.05469 13.0742C7.05469 12.4544 6.84505 11.9987 6.42578 11.707C6.01107 11.4154 5.3776 11.2695 4.52539 11.2695H2.53613ZM17.1035 16H15.7842L13.0977 11.6045L10.3633 16H9.13281L12.4551 10.7773L9.3584 6.00586H10.6436L13.125 9.96387L15.627 6.00586H16.8643L13.7676 10.7363L17.1035 16ZM27.207 10.9893C27.207 12.5889 26.8014 13.8467 25.9902 14.7627C25.1836 15.6787 24.0602 16.1367 22.6201 16.1367C21.1481 16.1367 20.0111 15.6878 19.209 14.79C18.4115 13.8877 18.0127 12.6162 18.0127 10.9756C18.0127 9.34863 18.4137 8.08854 19.2158 7.19531C20.0179 6.29753 21.1572 5.84863 22.6338 5.84863C24.0693 5.84863 25.1904 6.30436 25.9971 7.21582C26.8037 8.12728 27.207 9.38509 27.207 10.9893ZM19.2432 10.9893C19.2432 12.3428 19.5303 13.3704 20.1045 14.0723C20.6833 14.7695 21.5218 15.1182 22.6201 15.1182C23.7275 15.1182 24.5638 14.7695 25.1289 14.0723C25.694 13.375 25.9766 12.3473 25.9766 10.9893C25.9766 9.64486 25.694 8.6263 25.1289 7.93359C24.5684 7.23633 23.7367 6.8877 22.6338 6.8877C21.5264 6.8877 20.6833 7.23861 20.1045 7.94043C19.5303 8.6377 19.2432 9.65397 19.2432 10.9893ZM37.3242 18.6045H36.2168V16H29.2715V18.6045H28.1641V14.9473H28.9365C29.6383 13.7669 30.2376 12.3314 30.7344 10.6406C31.2357 8.94987 31.5137 7.40495 31.5684 6.00586H36.0596V14.9473H37.3242V18.6045ZM34.8975 14.9473V7.05176H32.6211C32.5391 8.15462 32.2633 9.48079 31.7939 11.0303C31.3245 12.5752 30.7777 13.8809 30.1533 14.9473H34.8975ZM39.0264 6.00586H40.1133V11.5635C40.1133 12.5889 40.0814 13.5163 40.0176 14.3457H40.0723L45.6777 6.00586H46.9492V16H45.8555V10.4971C45.8555 9.58105 45.8942 8.61947 45.9717 7.6123H45.9102L40.2979 16H39.0264V6.00586ZM52.7666 16H51.6045V7.03809H48.4395V6.00586H55.9316V7.03809H52.7666V16ZM61.0791 6.00586H63.9023C65.2285 6.00586 66.1878 6.2041 66.7803 6.60059C67.3727 6.99707 67.6689 7.6237 67.6689 8.48047C67.6689 9.07292 67.5026 9.56283 67.1699 9.9502C66.8418 10.333 66.361 10.5814 65.7275 10.6953V10.7637C67.2451 11.0234 68.0039 11.821 68.0039 13.1562C68.0039 14.0495 67.7008 14.7467 67.0947 15.248C66.4932 15.7493 65.6501 16 64.5654 16H61.0791V6.00586ZM62.2412 10.2852H64.1553C64.9756 10.2852 65.5658 10.1576 65.9258 9.90234C66.2858 9.64258 66.4658 9.20736 66.4658 8.59668C66.4658 8.03613 66.2653 7.63281 65.8643 7.38672C65.4632 7.13607 64.8252 7.01074 63.9502 7.01074H62.2412V10.2852ZM62.2412 11.2695V15.0088H64.3262C65.1328 15.0088 65.7389 14.8538 66.1445 14.5439C66.5547 14.2295 66.7598 13.7396 66.7598 13.0742C66.7598 12.4544 66.5501 11.9987 66.1309 11.707C65.7161 11.4154 65.0827 11.2695 64.2305 11.2695H62.2412Z" fill="white"/>
<path d="M54.2289 41.7076C54.2599 42.0886 54.1956 42.4714 54.042 42.8202C53.8885 43.1691 53.6507 43.4726 53.3509 43.7025C52.6609 44.1699 51.843 44.4017 51.0153 44.3645H47.8279V39.0508H51.0241C51.8508 39.011 52.6687 39.2396 53.3597 39.7038C53.6602 39.9351 53.8983 40.2402 54.0519 40.5906C54.2054 40.941 54.2693 41.3253 54.2377 41.7076H54.2289ZM54.8787 37.7895C54.2835 37.3986 53.6227 37.1226 52.9294 36.9755C52.182 36.8127 51.4196 36.7318 50.6553 36.7339H45.387V54.4461H47.7928V46.6724H50.9889C51.6302 46.6701 52.2693 46.5951 52.8943 46.4488C53.5584 46.3007 54.1915 46.0342 54.7646 45.6616C55.3592 45.2771 55.8509 44.7485 56.1958 44.1229C56.5886 43.3729 56.7795 42.5303 56.7489 41.6808C56.7727 40.8647 56.5946 40.0557 56.2309 39.3281C55.9092 38.7028 55.4343 38.1728 54.8524 37.7895" fill="white"/>
<path d="M68.5849 41.7074C68.6188 42.2484 68.4632 42.7841 68.1458 43.2192C67.8349 43.5838 67.4351 43.8584 66.9868 44.0154C66.4652 44.1943 65.9212 44.2967 65.3712 44.3195C64.7653 44.3195 64.1858 44.3642 63.6678 44.3642H62.0697V39.0506H64.7039C65.1853 39.0489 65.6663 39.0788 66.1439 39.1401C66.5778 39.1904 66.9998 39.3175 67.3907 39.5158C67.7496 39.6981 68.0531 39.9764 68.2688 40.3209C68.5097 40.7403 68.6256 41.222 68.6024 41.7074H68.5849ZM69.981 44.9189C70.7635 44.0444 71.1739 42.8896 71.1224 41.7074C71.169 40.7707 70.9528 39.8398 70.499 39.0238C70.1004 38.3818 69.5351 37.8647 68.8658 37.5299C68.1636 37.1846 67.4099 36.9609 66.6356 36.8679C65.8256 36.768 65.0105 36.7172 64.1946 36.7158H59.7078V54.428H62.1136V46.6722H64.379L68.9097 54.3474L68.9712 54.4458H71.8863L67.0658 46.3949C68.1776 46.2292 69.2083 45.7058 70.0073 44.901" fill="white"/>
<path d="M89.2284 45.5987C89.2311 46.5159 89.0674 47.4257 88.7455 48.2823C88.4442 49.1021 87.9911 49.8552 87.4109 50.5008C86.8365 51.1402 86.1364 51.6492 85.3562 51.9947C84.5236 52.3574 83.6275 52.5444 82.7221 52.5444C81.8166 52.5444 80.9205 52.3574 80.0879 51.9947C79.3058 51.648 78.6031 51.1393 78.0245 50.5008C77.4423 49.8567 76.989 49.1032 76.6898 48.2823C76.3742 47.4243 76.2135 46.515 76.2157 45.5987C76.2093 44.6645 76.3699 43.7369 76.6898 42.8613C76.9954 42.037 77.4546 41.2806 78.042 40.6339C78.6278 40.0038 79.3287 39.4964 80.1055 39.14C81.3241 38.5824 82.6833 38.4266 83.9931 38.6944C85.3029 38.9623 86.4978 39.6404 87.4109 40.6339C87.9911 41.2795 88.4442 42.0327 88.7455 42.8524C89.0725 43.7262 89.2362 44.6546 89.2284 45.5897V45.5987ZM89.2284 38.9343C88.4111 38.1009 87.4417 37.4384 86.3748 36.9841C84.0435 36.0535 81.4533 36.0535 79.122 36.9841C78.0509 37.4353 77.078 38.0981 76.2596 38.9343C75.446 39.7771 74.807 40.7779 74.3806 41.8773C73.9234 43.0591 73.6938 44.3195 73.7045 45.5897C73.6948 46.854 73.9243 48.1084 74.3806 49.2842C74.801 50.3865 75.4387 51.3893 76.2541 52.2308C77.0696 53.0724 78.0456 53.7349 79.122 54.1774C81.4511 55.1197 84.0456 55.1197 86.3748 54.1774C87.4328 53.7324 88.396 53.0822 89.2109 52.2631C90.0303 51.4198 90.6726 50.4154 91.0987 49.3111C91.5549 48.1353 91.7845 46.8809 91.7748 45.6166C91.7854 44.3464 91.5559 43.086 91.0987 41.9042C90.6725 40.8025 90.0301 39.8011 89.2109 38.9611" fill="white"/>
<path d="M93.0562 39.0508H98.6406V54.446H101.046V39.0508H106.631V36.7339H93.0562V39.0508Z" fill="white"/>
<path d="M111.451 46.3682H119.494V44.0603H111.451V39.0418H120.074V36.7339H109.045V54.446H120.504V52.1291H111.451V46.3682Z" fill="white"/>
<path d="M136.151 50.2316C135.6 50.9596 134.898 51.5552 134.096 51.9759C133.257 52.3896 132.333 52.595 131.401 52.5753C130.525 52.5895 129.658 52.403 128.863 52.0296C128.117 51.6766 127.448 51.1747 126.896 50.5536C126.332 49.9091 125.896 49.1585 125.614 48.3441C125.3 47.4641 125.142 46.5341 125.149 45.5978C125.146 44.6821 125.303 43.7732 125.614 42.9141C125.904 42.0911 126.345 41.332 126.914 40.6777C127.466 40.0353 128.141 39.5148 128.898 39.1481C129.678 38.7657 130.535 38.5728 131.401 38.5845C132.183 38.5838 132.956 38.7578 133.666 39.0944C134.389 39.4431 135.015 39.9723 135.484 40.633L135.598 40.794L137.652 39.2643L137.538 39.0944C136.83 38.142 135.88 37.4056 134.79 36.9653C133.711 36.5299 132.561 36.3082 131.401 36.3123C129.637 36.288 127.909 36.8177 126.451 37.8292C124.993 38.8407 123.876 40.285 123.252 41.9659C122.815 43.1307 122.594 44.3685 122.602 45.6157C122.591 46.886 122.82 48.1467 123.279 49.3281C123.707 50.4177 124.335 51.4137 125.131 52.2622C125.923 53.0913 126.869 53.7512 127.915 54.2034C129.025 54.6822 130.221 54.9227 131.427 54.9101C132.706 54.932 133.975 54.6759 135.15 54.1586C136.285 53.6346 137.265 52.8174 137.995 51.7881L138.109 51.636L136.3 50.0884L136.151 50.2316Z" fill="white"/>
<path d="M155.038 45.599C155.039 46.5153 154.879 47.4244 154.564 48.2827C154.258 49.1022 153.802 49.8551 153.22 50.5012C152.649 51.1402 151.952 51.6492 151.175 51.9951C150.342 52.3563 149.446 52.5424 148.54 52.5424C147.635 52.5424 146.739 52.3563 145.906 51.9951C145.127 51.6473 144.428 51.1386 143.852 50.5012C143.267 49.8574 142.811 49.1039 142.508 48.2827C141.876 46.5208 141.876 44.5878 142.508 42.8259C142.818 42.0145 143.277 41.2706 143.86 40.6342C144.441 40.0025 145.14 39.4946 145.915 39.1403C146.748 38.7791 147.644 38.593 148.549 38.593C149.454 38.593 150.35 38.7791 151.183 39.1403C151.955 39.4927 152.648 40.0009 153.22 40.6342C153.792 41.2866 154.239 42.042 154.537 42.8617C154.857 43.7372 155.018 44.6648 155.012 45.599H155.038ZM156.882 41.8866C156.453 40.7861 155.811 39.7851 154.994 38.9435C154.178 38.1084 153.208 37.4456 152.14 36.9934C149.809 36.0627 147.219 36.0627 144.888 36.9934C143.818 37.4431 142.848 38.1062 142.034 38.9435C141.216 39.7831 140.577 40.7848 140.155 41.8866C139.698 43.0684 139.468 44.3288 139.479 45.599C139.469 46.8633 139.699 48.1177 140.155 49.2935C140.574 50.3935 141.21 51.3948 142.022 52.2362C142.834 53.0775 143.806 53.7412 144.879 54.1867C147.208 55.129 149.802 55.129 152.132 54.1867C153.21 53.7466 154.192 53.0929 155.02 52.2634C155.84 51.4202 156.482 50.4158 156.908 49.3114C157.364 48.1356 157.594 46.8812 157.584 45.6169C157.595 44.3467 157.365 43.0863 156.908 41.9045" fill="white"/>
<path d="M174.548 43.0048C174.029 42.7226 173.597 42.2981 173.301 41.7793C172.987 41.2384 172.829 40.6184 172.845 39.9902C172.832 39.3623 172.99 38.743 173.301 38.201C173.613 37.7132 174.047 37.3182 174.557 37.056C175.097 36.7616 175.701 36.6108 176.313 36.6177C176.815 36.6094 177.314 36.7037 177.779 36.895C178.207 37.0846 178.588 37.3688 178.895 37.7269L178.113 38.4784C177.893 38.2268 177.622 38.0269 177.319 37.8926C177.016 37.7582 176.688 37.6925 176.357 37.7001C175.938 37.6924 175.524 37.794 175.154 37.9953C174.812 38.1935 174.527 38.4805 174.329 38.8272C174.126 39.1956 174.023 39.6125 174.03 40.0349C174.02 40.4576 174.123 40.8751 174.329 41.2425C174.522 41.5931 174.808 41.8814 175.154 42.0745C175.522 42.2827 175.937 42.3877 176.357 42.3786C176.688 42.3863 177.017 42.3198 177.321 42.1838C177.624 42.0477 177.895 41.8455 178.113 41.5914L178.895 42.3518C178.589 42.7123 178.204 42.9942 177.771 43.1748C177.251 43.3867 176.693 43.4828 176.135 43.4565C175.576 43.4303 175.029 43.2824 174.531 43.0227" fill="white"/>
<path d="M184.391 42.0567C184.737 41.8636 185.023 41.5754 185.217 41.2248C185.407 40.8533 185.506 40.4405 185.506 40.0216C185.506 39.6027 185.407 39.1899 185.217 38.8184C185.025 38.4575 184.739 38.1573 184.391 37.9507C184.031 37.7572 183.63 37.6561 183.223 37.6561C182.816 37.6561 182.416 37.7572 182.056 37.9507C181.711 38.15 181.426 38.4406 181.23 38.7916C181.04 39.1631 180.941 39.5758 180.941 39.9948C180.941 40.4137 181.04 40.8265 181.23 41.198C181.424 41.5485 181.71 41.8368 182.056 42.0299C182.414 42.2295 182.815 42.3342 183.223 42.3342C183.632 42.3342 184.033 42.2295 184.391 42.0299V42.0567ZM181.432 42.9781C180.91 42.6961 180.476 42.2718 180.177 41.7526C179.88 41.2161 179.724 40.6107 179.724 39.9948C179.724 39.3789 179.88 38.7734 180.177 38.237C180.472 37.7391 180.894 37.3313 181.397 37.0562C181.952 36.7679 182.566 36.6177 183.188 36.6177C183.811 36.6177 184.425 36.7679 184.98 37.0562C185.502 37.3382 185.936 37.7625 186.235 38.2817C186.551 38.822 186.709 39.4424 186.692 40.0708C186.708 40.699 186.549 41.3191 186.235 41.8599C185.936 42.3791 185.502 42.8034 184.98 43.0855C184.425 43.3737 183.811 43.524 183.188 43.524C182.566 43.524 181.952 43.3737 181.397 43.0855" fill="white"/>
<path d="M194.067 43.3539L194.058 38.9348L191.916 42.5935H191.38L189.238 38.9974V43.3539H188.087V36.6895H189.08L191.67 41.1085L194.207 36.6895H195.2L195.208 43.3539H194.067Z" fill="white"/>
<path d="M200.899 40.0349C201.036 39.9156 201.144 39.7653 201.214 39.596C201.284 39.4268 201.314 39.2431 201.303 39.0598C201.314 38.8752 201.284 38.6902 201.214 38.5195C201.144 38.3488 201.036 38.1969 200.899 38.0758C200.547 37.8268 200.123 37.7069 199.696 37.7359H198.282V40.4195H199.696C200.124 40.4503 200.55 40.3269 200.899 40.0707V40.0349ZM201.224 37.0113C201.621 37.1784 201.958 37.4657 202.189 37.8343C202.418 38.2128 202.534 38.6511 202.523 39.0956C202.532 39.5398 202.416 39.9774 202.189 40.3569C201.958 40.7255 201.621 41.0128 201.224 41.1799C200.76 41.3792 200.26 41.4767 199.757 41.4662H198.282V43.3179H197.079V36.6893H199.757C200.26 36.6787 200.76 36.7762 201.224 36.9755" fill="white"/>
<path d="M207.457 40.8403L206.237 37.9509L205.016 40.8672L207.457 40.8403ZM207.861 41.8064H204.586L203.962 43.3182H202.716L205.648 36.6538H206.834L209.775 43.3182H208.511L207.861 41.8064Z" fill="white"/>
<path d="M216.65 36.6895V43.3539H215.649L212.067 38.8364V43.3539H210.864V36.6895H211.856L215.447 41.198V36.6895H216.65Z" fill="white"/>
<path d="M221.454 41.0012V43.3539H220.251V41.0191L217.687 36.6895H218.986L220.892 39.9367L222.815 36.6895H224L221.454 41.0012Z" fill="white"/>
<path d="M177.752 51.3691H178.903V54.0527C178.551 54.3327 178.152 54.5449 177.726 54.6789C177.283 54.822 176.821 54.8944 176.356 54.8936C175.744 54.8971 175.141 54.7465 174.6 54.4553C174.054 54.1582 173.603 53.7081 173.301 53.1582C173.004 52.6217 172.848 52.0162 172.848 51.4004C172.848 50.7845 173.004 50.179 173.301 49.6426C173.605 49.1248 174.042 48.7012 174.565 48.417C175.122 48.1174 175.744 47.9666 176.374 47.9787C176.881 47.9721 177.384 48.0631 177.858 48.2471C178.291 48.422 178.677 48.7013 178.982 49.0611L178.218 49.8215C177.991 49.5798 177.718 49.3878 177.417 49.2571C177.115 49.1263 176.79 49.0597 176.462 49.0611C176.037 49.0527 175.617 49.1543 175.241 49.3563C174.878 49.54 174.573 49.8255 174.363 50.1793C174.162 50.5548 174.059 50.977 174.065 51.4048C174.062 51.8238 174.165 52.2364 174.363 52.6035C174.575 52.9579 174.879 53.2458 175.241 53.4355C175.611 53.6445 176.03 53.7494 176.453 53.7396C176.919 53.7488 177.38 53.6314 177.787 53.3997L177.752 51.3691Z" fill="white"/>
<path d="M184.39 49.4992C184.045 49.2429 183.622 49.1193 183.196 49.1503H181.782V51.834H183.196C183.625 51.8573 184.048 51.7241 184.39 51.4583C184.528 51.3376 184.637 51.186 184.709 51.0154C184.781 50.8447 184.813 50.6595 184.803 50.4742C184.813 50.2903 184.78 50.1064 184.709 49.9372C184.637 49.768 184.528 49.6181 184.39 49.4992V49.4992ZM184.829 54.7681L183.512 52.818H181.756V54.7681H180.544V48.1037H183.222C183.728 48.094 184.23 48.1915 184.697 48.3899C185.093 48.5595 185.429 48.8462 185.663 49.2129C185.89 49.5997 186.009 50.0417 186.009 50.4921C186.009 50.9426 185.89 51.3846 185.663 51.7714C185.41 52.1413 185.051 52.4226 184.636 52.5764L186.146 54.7681H184.829Z" fill="white"/>
<path d="M191.757 53.4801C192.098 53.2782 192.38 52.9881 192.574 52.6393C192.77 52.2696 192.873 51.8562 192.873 51.4361C192.873 51.016 192.77 50.6025 192.574 50.2329C192.38 49.8841 192.098 49.594 191.757 49.392C191.397 49.1922 190.991 49.0905 190.581 49.0968C190.173 49.0905 189.771 49.1922 189.413 49.392C189.069 49.5889 188.786 49.8802 188.597 50.2329C188.401 50.6025 188.298 51.016 188.298 51.4361C188.298 51.8562 188.401 52.2696 188.597 52.6393C188.786 52.9919 189.069 53.2833 189.413 53.4801C189.771 53.68 190.173 53.7817 190.581 53.7753C190.991 53.7816 191.397 53.6799 191.757 53.4801ZM188.781 54.4194C188.259 54.124 187.828 53.6875 187.534 53.1581C187.237 52.6216 187.081 52.0162 187.081 51.4003C187.081 50.7844 187.237 50.179 187.534 49.6425C187.838 49.1394 188.268 48.7286 188.781 48.4527C189.337 48.1644 189.952 48.0142 190.577 48.0142C191.201 48.0142 191.816 48.1644 192.372 48.4527C192.891 48.7396 193.324 49.1628 193.628 49.6783C193.925 50.2147 194.081 50.8202 194.081 51.4361C194.081 52.052 193.925 52.6574 193.628 53.1939C193.324 53.7094 192.891 54.1325 192.372 54.4194C191.816 54.7077 191.201 54.858 190.577 54.858C189.952 54.858 189.337 54.7077 188.781 54.4194" fill="white"/>
<path d="M196.033 54.0534C195.769 53.7517 195.566 53.3994 195.436 53.017C195.306 52.6346 195.253 52.2297 195.278 51.826V48.0688H196.49V51.817C196.49 53.1231 197.043 53.7761 198.141 53.7761C199.238 53.7761 199.791 53.1231 199.791 51.817V48.1046H200.977V51.8617C200.994 52.2615 200.934 52.6608 200.8 53.0369C200.666 53.413 200.461 53.7584 200.195 54.0534C199.605 54.5508 198.863 54.823 198.097 54.823C197.331 54.823 196.588 54.5508 195.998 54.0534" fill="white"/>
<path d="M206.587 51.4584C206.725 51.3372 206.833 51.1854 206.903 51.0147C206.973 50.8439 207.003 50.659 206.991 50.4744C207.003 50.291 206.973 50.1074 206.903 49.9382C206.832 49.7689 206.724 49.6186 206.587 49.4993C206.239 49.2431 205.813 49.1196 205.384 49.1504H203.971V51.8341H205.384C205.812 51.863 206.236 51.7432 206.587 51.4942V51.4584ZM206.912 48.4258C207.309 48.593 207.646 48.8802 207.878 49.2488C208.096 49.632 208.211 50.0671 208.211 50.5101C208.211 50.9531 208.096 51.3883 207.878 51.7715C207.646 52.14 207.309 52.4273 206.912 52.5945C206.449 52.7937 205.949 52.8913 205.446 52.8807H203.971V54.7682H202.768V48.1038H205.402C205.905 48.0932 206.405 48.1908 206.868 48.3901" fill="white"/>
<path d="M165.838 34.8911H164.618V56.2888H165.838V34.8911Z" fill="white"/>
<path d="M9.71126 43.0245C9.71126 42.944 9.77272 42.8634 9.79906 42.774H9.72004L9.20199 42.1657L9.89565 42.5235C10.0347 42.2153 10.1931 41.9165 10.3698 41.629L7.08588 39.652L3.2927 35.1792L3.17855 35.3313L6.58539 39.3657L2.19513 36.7984L1.89659 37.3262L7.25271 40.475L1.7561 37.6661C1.6683 37.854 1.57171 38.0329 1.49269 38.2207L8.78052 41.9152L9.3776 42.6219L0.878052 39.6341C0.853682 39.6923 0.833149 39.7521 0.816589 39.813L9.59711 42.9082L9.71126 43.0245ZM10.9054 40.8507L3.59123 34.8214L3.51221 34.9735L10.8176 41.0028C10.8559 40.9499 10.897 40.8992 10.9405 40.8507H10.9054ZM9.65858 43.0692L0.623417 40.5555C0.561954 40.7523 0.50927 40.9491 0.456587 41.1549L9.54443 43.6685C9.58072 43.4655 9.63059 43.2653 9.6937 43.0692H9.65858ZM27.5533 45.3235H25.4021L25.2352 46.388L29.7221 47.1126L27.5533 45.3235ZM25.5162 43.4002L25.5601 43.1139L25.2528 43.1765L25.5162 43.4002ZM25.0596 43.0245L25.5952 42.9171V42.8008L24.9894 42.9708L25.0596 43.0245ZM24.8138 43.0692L24.445 43.1765L24.8138 43.0692ZM23.3299 41.5932L25.964 40.5197L26.2713 38.5696L22.4869 40.9044L23.3299 41.5932ZM22.3289 40.7702L26.3416 38.3281L26.7982 35.4476L21.5298 40.0814L22.3289 40.7702ZM25.6479 43.758L25.4635 44.7062H26.7718L25.6479 43.758ZM25.0245 46.549L22.1181 46.0749L22.6011 46.6385L24.9016 47.2825L25.0245 46.549ZM24.805 47.8908L23.3123 47.4793L23.4089 47.5867L24.7786 48.0697L24.805 47.8908ZM24.6645 49.993L25.6304 50.5655H25.7006L25.6216 50.4761L24.6645 49.993ZM24.6645 49.018L24.7874 48.2665L23.6899 47.8819L24.6645 49.018ZM23.084 47.4614L23.0225 47.3809L22.3377 47.1931L23.084 47.4614ZM24.4186 50.5566L23.2245 50.3598L22.285 50.2077L24.2255 51.809L24.4186 50.5566ZM24.1903 52.0237L21.9162 50.154L21.0733 50.0199L23.9708 52.9719L24.1903 52.0237ZM23.9269 53.7144L20.125 49.8588H19.9845L23.8216 54.3316L23.9269 53.7144ZM23.3035 50.1809L24.006 50.2972L22.0391 49.1432L23.3035 50.1809ZM23.1367 58.706L19.3523 54.2332L20.5728 57.6325L23.0489 59.0548L23.1367 58.706ZM20.3533 57.4446L18.9923 53.8664L18.8079 53.6517L19.7825 57.1405L20.3533 57.4446ZM18.7903 53.3118L18.5357 52.623L18.6937 53.1955L18.7903 53.3118ZM18.0089 56.1118L17.7718 55.2172L17.9298 56.0223L18.0089 56.1118ZM12.9776 52.784L12.7318 53.0971L12.8459 53.1687L12.9776 52.784ZM12.7844 53.3476L12.6088 53.2492L12.1874 53.777V55.0562L12.7844 53.3476ZM12.1874 53.4728L12.442 53.1508L12.1786 53.0077L12.1874 53.4728ZM12.003 53.7054V53.2313L11.1249 54.7878L12.003 53.7054ZM10.1678 48.2665L8.99126 48.0787L6.77856 48.9732L6.47125 49.5279L7.3493 50.0109L10.1678 48.2665ZM7.10344 50.1272L6.34832 49.6978L5.60197 51.0486L7.10344 50.1272ZM5.9532 47.0231L4.92587 47.2289H5.13661L5.9532 47.0231ZM5.26831 48.7496H5.17173H5.23319H5.26831ZM4.75026 47.3809L4.39026 47.3362L3.05562 47.5956L3.36294 47.7745L4.75026 47.3809ZM2.84489 47.4525L3.88977 47.2468L1.87903 46.8979L2.84489 47.4525ZM15.5854 38.3996V35.4297L14.6371 34.6515L14.0488 35.7339L14.2508 36.7805L15.5854 38.3996ZM14.7074 34.4815L15.5854 35.1792V32.9786L14.7074 34.4815ZM13.4518 33.7837V33.6675L13.1708 33.4796L13.3113 33.9895L13.4518 33.7837ZM12.2927 35.7428L11.7659 33.8553V34.3741L12.2927 35.7428ZM12.1874 36.0022L11.7747 34.9198V36.7089L12.1874 36.0022ZM11.5815 33.8553V33.1486L11.2391 31.8873L10.6771 31.4221L11.5815 33.8553ZM31.3992 45.3235H27.8869L30.126 47.1752L31.2674 47.363V47.5509L30.4509 47.4167L31.1796 48.025C31.1832 48.0965 31.1832 48.1682 31.1796 48.2397L30.1084 47.3452L25.3055 46.5669L25.1825 47.3183L31.0216 48.9375C30.9689 49.1343 30.9162 49.3311 30.8548 49.5279L25.086 47.9356V48.1234L30.7055 50.1093C30.6811 50.1705 30.6605 50.2333 30.644 50.2972L24.9279 48.3292L24.7874 49.2237L25.0333 49.501L27.8518 50.9323L30.1435 51.308L30.0557 51.4869L28.4138 51.2186L29.8538 51.9521C29.766 52.14 29.6694 52.3189 29.5816 52.4978L26.4294 50.8876H26.1835L26.2538 50.9681L29.4148 52.8288C29.3182 53.0077 29.2216 53.1866 29.1162 53.3565L27.4655 52.3546L28.765 53.8754L28.6596 54.0453L26.965 52.0594L24.5855 50.6461L24.3747 51.9432L28.0011 54.9488C27.9572 54.9936 27.9221 55.0472 27.8782 55.1009L24.3221 52.1668L24.1728 53.1597L27.044 56.0849L26.6225 56.5233L24.0499 53.9112L23.9533 54.5552L26.0606 57.0421L25.9201 57.1673L23.9094 54.8057L23.3913 58.1245L23.7601 58.7596L23.5933 58.858L23.3386 58.4197V58.6791L23.5406 58.9117L23.3738 59.0101L23.2947 58.9207V59.0638C23.2098 59.1168 23.1218 59.1646 23.0313 59.2069L20.7396 57.9009L21.5035 59.9226L21.3279 59.9852L20.4498 57.7577L19.844 57.4089L20.6255 60.2267C20.1776 60.3788 19.7474 60.513 19.2469 60.6203L18.0703 56.398L17.965 56.3354L18.843 60.7187H18.6586L17.7806 56.1744L16.0245 55.1725L16.0859 60.9871H15.8049V55.0741L14.3825 54.26L13.3464 60.8171H13.162L14.2069 54.1974L12.9513 53.4818L12.2137 55.6645L12.2664 60.6382H12.082L12.0293 56.2459L10.6771 60.2267L10.5015 60.1641L12.0205 55.6913V54.099L10.6157 55.8881L8.64004 59.2874C8.21216 59.0718 7.79595 58.8329 7.3932 58.5718L10.8527 52.3099L10.2908 51.9879L5.90051 57.5252L5.76002 57.4089L10.1503 51.8984L8.90345 51.1828L3.89855 55.5661L3.77563 55.414L8.72784 51.0844L7.31418 50.2793L5.41758 51.3706L3.44197 54.9488C3.10717 54.5322 2.7964 54.0961 2.51123 53.6428L2.94148 52.8645L2.28294 53.276L2.18635 53.1597L3.12587 52.5872L4.62734 49.841L1.22927 51.2096C1.15025 51.0218 1.08 50.825 1.00098 50.6371L5.0927 48.9822L4.87319 48.8569L0.799028 50.0467C0.649759 49.5815 0.518051 49.1164 0.412685 48.687L3.11709 47.8908L2.76587 47.703L0.307318 48.186C0.302346 48.1235 0.302346 48.0607 0.307318 47.9982L2.54635 47.5509L1.36976 46.88L0.0790247 46.6295C0.0744493 46.564 0.0744493 46.4982 0.0790247 46.4327L0.869272 46.5669L0.0526831 46.1017C0.0486589 46.0243 0.0486589 45.9466 0.0526831 45.8691L1.42244 46.6563L4.40782 47.1394L6.34832 46.7547L7.12979 45.3235H0C0 45.2161 0 45.1088 0 45.0014C0 44.8941 0 44.8046 0 44.7062H7.44588L7.7532 44.1427L8.75418 44.7062H9.41272C9.41272 44.8046 9.41272 44.903 9.41272 45.0014C9.41272 45.0998 9.41272 45.2161 9.41272 45.3235H8.78052L8.16589 46.3701L9.48297 46.0033C9.56858 46.5846 9.7341 47.1508 9.97468 47.6851L9.29858 47.9534L10.1766 48.0966C10.2293 48.195 10.2908 48.2844 10.3522 48.3828L7.48979 50.1719L8.85955 50.9591L10.8878 49.17C10.9241 49.2218 10.9652 49.2697 11.0108 49.3132L9.03516 51.0486L10.2557 51.7463L11.6693 49.9572C11.7152 50.0009 11.7652 50.0399 11.8186 50.0735L10.4225 51.8626L10.9493 52.1668L12.003 50.2524C12.3887 50.5413 12.8038 50.7872 13.241 50.986L12.2049 52.8824L12.5386 53.0703L13.1269 52.3278L13.5483 51.0933L13.724 51.1649L13.4781 51.8895L13.9874 51.2454L14.1893 51.2991L13.3113 52.4262L13.004 53.3208L14.2332 54.0185L14.6196 51.3706H14.8127L14.3825 54.0543L15.7698 54.8415V51.4154H15.9542L15.9981 54.9936L17.7103 55.9776L17.1571 53.0703L16.683 51.3706C17.1676 51.2955 17.6419 51.1634 18.0967 50.977L19.1503 53.768L23.163 58.4823L23.2157 58.1603L18.8254 50.6192L18.9835 50.5208L23.2596 57.8651L23.7777 54.6179L19.7913 49.9304C20.0112 49.7407 20.2166 49.5344 20.4059 49.3132L20.9064 49.8231L21.6089 49.9304L20.5991 49.0985C20.642 49.0517 20.6802 49.0008 20.7133 48.9464L21.9513 49.9662L22.882 50.1183L20.9591 48.5349C21.1342 48.2479 21.2897 47.9491 21.4245 47.6404L24.5855 49.2684L23.2947 47.7924L21.6264 47.202C21.7151 46.9665 21.7856 46.7242 21.8372 46.4774L22.2762 46.5937L21.9513 46.1107C21.9513 46.0212 21.9513 45.9407 21.9513 45.8513L25.0596 46.3522L25.2177 45.3235H21.9513C21.9513 45.2161 21.9513 45.1088 21.9513 45.0014C21.9513 44.8941 21.9513 44.8046 21.9513 44.7062H25.2791L25.4635 43.6149L24.9894 43.2213L22.285 43.7669L21.8811 43.8832C21.7931 43.3557 21.6397 42.8417 21.4245 42.3536L23.1103 41.6737L22.3025 41.0117L21.0996 41.7363C21.0706 41.6807 21.0384 41.6269 21.003 41.5753L22.1445 40.8775L21.3279 40.2066L20.5289 40.9044C20.4927 40.8526 20.4515 40.8047 20.4059 40.7613L21.1786 40.0814L20.3006 39.3479L19.7298 40.0724L19.5806 39.9562L20.1513 39.2316L19.8001 38.9364L19.3172 39.7415C18.9268 39.4548 18.5055 39.2147 18.0615 39.0258L18.6411 37.9702L18.2284 37.6303L17.7893 38.9274L17.6137 38.8648L18.0791 37.5051L17.122 36.7268L16.8059 38.6859H16.6215L16.9552 36.6105L15.7347 35.5818V38.5875H15.4625L14.2771 37.1562L14.4352 37.9881L14.6284 38.6859C14.1548 38.7641 13.6921 38.8992 13.2498 39.0884L12.8898 37.7734L12.2401 38.9543L12.5386 39.4552L12.3805 39.5536L12.1347 39.1421L11.8625 39.6341V39.9204L11.6693 40.0635V39.974L11.6254 40.0635C11.5764 40.1027 11.5295 40.1445 11.4849 40.1887L11.4147 40.0993L11.2479 40.0098L11.4849 40.2424C11.3357 40.3855 11.1864 40.5287 11.0547 40.6807L9.29858 38.8916L3.96002 34.3741L4.08294 34.231L7.84101 37.4156L4.39026 33.909L4.82051 33.4796L10.4576 39.2047L10.5366 39.0705L5.34734 32.9786L5.49661 32.8534L10.6332 38.8916L11.2918 37.6929L7.57759 31.3148L7.73564 31.2164L11.4147 37.5051L11.6518 37.0578V34.4278L10.4049 31.1806L9.39516 30.3487L9.58833 30.2592L10.2644 30.8228L9.99224 30.0982L10.1678 30.0266L10.5366 31.0643L11.1513 31.5653L10.6859 29.8477C11.1374 29.6865 11.5977 29.5521 12.0644 29.4452L13.0918 33.1576L13.364 33.3723L12.5825 29.3199H12.7757L13.5835 33.5512L15.4888 30.0803V29.0068H15.6732V29.7135L16.0596 29.0068C16.5851 29.0186 17.1096 29.0574 17.6313 29.1231L15.7084 32.6477V35.3313L16.964 36.369L18.0967 29.2126H18.2811L17.1571 36.5032L18.1757 37.3441L20.722 29.8477L20.8976 29.9103L18.3337 37.4693L18.7728 37.8361L22.6977 30.6796C23.1279 30.9033 23.5757 31.1359 23.9533 31.3953L19.9054 38.7664L20.283 39.0795L25.5074 32.5135L25.6567 32.6298L20.3884 39.2047L21.2664 39.9562L26.7367 35.1524L26.9386 33.9179L27.0967 34.0879L26.965 34.9824L27.4743 34.5352L27.5972 34.6783L26.9913 35.2687L26.526 38.2118L29.0811 36.6463C29.1165 36.6979 29.1487 36.7517 29.1777 36.8073L26.4908 38.4623L26.1747 40.4571L30.1874 38.8469L30.407 39.4194L26.0167 41.2085L30.5211 39.8935C30.6704 40.3587 30.8021 40.7881 30.9162 41.298L25.8147 42.7382V42.8724L31.0831 41.8168C31.0789 41.8794 31.0789 41.9421 31.0831 42.0047L25.7182 43.0781L25.6391 43.5344L27.0616 44.7062H31.3553C31.3553 44.8046 31.3553 44.903 31.3553 45.0014C31.3553 45.0998 31.3553 45.2161 31.3553 45.3235H31.3992ZM9.40394 44.0174L0.193172 42.5056C0.189003 42.4431 0.189003 42.3803 0.193172 42.3178L9.47419 43.8296V44.0174" fill="white"/>
</svg>
