<svg width="195" height="85" viewBox="0 0 195 85" fill="none" xmlns="http://www.w3.org/2000/svg">
<path fill-rule="evenodd" clip-rule="evenodd" d="M35.603 18.5616C14.6574 11.7687 0 0 0 0C4.24673 30.5162 36.1856 37.9907 62.3576 44.1155C68.449 45.5411 74.2281 46.8935 79.2729 48.4463C91.8544 52.3143 99.2387 60.72 102.223 64.1174C103.426 65.4862 103.914 66.042 103.74 65.1608C98.7976 39.9865 46.421 22.0657 35.603 18.5616ZM10.7728 32.6079C25.878 44.0384 42.8801 47.356 59.6568 50.6295L59.6569 50.6296C64.7892 51.631 69.9004 52.6283 74.9297 53.8526C63.2199 56.801 10.3999 63.7491 10.7728 32.6079ZM33.361 63.5739C43.42 64.7242 52.3595 63.2709 61.5641 61.7744L61.5642 61.7743C65.8181 61.0827 70.1286 60.3819 74.6325 59.9247C72.2822 60.9826 70.0128 62.1096 67.7998 63.2087C55.9595 69.0889 45.7314 74.1683 33.361 63.5739ZM71.1804 66.9345C63.642 71.6699 56.4831 76.1669 48.1902 78.3961C56.2117 86.3754 69.5641 71.6182 75.3232 64.3498C73.9238 65.2111 72.5459 66.0767 71.1804 66.9345ZM61.2351 84.303L61.2533 84.2915C62.5855 84.5461 63.9564 84.5234 65.2794 84.2248C66.6085 83.9249 67.86 83.3531 68.9543 82.546C72.5166 79.8178 75.8573 70.2517 75.565 70.0314C75.4691 69.9591 74.4033 71.1481 72.847 72.8843L72.8467 72.8846L72.8465 72.8848L72.8462 72.8851L72.8459 72.8854L72.8456 72.8859L72.845 72.8864L72.845 72.8865C69.6652 76.4339 64.4396 82.2635 61.2533 84.2915L61.2351 84.288V84.303ZM83.7275 70.0014C84.5145 72.8088 86.0571 75.3482 88.1871 77.3474L88.2119 77.3299C90.251 79.194 92.6962 80.5645 95.3567 81.3345L96.5004 79.1971C94.1276 78.2228 92.009 76.725 90.305 74.817C88.601 72.909 87.3562 70.6408 86.665 68.1842C86.016 65.9012 85.8524 63.5089 86.1846 61.1596C86.5169 58.8103 87.3377 56.5554 88.5948 54.5384C89.0987 54.7937 89.6025 55.089 90.1064 55.3944C90.521 55.633 90.9296 55.8865 91.3254 56.132C91.4443 56.2058 91.5621 56.2788 91.6785 56.3505C90.3005 58.0756 89.3511 60.0991 88.9072 62.2569C88.4634 64.4147 88.5376 66.646 89.1239 68.7699C89.8141 71.2142 91.181 73.4168 93.0691 75.1273L92.923 75.0122C94.7385 76.5994 96.913 77.7277 99.2616 78.301L95.8152 83.5321C88.8518 82.0654 82.7147 76.0134 80.8403 69.3806C78.966 62.7479 80.3667 57.3917 83.5814 52.6712C84.1255 52.8714 84.6999 53.0717 85.2038 53.2469L85.2794 53.2769H85.3096H85.3953H85.4205L85.5615 53.317C85.9143 53.4421 86.2619 53.5422 86.5693 53.6273C87.0053 53.7556 87.4286 53.9232 87.834 54.1279C85.8229 56.1929 84.3869 58.742 83.6669 61.5249C82.947 64.3078 82.9678 67.2289 83.7275 70.0014ZM119.164 58.8184C119.453 59.8431 119.49 60.6468 119.534 61.5905V61.5906V61.5907C119.547 61.8768 119.561 62.1758 119.582 62.4976C119.325 62.4526 119.079 62.4175 118.806 62.3975C118.189 62.3374 117.567 62.3273 116.947 62.3675C116.85 61.7703 116.72 61.1788 116.559 60.5954C115.998 58.5961 115.048 56.7255 113.763 55.089C111.927 53.1977 109.604 51.8433 107.047 51.1733C104.49 50.5033 101.797 50.5436 99.2616 51.2896L98.9492 51.3797C98.6871 50.9492 98.3994 50.5347 98.0876 50.1383C97.867 49.8638 97.6315 49.6014 97.3822 49.3523L97.0144 48.9919L96.8934 48.8768L96.8582 48.8417L96.8229 48.8117L96.7927 48.7867L96.7272 48.7216L96.6768 48.6816L96.5559 48.5764C95.8303 47.9507 95.0443 47.325 94.2683 46.7493C93.8148 46.4139 93.3765 46.0936 92.9734 45.8082C93.5931 45.5579 94.233 45.3377 94.8931 45.1424C105.358 42.139 116.191 48.2811 119.164 58.8184ZM106.935 81.4997C107.798 81.8351 108.718 82.005 109.645 82.0002L109.63 82.0353C110.553 82.0467 111.469 81.8765 112.326 81.5347C113.046 81.2587 113.703 80.8435 114.261 80.3133V73.9759H109.222V76.0633H111.968V79.167C111.703 79.3879 111.394 79.5501 111.061 79.6425C110.68 79.7544 110.285 79.8101 109.887 79.8077C109.263 79.8498 108.638 79.7452 108.062 79.5026C107.486 79.26 106.975 78.886 106.572 78.4111C105.826 77.4767 105.453 76.1885 105.453 74.5466C105.444 73.8091 105.549 73.0746 105.766 72.369C105.946 71.7698 106.244 71.2118 106.642 70.7271C107.01 70.2869 107.471 69.9331 107.993 69.6909C108.545 69.4445 109.145 69.3215 109.751 69.3305C110.338 69.3101 110.922 69.4339 111.449 69.6909C111.896 69.9333 112.31 70.2329 112.679 70.582L114.054 68.9351C113.537 68.4234 112.942 67.996 112.291 67.6686C111.475 67.2717 110.573 67.0792 109.665 67.1079C108.744 67.0969 107.83 67.2671 106.975 67.6085C106.151 67.9349 105.41 68.4374 104.803 69.0802C104.173 69.7541 103.683 70.5452 103.362 71.4079C102.992 72.4196 102.811 73.4902 102.828 74.5666C102.809 75.644 102.979 76.7164 103.332 77.7353C103.638 78.6043 104.126 79.3992 104.763 80.068C105.371 80.6989 106.113 81.1879 106.935 81.4997ZM117.049 81.7351V67.3383H119.619V79.5776H125.645V81.7351H117.049ZM134.653 79.4018C134.177 79.6569 133.642 79.7862 133.101 79.7772C132.562 79.7856 132.029 79.6563 131.554 79.4018C131.085 79.1422 130.682 78.777 130.38 78.3355C130.032 77.8262 129.777 77.2604 129.624 76.6636C129.44 75.9474 129.35 75.2103 129.357 74.4711C129.281 73.1322 129.634 71.8039 130.365 70.6766C130.681 70.2503 131.094 69.9037 131.569 69.6648C132.045 69.4259 132.571 69.3015 133.104 69.3015C133.637 69.3015 134.162 69.4259 134.638 69.6648C135.113 69.9037 135.526 70.2503 135.842 70.6766C136.573 71.8039 136.926 73.1322 136.85 74.4711C136.857 75.2103 136.767 75.9474 136.583 76.6636C136.431 77.2604 136.175 77.8262 135.827 78.3355C135.525 78.777 135.123 79.1422 134.653 79.4018ZM130.511 81.4992C131.33 81.8433 132.212 82.0138 133.101 81.9998C133.992 82.0142 134.875 81.8437 135.696 81.4992C136.471 81.1524 137.159 80.6396 137.711 79.9975C138.303 79.3018 138.752 78.4973 139.032 77.6297C139.354 76.6114 139.511 75.5485 139.495 74.4811C139.51 73.4252 139.353 72.3739 139.032 71.3674C138.755 70.5121 138.306 69.7217 137.711 69.0447C137.154 68.4208 136.466 67.9253 135.696 67.5931C134.034 66.919 132.173 66.919 130.511 67.5931C129.739 67.9217 129.05 68.4177 128.496 69.0447C127.906 69.7235 127.461 70.5135 127.186 71.3674C126.864 72.3739 126.707 73.4252 126.722 74.4811C126.707 75.5485 126.863 76.6114 127.186 77.6297C127.464 78.4959 127.909 79.3001 128.496 79.9975C129.045 80.6425 129.734 81.1559 130.511 81.4992ZM141.546 81.7351V67.3383H144.448L147.018 74.3815C147.179 74.8371 147.335 75.3076 147.481 75.7832C147.628 76.2587 147.784 76.7343 147.95 77.1998H148.036C148.197 76.7343 148.348 76.2587 148.489 75.7832C148.63 75.3076 148.781 74.8371 148.948 74.3815L151.467 67.3383H154.394V81.7351H152.021V75.1524C152.021 74.817 152.021 74.4516 152.057 74.0561C152.076 73.8342 152.088 73.6107 152.1 73.3856C152.109 73.2096 152.119 73.0327 152.132 72.8547C152.162 72.4493 152.203 72.0538 152.243 71.6634C152.255 71.5466 152.267 71.4325 152.279 71.321C152.306 71.0596 152.333 70.8122 152.354 70.5771H152.268L151.094 73.921L148.721 80.3935H147.209L144.816 73.921L143.627 70.5821H143.541C143.561 70.8492 143.588 71.1354 143.616 71.4356L143.637 71.6684C143.651 71.8207 143.666 71.9753 143.68 72.1316C143.703 72.371 143.726 72.6145 143.748 72.8598L143.754 72.9253C143.787 73.3079 143.819 73.6823 143.838 74.0611C143.859 74.4616 143.874 74.822 143.874 75.1574V81.7401L141.546 81.7351ZM160.732 75.8482L161.236 74.0861H161.251C161.483 73.3252 161.705 72.5443 161.911 71.7434C161.999 71.4025 162.088 71.0608 162.177 70.7185C162.297 70.2565 162.417 69.7935 162.536 69.3306H162.622C162.833 70.1181 163.045 70.9174 163.256 71.7284C163.468 72.5393 163.693 73.3252 163.932 74.0861L164.436 75.8482H160.732ZM161.115 67.3483L156.399 81.745H159.019L160.153 77.8505H165.025L166.154 81.745H168.859L164.138 67.3483H161.115ZM175.874 82.0004C174.993 82.0034 174.119 81.8333 173.304 81.4998C172.515 81.1824 171.807 80.6932 171.234 80.0681C170.62 79.3903 170.148 78.5971 169.848 77.7354C169.163 75.6812 169.163 73.4622 169.848 71.4081C170.161 70.5339 170.644 69.7293 171.269 69.0403C171.857 68.406 172.578 67.9072 173.38 67.5786C174.199 67.2396 175.078 67.0693 175.965 67.078C176.809 67.0603 177.645 67.2494 178.399 67.6287C179.052 67.9521 179.645 68.3838 180.152 68.9051L178.776 70.5521C178.414 70.1857 177.996 69.8783 177.537 69.641C177.069 69.4064 176.55 69.2895 176.025 69.3006C175.462 69.2945 174.905 69.4178 174.398 69.661C173.897 69.9074 173.459 70.2614 173.113 70.6972C172.728 71.1862 172.441 71.7434 172.267 72.3391C172.06 73.0466 171.96 73.7803 171.969 74.5167C171.969 76.1586 172.327 77.4468 173.042 78.3812C173.378 78.8314 173.82 79.1937 174.328 79.437C174.836 79.6803 175.396 79.7972 175.96 79.7778C176.562 79.7897 177.157 79.6484 177.688 79.3673C178.2 79.0876 178.663 78.7276 179.059 78.3011L180.434 79.908C179.877 80.5575 179.191 81.0858 178.419 81.4598C177.63 81.8241 176.769 82.0088 175.899 82.0004H175.874ZM189.322 79.4023C188.846 79.6575 188.311 79.7868 187.77 79.7778C187.231 79.7868 186.698 79.6575 186.223 79.4023C185.753 79.141 185.35 78.7763 185.044 78.3361C184.7 77.8253 184.446 77.2599 184.293 76.6642C184.109 75.9479 184.019 75.2109 184.026 74.4716C183.95 73.1328 184.303 71.8045 185.034 70.6772C185.35 70.2509 185.762 69.9043 186.237 69.6654C186.712 69.4265 187.237 69.302 187.77 69.302C188.303 69.302 188.828 69.4265 189.303 69.6654C189.778 69.9043 190.191 70.2509 190.506 70.6772C191.181 71.5933 191.514 72.8597 191.514 74.4716C191.523 75.2107 191.435 75.9477 191.252 76.6642C191.097 77.2601 190.842 77.8256 190.496 78.3361C190.194 78.7776 189.792 79.1427 189.322 79.4023ZM185.18 81.4998C185.999 81.8438 186.881 82.0143 187.77 82.0004C188.661 82.0143 189.544 81.8438 190.365 81.4998C191.14 81.153 191.828 80.6401 192.38 79.998C192.972 79.3023 193.421 78.4978 193.701 77.6303C194.023 76.612 194.18 75.549 194.164 74.4816C194.179 73.4258 194.022 72.3744 193.701 71.368C193.424 70.5126 192.975 69.7222 192.38 69.0453C191.823 68.4213 191.135 67.9259 190.365 67.5936C188.703 66.9195 186.842 66.9195 185.18 67.5936C184.407 67.9211 183.718 68.4172 183.165 69.0453C182.575 69.7241 182.13 70.5141 181.855 71.368C181.533 72.3744 181.376 73.4258 181.391 74.4816C181.376 75.549 181.532 76.612 181.855 77.6303C182.133 78.4965 182.578 79.3007 183.165 79.998C183.713 80.6443 184.402 81.1578 185.18 81.4998Z" fill="white"/>
</svg>
