<svg width="26" height="27" viewBox="0 0 26 27" fill="none" xmlns="http://www.w3.org/2000/svg">
<path fill-rule="evenodd" clip-rule="evenodd" d="M16.8742 3.082C16.8742 4.78414 15.4943 6.164 13.7922 6.164C12.09 6.164 10.7102 4.78414 10.7102 3.082C10.7102 1.37986 12.09 0 13.7922 0C15.4943 0 16.8742 1.37986 16.8742 3.082ZM15.6412 24.501C15.6412 25.5222 14.8134 26.35 13.7922 26.35C12.771 26.35 11.9432 25.5222 11.9432 24.501C11.9432 23.4798 12.771 22.652 13.7922 22.652C14.8134 22.652 15.6412 23.4798 15.6412 24.501ZM6.21919 8.992C7.75123 8.992 8.99319 7.75004 8.99319 6.218C8.99319 4.68596 7.75123 3.444 6.21919 3.444C4.68715 3.444 3.44519 4.68596 3.44519 6.218C3.44519 7.75004 4.68715 8.992 6.21919 8.992ZM22.9062 21.363C22.9062 22.2141 22.2163 22.904 21.3652 22.904C20.5141 22.904 19.8242 22.2141 19.8242 21.363C19.8242 20.5119 20.5141 19.822 21.3652 19.822C22.2163 19.822 22.9062 20.5119 22.9062 21.363ZM3.08219 16.257C4.44357 16.257 5.54719 15.1534 5.54719 13.792C5.54719 12.4306 4.44357 11.327 3.08219 11.327C1.72081 11.327 0.617188 12.4306 0.617188 13.792C0.617188 15.1534 1.72081 16.257 3.08219 16.257ZM25.7332 13.791C25.7332 14.4714 25.1816 15.023 24.5012 15.023C23.8208 15.023 23.2692 14.4714 23.2692 13.791C23.2692 13.1106 23.8208 12.559 24.5012 12.559C25.1816 12.559 25.7332 13.1106 25.7332 13.791ZM4.69419 19.84C3.85119 20.683 3.85119 22.047 4.69419 22.89C5.53619 23.733 6.90219 23.733 7.74419 22.89C8.58719 22.047 8.58719 20.683 7.74419 19.84C6.90219 18.996 5.53719 18.988 4.69419 19.84ZM22.2882 6.218C22.2882 6.72831 21.8745 7.142 21.3642 7.142C20.8539 7.142 20.4402 6.72831 20.4402 6.218C20.4402 5.70769 20.8539 5.294 21.3642 5.294C21.8745 5.294 22.2882 5.70769 22.2882 6.218Z" fill="#009FE3"/>
</svg>
