<svg width="58" height="58" viewBox="0 0 58 58" fill="none" xmlns="http://www.w3.org/2000/svg">
<path fill-rule="evenodd" clip-rule="evenodd" d="M28.6667 4C15.0436 4 4 15.0436 4 28.6667C4 42.2897 15.0436 53.3333 28.6667 53.3333C42.2897 53.3333 53.3333 42.2897 53.3333 28.6667C53.3333 15.0436 42.2897 4 28.6667 4ZM0 28.6667C0 12.8345 12.8345 0 28.6667 0C44.4988 0 57.3333 12.8345 57.3333 28.6667C57.3333 44.4988 44.4988 57.3333 28.6667 57.3333C12.8345 57.3333 0 44.4988 0 28.6667ZM41.9531 16.9588C42.7988 17.6693 42.9085 18.9308 42.1981 19.7766L25.3981 39.7766C25.0257 40.2199 24.4796 40.4801 23.9008 40.4899C23.322 40.4998 22.7673 40.2584 22.3801 39.8282L15.1801 31.8282C14.4412 31.0071 14.5077 29.7426 15.3287 29.0036C16.1498 28.2647 17.4143 28.3313 18.1533 29.1523L23.8146 35.4427L39.1353 17.2038C39.8457 16.3581 41.1073 16.2484 41.9531 16.9588Z" fill="#009FE3"/>
</svg>
