<svg width="25" height="26" viewBox="0 0 25 26" fill="none" xmlns="http://www.w3.org/2000/svg">
<path fill-rule="evenodd" clip-rule="evenodd" d="M14.0501 0.750005C16.8501 0.925005 19.4751 2.32501 21.4001 4.25001C23.6751 6.70001 24.9001 9.67501 24.9001 13.175C24.9001 15.975 23.8501 18.6 22.1001 20.875C20.3501 22.975 17.9001 24.55 15.1001 25.075C12.3001 25.6 9.50009 25.25 7.05009 23.85C4.60009 22.45 2.67509 20.35 1.62509 17.725C0.575087 15.1 0.400087 12.125 1.27509 9.5C2.15009 6.7 3.72509 4.425 6.17509 2.85C8.45009 1.275 11.2501 0.575005 14.0501 0.750005ZM14.9251 23.325C17.2001 22.8 19.3001 21.575 20.8751 19.65C22.2751 17.725 23.1501 15.45 22.9751 13C22.9751 10.2 21.9251 7.40001 20.0001 5.47501C18.2501 3.72501 16.1501 2.675 13.7001 2.5C11.4251 2.325 8.97509 2.85001 7.05009 4.25001C5.12509 5.65001 3.72509 7.57501 3.02509 10.025C2.32509 12.3 2.32509 14.75 3.37509 17.025C4.42509 19.3 6.00009 21.05 8.10009 22.275C10.2001 23.5 12.6501 23.85 14.9251 23.325V23.325ZM12.8251 12.125L17.0251 7.75L18.2501 8.975L14.0501 13.35L18.2501 17.725L17.0251 18.95L12.8251 14.575L8.62509 18.95L7.40009 17.725L11.6001 13.35L7.40009 8.975L8.62509 7.75L12.8251 12.125V12.125Z" fill="#3CA2DB"/>
</svg>
