<svg width="195" height="86" viewBox="0 0 195 86" fill="none" xmlns="http://www.w3.org/2000/svg">
<g clip-path="url(#clip0_352_3240)">
<path d="M11.5985 33.3037C31.3248 48.2311 54.2858 49.3223 75.7555 54.5484C64.0457 57.4968 11.2257 64.4449 11.5985 33.3037Z" fill="#A1DAF8"/>
<path d="M34.1868 64.2698C48.8946 65.9518 61.209 62.0673 75.4583 60.6206C60.5338 67.3384 48.8694 76.8445 34.1868 64.2698Z" fill="#009FE3"/>
<path d="M49.0159 79.0917C58.811 76.4587 67.024 70.6619 76.149 65.0454C70.3898 72.3139 57.0374 87.071 49.0159 79.0917Z" fill="#A1DAF8"/>
<path d="M62.0609 84.9988C66.8022 81.9954 76.0985 70.507 76.3907 70.7272C76.683 70.9475 73.3424 80.5136 69.7801 83.2418C68.6858 84.0489 67.4342 84.6207 66.1052 84.9206C64.7761 85.2206 63.3987 85.2421 62.0609 84.9838" fill="#009FE3"/>
<path d="M0.825745 0.695801C0.825745 0.695801 15.4831 12.4645 36.4287 19.2574C47.2467 22.7615 99.6233 40.6823 104.566 65.8566C105.171 68.9252 97.7489 54.5685 80.0986 49.1421C53.3787 40.9176 6.06089 38.3146 0.825745 0.695801Z" fill="#009FE3"/>
<path d="M89.0023 78.0509L89.1888 78.2061C86.9677 76.1827 85.3618 73.5815 84.5532 70.6974C83.7936 67.9249 83.7727 65.0038 84.4927 62.2209C85.2126 59.438 86.6486 56.8889 88.6597 54.8239C88.2543 54.6192 87.831 54.4517 87.395 54.3233C87.0877 54.2382 86.74 54.1381 86.3873 54.013L86.2462 53.9729H86.221H86.1354H86.1051L86.0296 53.9429C85.5257 53.7677 84.9513 53.5674 84.4071 53.3672C81.1925 58.0877 79.7917 63.4439 81.6661 70.0767C83.5405 76.7094 89.6775 82.7614 96.6409 84.2281L100.087 78.997C97.7388 78.4237 95.5643 77.2955 93.7487 75.7082L93.8949 75.8233C92.0067 74.1128 90.6398 71.9102 89.9496 69.4659C89.3634 67.342 89.2891 65.1107 89.733 62.9529C90.1768 60.7951 91.1262 58.7717 92.5042 57.0465C92.0003 56.7361 91.4713 56.4007 90.9321 56.0904C90.4283 55.785 89.9244 55.4897 89.4206 55.2344C88.1634 57.2514 87.3426 59.5063 87.0104 61.8556C86.6782 64.2049 86.8417 66.5972 87.4908 68.8803C88.182 71.3368 89.4267 73.605 91.1307 75.513C92.8347 77.421 94.9534 78.9188 97.3262 79.8931L96.1824 82.0305C93.522 81.2605 91.0767 79.89 89.0376 78.0259L89.0023 78.0509ZM119.99 59.5144C120.366 60.8499 120.315 61.8099 120.408 63.1936C120.151 63.1486 119.904 63.1135 119.632 63.0935C119.014 63.0334 118.393 63.0233 117.773 63.0635C117.676 62.4664 117.546 61.8748 117.385 61.2914C116.824 59.2922 115.874 57.4215 114.589 55.785C112.753 53.8937 110.43 52.5393 107.873 51.8693C105.316 51.1994 102.623 51.2396 100.087 51.9856L99.775 52.0757C99.5129 51.6452 99.2252 51.2307 98.9133 50.8343C98.6927 50.5598 98.4573 50.2974 98.2079 50.0483L97.8401 49.6879L97.7192 49.5728L97.6839 49.5378L97.6486 49.5077L97.6184 49.4827L97.5529 49.4176L97.5025 49.3776L97.3816 49.2724C96.656 48.6467 95.87 48.021 95.0941 47.4453C94.6406 47.1099 94.2022 46.7896 93.7991 46.5042C94.4189 46.2539 95.0588 46.0337 95.7189 45.8385C106.184 42.835 117.017 48.9771 119.99 59.5144Z" fill="#009FE3"/>
<path d="M110.471 82.6959C109.544 82.7006 108.624 82.5308 107.76 82.1953C106.939 81.8835 106.197 81.3946 105.589 80.7636C104.952 80.0949 104.464 79.2999 104.158 78.4309C103.805 77.412 103.634 76.3396 103.654 75.2623C103.636 74.1858 103.817 73.1153 104.188 72.1036C104.509 71.2408 104.999 70.4498 105.629 69.7759C106.235 69.133 106.977 68.6306 107.801 68.3042C108.655 67.9627 109.57 67.7926 110.491 67.8036C111.399 67.7749 112.3 67.9674 113.116 68.3642C113.768 68.6917 114.363 69.1191 114.88 69.6307L113.504 71.2776C113.135 70.9285 112.722 70.6289 112.275 70.3866C111.747 70.1295 111.164 70.0057 110.577 70.0262C109.971 70.0171 109.371 70.1401 108.818 70.3866C108.297 70.6287 107.836 70.9826 107.468 71.4228C107.07 71.9075 106.772 72.4654 106.591 73.0647C106.375 73.7703 106.27 74.5047 106.279 75.2422C106.279 76.8841 106.652 78.1723 107.397 79.1067C107.801 79.5817 108.311 79.9556 108.887 80.1983C109.463 80.4409 110.089 80.5454 110.713 80.5033C111.11 80.5057 111.506 80.4501 111.887 80.3382C112.22 80.2457 112.529 80.0836 112.794 79.8626V76.759H110.048V74.6716H115.086V81.0089C114.529 81.5392 113.872 81.9543 113.152 82.2304C112.295 82.5722 111.379 82.7423 110.456 82.7309" fill="#009FE3"/>
<path d="M117.875 82.4309V68.0342H120.444V80.2734H126.471V82.4309H117.875Z" fill="#009FE3"/>
<path d="M133.927 80.4729C134.468 80.4819 135.002 80.3526 135.479 80.0975C135.948 79.8379 136.35 79.4728 136.653 79.0313C137.001 78.5219 137.256 77.9561 137.408 77.3593C137.593 76.6431 137.683 75.906 137.676 75.1668C137.751 73.828 137.399 72.4997 136.668 71.3724C136.352 70.946 135.939 70.5994 135.464 70.3605C134.988 70.1217 134.462 69.9972 133.929 69.9972C133.396 69.9972 132.871 70.1217 132.395 70.3605C131.919 70.5994 131.507 70.946 131.191 71.3724C130.46 72.4997 130.107 73.828 130.183 75.1668C130.176 75.906 130.266 76.6431 130.45 77.3593C130.602 77.9561 130.858 78.5219 131.206 79.0313C131.508 79.4728 131.91 79.8379 132.38 80.0975C132.855 80.352 133.387 80.4813 133.927 80.4729ZM133.927 82.6955C133.038 82.7095 132.156 82.539 131.337 82.1949C130.56 81.8516 129.871 81.3383 129.321 80.6932C128.734 79.9958 128.289 79.1916 128.011 78.3254C127.689 77.3072 127.532 76.2442 127.548 75.1768C127.533 74.1209 127.69 73.0696 128.011 72.0632C128.286 71.2092 128.732 70.4192 129.321 69.7405C129.876 69.1134 130.565 68.6174 131.337 68.2888C132.999 67.6147 134.86 67.6147 136.522 68.2888C137.292 68.621 137.98 69.1165 138.537 69.7405C139.132 70.4174 139.581 71.2078 139.857 72.0632C140.179 73.0696 140.336 74.1209 140.321 75.1768C140.336 76.2442 140.18 77.3072 139.857 78.3254C139.578 79.193 139.129 79.9975 138.537 80.6932C137.985 81.3353 137.297 81.8481 136.522 82.1949C135.701 82.5394 134.817 82.7099 133.927 82.6955Z" fill="#009FE3"/>
<path d="M142.372 82.4309V68.0342H145.274L147.844 75.0774C148.005 75.5329 148.161 76.0034 148.307 76.479C148.453 76.9545 148.609 77.4301 148.776 77.8956H148.861C149.023 77.4301 149.174 76.9545 149.315 76.479C149.456 76.0034 149.607 75.5329 149.773 75.0774L152.293 68.0342H155.22V82.4309H152.847V75.8483C152.847 75.5129 152.847 75.1474 152.882 74.752C152.918 74.3565 152.928 73.9561 152.958 73.5506C152.988 73.1451 153.028 72.7497 153.069 72.3592C153.109 71.9688 153.149 71.6083 153.18 71.2729H153.094L151.92 74.6168L149.547 81.0894H148.035L145.642 74.6168L144.453 71.2779H144.367C144.392 71.6133 144.427 71.9788 144.463 72.3642C144.498 72.7497 144.538 73.1501 144.574 73.5556C144.609 73.9611 144.644 74.3565 144.664 74.757C144.684 75.1575 144.699 75.5179 144.699 75.8533V82.4359L142.372 82.4309Z" fill="#009FE3"/>
<path d="M162.062 74.7818L161.558 76.5438H165.261L164.757 74.7818C164.519 74.0209 164.294 73.235 164.082 72.424C163.871 71.6131 163.659 70.8138 163.447 70.0263H163.362C163.155 70.8322 162.943 71.6381 162.737 72.4391C162.53 73.24 162.309 74.0209 162.077 74.7818H162.062ZM157.225 82.4407L161.941 68.0439H164.964L169.685 82.4407H166.979L165.851 78.5462H160.978L159.845 82.4407H157.225Z" fill="#009FE3"/>
<path d="M176.7 82.696C175.819 82.699 174.945 82.5289 174.13 82.1954C173.341 81.878 172.633 81.3888 172.059 80.7637C171.445 80.0859 170.974 79.2927 170.674 78.431C169.988 76.3768 169.988 74.1578 170.674 72.1036C170.986 71.2294 171.469 70.4249 172.095 69.7359C172.683 69.1016 173.403 68.6027 174.206 68.2742C175.024 67.9352 175.904 67.7649 176.791 67.7736C177.635 67.7559 178.471 67.945 179.224 68.3242C179.878 68.6477 180.47 69.0794 180.978 69.6007L179.602 71.2476C179.24 70.8813 178.821 70.5738 178.363 70.3366C177.894 70.1019 177.375 69.9851 176.851 69.9962C176.288 69.9901 175.731 70.1134 175.224 70.3566C174.723 70.603 174.284 70.957 173.939 71.3928C173.554 71.8817 173.267 72.439 173.092 73.0347C172.886 73.7422 172.786 74.4759 172.795 75.2123C172.795 76.8542 173.153 78.1423 173.868 79.0768C174.204 79.5269 174.645 79.8893 175.154 80.1326C175.662 80.3758 176.222 80.4928 176.786 80.4734C177.387 80.4853 177.982 80.344 178.514 80.0629C179.026 79.7832 179.488 79.4232 179.884 78.9967L181.26 80.6035C180.703 81.2531 180.017 81.7813 179.244 82.1553C178.456 82.5197 177.595 82.7044 176.725 82.696" fill="#009FE3"/>
<path d="M188.596 80.4734C189.137 80.4824 189.671 80.3531 190.148 80.098C190.617 79.8384 191.019 79.4733 191.322 79.0318C191.668 78.5212 191.923 77.9558 192.077 77.3598C192.26 76.6434 192.348 75.9063 192.339 75.1673C192.339 73.5554 192.007 72.2889 191.332 71.3728C191.016 70.9465 190.604 70.5999 190.129 70.361C189.654 70.1221 189.128 69.9977 188.596 69.9977C188.063 69.9977 187.538 70.1221 187.063 70.361C186.587 70.5999 186.175 70.9465 185.86 71.3728C185.129 72.5001 184.776 73.8285 184.852 75.1673C184.845 75.9065 184.935 76.6436 185.119 77.3598C185.272 77.9555 185.526 78.521 185.87 79.0318C186.176 79.4719 186.579 79.8366 187.049 80.098C187.523 80.3531 188.056 80.4824 188.596 80.4734ZM188.596 82.696C187.707 82.71 186.825 82.5395 186.006 82.1954C185.228 81.8535 184.539 81.3399 183.99 80.6937C183.403 79.9963 182.958 79.1921 182.68 78.3259C182.358 77.3076 182.201 76.2447 182.217 75.1773C182.202 74.1214 182.359 73.0701 182.68 72.0637C182.955 71.2097 183.401 70.4197 183.99 69.7409C184.544 69.1129 185.233 68.6167 186.006 68.2893C187.668 67.6152 189.529 67.6152 191.191 68.2893C191.961 68.6215 192.649 69.117 193.206 69.7409C193.801 70.4179 194.25 71.2083 194.526 72.0637C194.848 73.0701 195.005 74.1214 194.99 75.1773C195.005 76.2447 194.849 77.3076 194.526 78.3259C194.247 79.1935 193.798 79.998 193.206 80.6937C192.654 81.3358 191.966 81.8486 191.191 82.1954C190.37 82.5395 189.486 82.71 188.596 82.696Z" fill="#009FE3"/>
</g>
<defs>
<clipPath id="clip0_352_3240">
<path d="M0.825745 0.695801H195V80.1306C195 82.916 192.742 85.1741 189.956 85.1741H5.86922C3.08379 85.1741 0.825745 82.916 0.825745 80.1306V0.695801Z" fill="white"/>
</clipPath>
</defs>
</svg>
